<?xml version="1.0" encoding="utf-8"?>
<svg viewBox="0 0 200 200" width="200pt" height="200pt" xmlns="http://www.w3.org/2000/svg">
  <title>Clear Night</title>
  <path stroke-width=".1" d="M 114.415 172.295 C 132.037 164.519 146.787 149.939 154.01 131.763 C 160.794 114.656 161.128 94.535 154.645 76.555 C 148.496 59.739 136.671 44.867 121.514 35.343 C 108.421 26.979 92.893 22.511 77.673 23.093 C 57.731 23.287 38.727 32.329 25.505 46.81 C 23.205 49.24 21.312 52.158 19.107 54.588 C 19.13 55.172 19.433 55.557 19.549 56.045 L 20.086 55.072 C 30.199 51.377 40.945 49.24 51.831 50.408 C 72.587 51.377 93.065 62.07 106.673 78.401 C 116.229 89.385 122.734 103.088 125.132 117.279 C 128.006 133.805 125.53 150.716 118.156 165.2 C 117.106 167.632 115.268 169.575 114.415 172.295 Z" style="paint-order: stroke; stroke: rgb(255, 255, 255); fill: rgb(240, 211, 64);" transform="matrix(-1, 0, 0, -1, 178.416271, 195.337479)"/>
  <path stroke-linecap="round" d="M 115.321 14.074 L 120.353 28.866 C 120.553 29.45 121.101 29.842 121.716 29.842 L 137.819 29.842 C 138.934 29.857 139.615 31.074 139.046 32.031 C 138.948 32.193 138.821 32.335 138.67 32.45 L 125.683 41.928 C 125.166 42.301 124.956 42.971 125.169 43.573 L 130.797 59.69 C 131.158 60.742 130.245 61.788 129.154 61.574 C 128.947 61.534 128.753 61.448 128.584 61.325 L 114.709 51.168 C 114.201 50.796 113.51 50.796 113.003 51.168 L 99.554 61.331 C 98.422 62.158 96.894 61.041 97.334 59.708 L 102.726 43.638 C 102.924 43.044 102.716 42.388 102.212 42.016 L 89.135 32.45 C 88.014 31.623 88.593 29.837 89.986 29.837 L 106.308 29.837 C 106.928 29.837 107.479 29.443 107.677 28.857 L 112.583 14.079 C 112.943 13.025 114.31 12.756 115.044 13.596 C 115.166 13.735 115.259 13.896 115.321 14.07" style="stroke: rgb(112, 110, 3); stroke-width: 0px; fill: rgb(240, 211, 64);"/>
  <path stroke-linecap="round" d="M 164.527 61.512 L 168.097 72.659 C 168.24 73.098 168.628 73.395 169.066 73.395 L 180.494 73.395 C 181.287 73.406 181.768 74.322 181.365 75.044 C 181.296 75.166 181.206 75.272 181.099 75.358 L 171.881 82.501 C 171.513 82.783 171.365 83.287 171.516 83.741 L 175.512 95.886 C 175.767 96.678 175.117 97.466 174.344 97.305 C 174.197 97.274 174.061 97.21 173.94 97.118 L 164.092 89.464 C 163.732 89.183 163.242 89.183 162.882 89.464 L 153.336 97.121 C 152.533 97.744 151.448 96.903 151.761 95.9 L 155.588 83.79 C 155.729 83.342 155.581 82.847 155.223 82.568 L 145.941 75.358 C 145.146 74.736 145.557 73.392 146.545 73.392 L 158.13 73.392 C 158.57 73.392 158.96 73.094 159.102 72.652 L 162.584 61.518 C 162.839 60.722 163.81 60.52 164.33 61.152 C 164.416 61.258 164.484 61.379 164.527 61.51" style="stroke: rgb(112, 110, 3); stroke-width: 0px; fill: rgb(240, 211, 64);"/>
</svg>