<?xml version="1.0" encoding="utf-8"?>
<svg viewBox="0 0 200 200" width="200pt" height="200pt" xmlns="http://www.w3.org/2000/svg" >
  <defs>
  </defs>
  <title>Clear Day</title>
  <g>
    <line style="stroke-linecap: round; stroke-width: 7px; fill: rgb(232, 196, 0); paint-order: stroke; stroke: rgb(232, 196, 0);" x1="190.715" y1="100" x2="162.607" y2="100"/>
    <line style="stroke-linecap: round; stroke-width: 7px; fill: rgb(232, 196, 0); paint-order: stroke; stroke: rgb(232, 196, 0);" x1="36.918" y1="100" x2="8.81" y2="100"/>
    <line style="stroke-linecap: round; stroke-width: 7px; fill: rgb(232, 196, 0); paint-order: stroke; stroke: rgb(232, 196, 0);" x1="114.054" y1="22.79" x2="85.946" y2="22.79" transform="matrix(0, -1, 1, 0, 77.209999, 122.790001)"/>
    <line style="stroke-linecap: round; stroke-width: 7px; fill: rgb(232, 196, 0); paint-order: stroke; stroke: rgb(232, 196, 0);" x1="114.054" y1="176.451" x2="85.946" y2="176.451" transform="matrix(0, -1, 1, 0, -76.451004, 276.451004)"/>
    <line style="stroke-linecap: round; stroke-width: 7px; fill: rgb(232, 196, 0); paint-order: stroke; stroke: rgb(232, 196, 0);" x1="60.369" y1="154.248" x2="32.261" y2="154.248" transform="matrix(0.694658, -0.71934, 0.71934, 0.694658, -96.814848, 80.414598)"/>
    <line style="stroke-linecap: round; stroke-width: 7px; fill: rgb(232, 196, 0); paint-order: stroke; stroke: rgb(232, 196, 0);" x1="168.934" y1="45.961" x2="140.826" y2="45.961" transform="matrix(0.694658, -0.71934, 0.71934, 0.694658, 14.229759, 125.445196)"/>
    <line style="stroke-linecap: round; stroke-width: 7px; fill: rgb(232, 196, 0); paint-order: stroke; stroke: rgb(232, 196, 0);" x1="168.667" y1="153.553" x2="140.559" y2="153.553" transform="matrix(0.707107, 0.707107, -0.707107, 0.707107, 153.863464, -64.353275)"/>
    <line style="stroke-linecap: round; stroke-width: 7px; fill: rgb(232, 196, 0); paint-order: stroke; stroke: rgb(232, 196, 0);" x1="59.7" y1="46.076" x2="31.591" y2="46.076" transform="matrix(0.707107, 0.707107, -0.707107, 0.707107, 45.94991, -18.780895)"/>
    <circle style="fill: rgb(232, 196, 0);" cx="100.103" cy="99.239" r="55" />
  </g>
</svg>