<?xml version="1.0" encoding="utf-8"?>
<svg viewBox="0 0 200 200" width="200pt" height="200pt" xmlns="http://www.w3.org/2000/svg">
  <title>Clear Windy Night</title>
  <path stroke-width=".1" d="M 111.262 173.491 C 128.884 165.715 143.634 151.135 150.857 132.959 C 157.641 115.852 157.975 95.731 151.492 77.751 C 145.343 60.935 133.518 46.063 118.361 36.539 C 105.268 28.175 89.74 23.707 74.52 24.289 C 54.578 24.483 35.574 33.525 22.352 48.006 C 20.052 50.436 18.159 53.354 15.954 55.784 C 15.977 56.368 16.28 56.753 16.396 57.241 L 16.933 56.268 C 27.046 52.573 37.792 50.436 48.678 51.604 C 69.434 52.573 89.912 63.266 103.52 79.597 C 113.076 90.581 119.581 104.284 121.979 118.475 C 124.853 135.001 122.377 151.912 115.003 166.396 C 113.953 168.828 112.115 170.771 111.262 173.491 Z" style="paint-order: stroke; stroke: rgb(255, 255, 255); fill: rgb(240, 211, 64);" transform="matrix(-1, 0, 0, -1, 172.110271, 197.729469)"/>
  <path stroke-linecap="round" d="M 163.81 58.023 L 167.38 69.17 C 167.523 69.609 167.911 69.906 168.349 69.906 L 179.777 69.906 C 180.57 69.917 181.051 70.833 180.648 71.555 C 180.579 71.677 180.489 71.783 180.382 71.869 L 171.164 79.012 C 170.796 79.294 170.648 79.798 170.799 80.252 L 174.795 92.397 C 175.05 93.189 174.4 93.977 173.627 93.816 C 173.48 93.785 173.344 93.721 173.223 93.629 L 163.375 85.975 C 163.015 85.694 162.525 85.694 162.165 85.975 L 152.619 93.632 C 151.816 94.255 150.731 93.414 151.044 92.411 L 154.871 80.301 C 155.012 79.853 154.864 79.358 154.506 79.079 L 145.224 71.869 C 144.429 71.247 144.84 69.903 145.828 69.903 L 157.413 69.903 C 157.853 69.903 158.243 69.605 158.385 69.163 L 161.867 58.029 C 162.122 57.233 163.093 57.031 163.613 57.663 C 163.699 57.769 163.767 57.89 163.81 58.021" style="stroke: rgb(112, 110, 3); stroke-width: 0px; fill: rgb(240, 211, 64);"/>
  <path stroke-linecap="round" d="M 112.23 15.27 L 117.262 30.062 C 117.462 30.646 118.01 31.038 118.625 31.038 L 134.728 31.038 C 135.843 31.053 136.524 32.27 135.955 33.227 C 135.857 33.389 135.73 33.531 135.579 33.646 L 122.592 43.124 C 122.075 43.497 121.865 44.167 122.078 44.769 L 127.706 60.886 C 128.067 61.938 127.154 62.984 126.063 62.77 C 125.856 62.73 125.662 62.644 125.493 62.521 L 111.618 52.364 C 111.11 51.992 110.419 51.992 109.912 52.364 L 96.463 62.527 C 95.331 63.354 93.803 62.237 94.243 60.904 L 99.635 44.834 C 99.833 44.24 99.625 43.584 99.121 43.212 L 86.044 33.646 C 84.923 32.819 85.502 31.033 86.895 31.033 L 103.217 31.033 C 103.837 31.033 104.388 30.639 104.586 30.053 L 109.492 15.275 C 109.852 14.221 111.219 13.952 111.953 14.792 C 112.075 14.931 112.168 15.092 112.23 15.266" style="stroke: rgb(112, 110, 3); stroke-width: 0px; fill: rgb(240, 211, 64);"/>
  <path data-name="stroke" d="M 154.83 180.33 C 159.844 180.33 163.91 175.768 163.91 170.141 C 163.91 164.513 159.844 159.952 154.83 159.952 L 127.59 159.952 M 27.711 159.952 L 100.351 159.952 C 107.873 159.952 113.97 166.796 113.97 175.236 C 113.97 183.678 107.873 190.52 100.351 190.52" fill="none" stroke="#2e4369" stroke-linecap="round" stroke-linejoin="round" style="stroke-width: 5px;"/>
  <path data-name="stroke" d="M 155.978 116.367 C 160.994 116.367 165.058 120.929 165.058 126.556 C 165.058 132.185 160.994 136.745 155.978 136.745 L 128.74 136.745 M 28.859 136.745 C 14.96 136.306 81.966 136.127 101.499 136.745 C 109.023 136.745 115.119 129.901 115.119 121.461 C 115.119 113.02 109.023 106.177 101.499 106.177" fill="none" stroke="#2e4369" stroke-linecap="round" stroke-linejoin="round" style="stroke-width: 5px;"/>
  <path data-name="stroke" d="M 78.862 93.62 C 83.876 93.62 87.943 98.181 87.943 103.809 C 87.943 109.436 83.876 113.999 78.862 113.999 L 51.623 113.999" fill="none" stroke="#2e4369" stroke-linecap="round" stroke-linejoin="round" style="stroke-width: 5px;"/>
</svg>