<?xml version="1.0" encoding="utf-8"?>
<svg viewBox="0 0 200 200" width="200pt" height="200pt" xmlns="http://www.w3.org/2000/svg">
  <title>Clear Windy Day</title>
  <g fill="none" fill-rule="evenodd" transform="matrix(6.212759, 0, 0, 6.085049, -57.927483, -57.36982)" style="">
    <path d="M25.666 18.334c3.86 0 7 3.14 7 7s-3.14 7-7 7-7-3.14-7-7 3.14-7 7-7" fill="#EBC400"/>
    <path d="M25 15a.5.5 0 0 0 .5-.5v-4a.5.5 0 0 0-1 0v4a.5.5 0 0 0 .5.5m.5 25.5v-4a.5.5 0 0 0-1 0v4a.5.5 0 0 0 1 0M15 26a.5.5 0 0 0-.5-.5h-4a.5.5 0 0 0 0 1h4a.5.5 0 0 0 .5-.5m25.5-.5h-4a.5.5 0 0 0 0 1h4a.5.5 0 0 0 0-1M15.58 36.294l2.83-2.83a.5.5 0 0 0-.708-.706l-2.829 2.828a.5.5 0 0 0 .707.707m18.031-18.238a.502.502 0 0 0 .354-.146l2.828-2.829a.5.5 0 0 0-.707-.707l-2.829 2.828a.502.502 0 0 0 .354.854m.354 14.703a.5.5 0 0 0-.707.707l2.829 2.829a.498.498 0 0 0 .707 0 .5.5 0 0 0 0-.707l-2.83-2.83zM17.702 17.909a.498.498 0 0 0 .707 0 .5.5 0 0 0 0-.707l-2.83-2.83a.5.5 0 0 0-.706.708l2.829 2.829z" fill="#E8C400"/>
  </g>
  <path data-name="stroke" d="M 165.301 171.237 C 170.369 171.237 174.476 167.213 174.476 162.25 C 174.476 157.286 170.369 153.263 165.301 153.263 L 137.774 153.263 M 36.84 153.263 L 110.247 153.263 C 117.849 153.263 124.01 159.299 124.01 166.743 C 124.01 174.189 117.849 180.224 110.247 180.224" fill="none" stroke="#2e4369" stroke-linecap="round" stroke-linejoin="round" style="stroke-width: 5px;"/>
  <path data-name="stroke" d="M 166.461 114.82 C 171.53 114.82 175.637 118.844 175.637 123.807 C 175.637 128.771 171.53 132.794 166.461 132.794 L 138.935 132.794 M 38.001 132.794 C 23.956 132.406 91.668 132.248 111.407 132.794 C 119.01 132.794 125.171 126.758 125.171 119.313 C 125.171 111.868 119.01 105.833 111.407 105.833" fill="none" stroke="#2e4369" stroke-linecap="round" stroke-linejoin="round" style="stroke-width: 5px;"/>
  <path data-name="stroke" d="M 88.532 94.756 C 93.599 94.756 97.708 98.78 97.708 103.744 C 97.708 108.707 93.599 112.73 88.532 112.73 L 61.005 112.73" fill="none" stroke="#2e4369" stroke-linecap="round" stroke-linejoin="round" style="stroke-width: 5px;"/>
</svg>