<?xml version="1.0" encoding="utf-8"?>
<svg viewBox="0 0 200 200" width="200pt" height="200pt" xmlns="http://www.w3.org/2000/svg">
  <title>Dust OVC</title>
  <path stroke="#e4e3e3" stroke-width=".1" d="M 89.2 40.733 C 95.974 32.219 106.698 27.962 116.859 28.839 C 127.02 29.465 137.18 35.724 142.542 45.555 C 151.124 39.294 163.317 40.42 170.655 48.371 C 173.816 51.688 191.992 67.338 196.057 75.163 C 199.725 81.923 200.177 90.625 197.185 97.7 C 192.951 108.218 182.792 114.478 172.629 114.478 L 89.652 114.478 C 81.072 114.478 72.436 109.971 67.411 102.208 C 63.687 96.448 62.162 88.811 63.687 81.923 C 65.944 72.098 73.506 64.585 82.145 62.018 C 81.861 54.257 84.515 46.493 89.2 40.733" style="fill: rgb(228, 185, 42);"/>
  <path data-name="layer1" d="M 107.88 47.037 L 2 47.037 C 46.431 74.399 -1.215 83.59 31.304 113.945 C 54.939 136.816 58.342 150.285 51.158 166.744 L 58.721 166.744 C 58.721 166.744 95.023 135.962 85.19 115.441 C 53.805 71.62 136.996 91.5 107.88 47.037 Z" style="fill: rgba(52, 42, 4, 0.5);"/>
  <path data-name="stroke" fill="none" stroke="#2e4369" stroke-linecap="round" stroke-linejoin="round" stroke-width="2" d="M 2 47.037 L 105.716 47.037 M 20.522 63.873 L 113.126 63.873 M 20.16 80.112 L 94.604 80.709 M 20.522 97.544 L 76.085 97.544 M 31.633 114.379 C 30.387 114.081 83.433 114.365 83.493 114.379 M 46.45 131.213 L 83.493 131.213 M 53.859 148.049 L 72.378 148.049 M 50.154 164.885 L 57.562 164.885" style=""/>
</svg>