<?xml version="1.0" encoding="utf-8"?>
<svg viewBox="0 0 200 200" width="200pt" height="200pt" xmlns="http://www.w3.org/2000/svg">
  <title>Clear partly cloudy night</title>
  <path stroke-width=".1" d="M 105.939 174.917 C 123.561 167.141 138.311 152.561 145.534 134.385 C 152.318 117.278 152.652 97.157 146.169 79.177 C 140.02 62.361 128.195 47.489 113.038 37.965 C 99.945 29.601 84.417 25.133 69.197 25.715 C 49.255 25.909 30.251 34.951 17.029 49.432 C 14.729 51.862 12.836 54.78 10.631 57.21 C 10.654 57.794 10.957 58.179 11.073 58.667 L 11.61 57.694 C 21.723 53.999 32.469 51.862 43.355 53.03 C 64.111 53.999 84.589 64.692 98.197 81.023 C 107.753 92.007 114.258 105.71 116.656 119.901 C 119.53 136.427 117.054 153.338 109.68 167.822 C 108.63 170.254 106.792 172.197 105.939 174.917 Z" style="paint-order: stroke; stroke: rgb(255, 255, 255); fill: rgb(240, 211, 64);" transform="matrix(-1, 0, 0, -1, 161.464254, 200.581478)"/>
  <path stroke-linecap="round" d="M 158.487 59.449 L 162.057 70.596 C 162.2 71.035 162.588 71.332 163.026 71.332 L 174.454 71.332 C 175.247 71.343 175.728 72.259 175.325 72.981 C 175.256 73.103 175.166 73.209 175.059 73.295 L 165.841 80.438 C 165.473 80.72 165.325 81.224 165.476 81.678 L 169.472 93.823 C 169.727 94.615 169.077 95.403 168.304 95.242 C 168.157 95.211 168.021 95.147 167.9 95.055 L 158.052 87.401 C 157.692 87.12 157.202 87.12 156.842 87.401 L 147.296 95.058 C 146.493 95.681 145.408 94.84 145.721 93.837 L 149.548 81.727 C 149.689 81.279 149.541 80.784 149.183 80.505 L 139.901 73.295 C 139.106 72.673 139.517 71.329 140.505 71.329 L 152.09 71.329 C 152.53 71.329 152.92 71.031 153.062 70.589 L 156.544 59.455 C 156.799 58.659 157.77 58.457 158.29 59.089 C 158.376 59.195 158.444 59.316 158.487 59.447" style="stroke: rgb(112, 110, 3); stroke-width: 0px; fill: rgb(240, 211, 64);"/>
  <path fill="#e4e3e3" stroke="#e4e3e3" stroke-width=".1" d="M 94.508 88.642 C 100.11 81.713 108.979 78.249 117.383 78.963 C 125.787 79.472 134.19 84.565 138.625 92.565 C 145.721 87.47 155.805 88.387 161.875 94.858 C 164.489 97.557 179.521 110.292 182.884 116.66 C 185.917 122.162 186.291 129.243 183.816 135 C 180.314 143.56 171.913 148.653 163.507 148.653 L 94.882 148.653 C 87.785 148.653 80.643 144.986 76.488 138.668 C 73.407 133.981 72.147 127.767 73.407 122.162 C 75.274 114.166 81.528 108.052 88.673 105.963 C 88.439 99.647 90.633 93.329 94.508 88.642" style=""/>
  <path stroke-linecap="round" d="M 106.907 16.696 L 111.939 31.488 C 112.139 32.072 112.687 32.464 113.302 32.464 L 129.405 32.464 C 130.52 32.479 131.201 33.696 130.632 34.653 C 130.534 34.815 130.407 34.957 130.256 35.072 L 117.269 44.55 C 116.752 44.923 116.542 45.593 116.755 46.195 L 122.383 62.312 C 122.744 63.364 121.831 64.41 120.74 64.196 C 120.533 64.156 120.339 64.07 120.17 63.947 L 106.295 53.79 C 105.787 53.418 105.096 53.418 104.589 53.79 L 91.14 63.953 C 90.008 64.78 88.48 63.663 88.92 62.33 L 94.312 46.26 C 94.51 45.666 94.302 45.01 93.798 44.638 L 80.721 35.072 C 79.6 34.245 80.179 32.459 81.572 32.459 L 97.894 32.459 C 98.514 32.459 99.065 32.065 99.263 31.479 L 104.169 16.701 C 104.529 15.647 105.896 15.378 106.63 16.218 C 106.752 16.357 106.845 16.518 106.907 16.692" style="stroke: rgb(112, 110, 3); stroke-width: 0px; fill: rgb(240, 211, 64);"/>
</svg>