<?xml version="1.0" encoding="utf-8"?>
<svg viewBox="0 0 200 200" width="200pt" height="200pt" xmlns="http://www.w3.org/2000/svg">
  <title>Haze Fog Day</title>
  <g fill="none" fill-rule="evenodd" transform="matrix(5.680817, 0, 0, 5.826942, -41.440708, -55.348064)" style="">
    <path d="M25.666 18.334c3.86 0 7 3.14 7 7s-3.14 7-7 7-7-3.14-7-7 3.14-7 7-7" fill="#EBC400"/>
    <path d="M25 15a.5.5 0 0 0 .5-.5v-4a.5.5 0 0 0-1 0v4a.5.5 0 0 0 .5.5m.5 25.5v-4a.5.5 0 0 0-1 0v4a.5.5 0 0 0 1 0M15 26a.5.5 0 0 0-.5-.5h-4a.5.5 0 0 0 0 1h4a.5.5 0 0 0 .5-.5m25.5-.5h-4a.5.5 0 0 0 0 1h4a.5.5 0 0 0 0-1M15.58 36.294l2.83-2.83a.5.5 0 0 0-.708-.706l-2.829 2.828a.5.5 0 0 0 .707.707m18.031-18.238a.502.502 0 0 0 .354-.146l2.828-2.829a.5.5 0 0 0-.707-.707l-2.829 2.828a.502.502 0 0 0 .354.854m.354 14.703a.5.5 0 0 0-.707.707l2.829 2.829a.498.498 0 0 0 .707 0 .5.5 0 0 0 0-.707l-2.83-2.83zM17.702 17.909a.498.498 0 0 0 .707 0 .5.5 0 0 0 0-.707l-2.83-2.83a.5.5 0 0 0-.706.708l2.829 2.829z" fill="#E8C400"/>
  </g>
  <g id="g-1" transform="matrix(1.289422, 0, 0, 1.289422, -89.706192, 18.453558)" style="">
    <path opacity="1.00" d=" M 83.96 65.95 C 127.98 65.94 172.01 65.94 216.04 65.95 C 216.06 69.50 216.06 73.05 216.03 76.60 C 172.01 76.60 127.99 76.60 83.97 76.60 C 83.94 73.05 83.94 69.50 83.96 65.95 Z" style="fill: rgb(208, 212, 213);"/>
    <path opacity="1.00" d=" M 83.94 86.22 C 127.97 86.22 172.00 86.21 216.03 86.22 C 216.06 89.83 216.06 93.44 216.04 97.05 C 172.01 97.06 127.98 97.05 83.95 97.05 C 83.94 93.44 83.95 89.83 83.94 86.22 Z" style="fill: rgb(208, 212, 213);"/>
    <path opacity="1.00" d=" M 83.96 106.95 C 127.98 106.94 172.01 106.94 216.04 106.95 C 216.06 110.54 216.06 114.13 216.03 117.72 C 172.01 117.73 127.99 117.73 83.97 117.72 C 83.94 114.13 83.94 110.54 83.96 106.95 Z" style="fill: rgb(208, 212, 213);"/>
    <path opacity="1.00" d=" M 83.98 127.40 C 128.00 127.41 172.01 127.40 216.03 127.40 C 216.06 130.95 216.06 134.50 216.04 138.05 C 172.02 138.06 127.99 138.06 83.96 138.05 C 83.93 134.49 83.93 130.94 83.98 127.40 Z" style="fill: rgb(208, 212, 213);"/>
  </g>
</svg>