<?xml version="1.0" encoding="utf-8"?>
<svg viewBox="0 0 200 200" width="200pt" height="200pt" xmlns="http://www.w3.org/2000/svg">
  <title>Mostly cloudy day</title>
  <path stroke="#ff8841" stroke-width=".1" d="M 35.47 46.914 C 49.086 39.076 67.29 39.882 80.141 48.819 C 88.248 54.459 94.137 62.957 96.203 72.259 C 98.727 83.395 95.974 95.554 88.707 104.491 C 81.975 112.989 71.497 118.629 60.407 119.655 C 46.255 121.12 31.493 114.968 23.156 103.832 C 16.271 95.041 13.747 83.102 16.271 72.333 C 18.567 61.712 25.833 52.335 35.394 46.987 Z" style="fill: rgb(240, 211, 64);"/>
  <path fill="#e4e3e3" stroke="#e4e3e3" stroke-width=".1" d="M 28.923 68.365 C 36.431 58.601 48.315 53.717 59.575 54.723 C 70.836 55.441 82.095 62.621 88.037 73.894 C 97.546 66.713 111.058 68.007 119.19 77.125 C 122.694 80.932 142.836 98.882 147.34 107.858 C 151.406 115.612 151.906 125.593 148.591 133.706 C 143.9 145.77 132.639 152.95 121.379 152.95 L 29.424 152.95 C 19.916 152.95 10.344 147.781 4.777 138.877 C 0.649 132.271 -1.04 123.512 0.649 115.612 C 3.15 104.34 11.534 95.722 21.104 92.779 C 20.792 83.876 23.731 74.971 28.923 68.365" style=""/>
  <path fill="#aca6a6" stroke="#aca6a6" stroke-width=".1" d="M 102.881 107.369 C 116.192 100.165 134.201 104.549 142.658 117.078 C 149.706 113.632 158.789 113.007 165.366 117.862 C 170.064 120.367 171.63 125.222 173.509 129.607 C 181.026 131.486 188.7 135.557 191.832 143.075 C 195.904 152.001 192.145 163.121 184.002 168.131 C 179.616 171.577 173.98 172.83 168.341 172.83 L 97.869 172.83 C 89.569 173.3 80.643 170.324 75.632 163.747 C 69.993 156.856 69.838 146.207 75.319 139.159 C 78.45 134.931 83.149 132.582 87.847 130.547 C 88.473 120.837 94.111 111.754 102.881 107.369 Z" style=""/>
  <path fill="#aca6a6" stroke="#aca6a6" stroke-width=".1" d="M 64.778 23.766 C 74.465 17.764 87.572 21.416 93.726 31.854 C 98.856 28.983 105.466 28.463 110.252 32.507 C 113.671 34.594 114.811 38.639 116.178 42.292 C 121.649 43.857 127.234 47.249 129.513 53.512 C 132.477 60.948 129.741 70.212 123.815 74.386 C 120.623 77.256 116.521 78.3 112.417 78.3 L 61.131 78.3 C 55.09 78.692 48.594 76.213 44.948 70.733 C 40.844 64.993 40.731 56.121 44.72 50.25 C 46.998 46.727 50.418 44.77 53.837 43.075 C 54.293 34.986 58.396 27.419 64.778 23.766 Z" style=""/>
</svg>