<?xml version="1.0" encoding="utf-8"?>
<svg viewBox="0 0 200 200" width="200pt" height="200pt" xmlns="http://www.w3.org/2000/svg">
  <title>Mostly cloudy Day</title>
  <path stroke="#ff8841" stroke-width=".1" d="M 62.823 19.564 C 76.439 11.726 94.643 12.532 107.494 21.469 C 115.601 27.109 121.49 35.607 123.556 44.909 C 126.08 56.045 123.327 68.204 116.06 77.141 C 109.328 85.639 98.85 91.279 87.76 92.305 C 73.608 93.77 58.846 87.618 50.509 76.482 C 43.624 67.691 41.1 55.752 43.624 44.983 C 45.92 34.362 53.186 24.985 62.747 19.637 Z" style="fill: rgb(240, 211, 64);"/>
  <path fill="#e4e3e3" stroke="#e4e3e3" stroke-width=".1" d="M 74.465 44.739 C 82.2 34.68 94.444 29.648 106.044 30.684 C 117.645 31.424 129.245 38.821 135.367 50.435 C 145.164 43.037 159.084 44.37 167.463 53.764 C 171.072 57.686 191.823 76.179 196.464 85.426 C 200.653 93.415 201.168 103.698 197.753 112.057 C 192.92 124.485 181.318 131.882 169.717 131.882 L 74.981 131.882 C 65.185 131.882 55.324 126.557 49.588 117.384 C 45.336 110.578 43.596 101.554 45.336 93.415 C 47.913 81.802 56.549 72.923 66.409 69.891 C 66.088 60.719 69.116 51.544 74.465 44.739" style=""/>
  <path fill="#aca6a6" stroke="#aca6a6" stroke-width=".1" d="M 34.972 99.59 C 48.058 92.509 65.762 96.819 74.076 109.135 C 81.003 105.749 89.933 105.133 96.399 109.905 C 101.017 112.368 102.557 117.141 104.404 121.452 C 111.794 123.299 119.338 127.302 122.417 134.692 C 126.419 143.467 122.724 154.397 114.719 159.324 C 110.408 162.711 104.866 163.942 99.324 163.942 L 30.045 163.942 C 21.886 164.404 13.111 161.479 8.184 155.013 C 2.642 148.239 2.488 137.771 7.876 130.843 C 10.955 126.686 15.574 124.377 20.192 122.375 C 20.808 112.83 26.35 103.901 34.972 99.59 Z" style=""/>
</svg>