<?xml version="1.0" encoding="utf-8"?>
<svg viewBox="0 0 200 200" width="200pt" height="200pt" xmlns="http://www.w3.org/2000/svg">
  <title>Flurries snow mostly cloudy day</title>
  <g fill="none" fill-rule="evenodd" transform="matrix(4.269787, 0, 0, 4.367251, -24.378695, -36.925896)" style="">
    <path d="M25.666 18.334c3.86 0 7 3.14 7 7s-3.14 7-7 7-7-3.14-7-7 3.14-7 7-7" fill="#EBC400"/>
    <path d="M25 15a.5.5 0 0 0 .5-.5v-4a.5.5 0 0 0-1 0v4a.5.5 0 0 0 .5.5m.5 25.5v-4a.5.5 0 0 0-1 0v4a.5.5 0 0 0 1 0M15 26a.5.5 0 0 0-.5-.5h-4a.5.5 0 0 0 0 1h4a.5.5 0 0 0 .5-.5m25.5-.5h-4a.5.5 0 0 0 0 1h4a.5.5 0 0 0 0-1M15.58 36.294l2.83-2.83a.5.5 0 0 0-.708-.706l-2.829 2.828a.5.5 0 0 0 .707.707m18.031-18.238a.502.502 0 0 0 .354-.146l2.828-2.829a.5.5 0 0 0-.707-.707l-2.829 2.828a.502.502 0 0 0 .354.854m.354 14.703a.5.5 0 0 0-.707.707l2.829 2.829a.498.498 0 0 0 .707 0 .5.5 0 0 0 0-.707l-2.83-2.83zM17.702 17.909a.498.498 0 0 0 .707 0 .5.5 0 0 0 0-.707l-2.83-2.83a.5.5 0 0 0-.706.708l2.829 2.829z" fill="#E8C400"/>
  </g>
  <path fill="#e4e3e3" stroke="#e4e3e3" stroke-width=".1" d="M 82.068 63.971 C 89.173 54.724 100.424 50.101 111.082 51.053 C 121.74 51.733 132.398 58.531 138.023 69.205 C 147.022 62.406 159.812 63.631 167.508 72.263 C 170.825 75.868 189.89 92.863 194.152 101.361 C 198.003 108.705 198.477 118.155 195.337 125.837 C 190.897 137.258 180.24 144.057 169.581 144.057 L 82.542 144.057 C 73.543 144.057 64.484 139.161 59.213 130.731 C 55.307 124.476 53.708 116.182 55.307 108.705 C 57.675 98.031 65.607 89.871 74.668 87.084 C 74.372 78.655 77.155 70.224 82.068 63.971" style=""/>
  <path d="M 49.433 149.033 L 49.433 162.999 M 56.412 156.009 L 42.45 156.016 M 105.3 156.016 L 91.334 156.016 M 98.324 162.999 L 98.317 149.033 M 80.828 183.951 L 66.859 183.951 M 73.849 190.923 L 73.842 176.965 M 126.214 176.968 L 126.214 190.931 M 133.197 183.948 L 127.087 183.949 L 119.231 183.951 M 147.195 149.033 L 147.195 162.999 M 154.174 156.005 L 140.212 156.016" stroke-linejoin="round" stroke-linecap="round" fill="none" data-name="stroke" style="stroke-width: 9px; stroke: rgb(32, 158, 216);"/>
  <path fill="#aca6a6" stroke="#aca6a6" stroke-width=".1" d="M 23.428 96.426 C 31.928 91.826 43.428 94.626 48.828 102.626 C 53.328 100.426 59.128 100.026 63.328 103.126 C 66.328 104.726 67.328 107.826 68.528 110.626 C 73.328 111.826 78.228 114.426 80.228 119.226 C 82.828 124.926 80.428 132.026 75.228 135.226 C 72.428 137.426 68.828 138.226 65.228 138.226 L 20.228 138.226 C 14.928 138.526 9.228 136.626 6.028 132.426 C 2.428 128.026 2.328 121.226 5.828 116.726 C 7.828 114.026 10.828 112.526 13.828 111.226 C 14.228 105.026 17.828 99.226 23.428 96.426 Z"/>
</svg>