<?xml version="1.0" encoding="utf-8"?>
<svg viewBox="0 0 200 200" width="200pt" height="200pt" xmlns="http://www.w3.org/2000/svg">
  <title>fog mostly cloudy day</title>
  <g id="#00a4b4ff" transform="matrix(0.893008, 0, 0, 0.893008, -40.041573, 65.105515)" style="">
    <path opacity="1.00" d=" M 83.96 65.95 C 127.98 65.94 172.01 65.94 216.04 65.95 C 216.06 69.50 216.06 73.05 216.03 76.60 C 172.01 76.60 127.99 76.60 83.97 76.60 C 83.94 73.05 83.94 69.50 83.96 65.95 Z" style="fill: rgb(208, 212, 213);"/>
    <path opacity="1.00" d=" M 83.94 86.22 C 127.97 86.22 172.00 86.21 216.03 86.22 C 216.06 89.83 216.06 93.44 216.04 97.05 C 172.01 97.06 127.98 97.05 83.95 97.05 C 83.94 93.44 83.95 89.83 83.94 86.22 Z" style="fill: rgb(208, 212, 213);"/>
    <path opacity="1.00" d=" M 83.96 106.95 C 127.98 106.94 172.01 106.94 216.04 106.95 C 216.06 110.54 216.06 114.13 216.03 117.72 C 172.01 117.73 127.99 117.73 83.97 117.72 C 83.94 114.13 83.94 110.54 83.96 106.95 Z" style="fill: rgb(208, 212, 213);"/>
    <path opacity="1.00" d=" M 83.98 127.40 C 128.00 127.41 172.01 127.40 216.03 127.40 C 216.06 130.95 216.06 134.50 216.04 138.05 C 172.02 138.06 127.99 138.06 83.96 138.05 C 83.93 134.49 83.93 130.94 83.98 127.40 Z" style="fill: rgb(208, 212, 213);"/>
  </g>
  <path stroke="#ff8841" stroke-width=".1" d="M 51.085 25.039 C 61.24 18.935 74.818 19.562 84.404 26.523 C 90.451 30.916 94.844 37.534 96.384 44.779 C 98.267 53.451 96.213 62.921 90.793 69.882 C 85.772 76.5 77.957 80.893 69.685 81.691 C 59.129 82.832 48.118 78.041 41.9 69.368 C 36.765 62.522 34.882 53.223 36.765 44.836 C 38.477 36.564 43.897 29.261 51.028 25.096 Z" style="fill: rgb(240, 211, 64);"/>
  <path fill="#e4e3e3" stroke="#e4e3e3" stroke-width=".1" d="M 55.776 28.976 C 64.474 18.738 78.247 13.617 91.294 14.672 C 104.342 15.425 117.389 22.954 124.275 34.775 C 135.293 27.245 150.951 28.601 160.375 38.162 C 164.434 42.153 187.775 60.974 192.994 70.385 C 197.705 78.516 198.285 88.982 194.443 97.489 C 189.007 110.137 175.958 117.666 162.91 117.666 L 56.357 117.666 C 45.338 117.666 34.248 112.247 27.796 102.91 C 23.012 95.983 21.055 86.799 23.012 78.516 C 25.911 66.696 35.625 57.661 46.716 54.576 C 46.353 45.24 49.759 35.904 55.776 28.976" style=""/>
  <path fill="#aca6a6" stroke="#aca6a6" stroke-width=".1" d="M 23.038 78.909 C 31.538 74.309 43.038 77.109 48.438 85.109 C 52.938 82.909 58.738 82.509 62.938 85.609 C 65.938 87.209 66.938 90.309 68.138 93.109 C 72.938 94.309 77.838 96.909 79.838 101.709 C 82.438 107.409 80.038 114.509 74.838 117.709 C 72.038 119.909 68.438 120.709 64.838 120.709 L 19.838 120.709 C 14.538 121.009 8.838 119.109 5.638 114.909 C 2.038 110.509 1.938 103.709 5.438 99.209 C 7.438 96.509 10.438 95.009 13.438 93.709 C 13.838 87.509 17.438 81.709 23.038 78.909 Z"/>
</svg>