<?xml version="1.0" encoding="utf-8"?>
<svg viewBox="0 0 200 200" width="200pt" height="200pt" xmlns="http://www.w3.org/2000/svg">
  <title>Fog mostly cloudy night</title>
  <g id="#00a4b4ff" transform="matrix(1.033959, 0, 0, 0.910245, -52.199341, 68.736)" style="">
    <path opacity="1.00" d=" M 83.96 65.95 C 127.98 65.94 172.01 65.94 216.04 65.95 C 216.06 69.50 216.06 73.05 216.03 76.60 C 172.01 76.60 127.99 76.60 83.97 76.60 C 83.94 73.05 83.94 69.50 83.96 65.95 Z" style="fill: rgb(208, 212, 213);"/>
    <path opacity="1.00" d=" M 83.94 86.22 C 127.97 86.22 172.00 86.21 216.03 86.22 C 216.06 89.83 216.06 93.44 216.04 97.05 C 172.01 97.06 127.98 97.05 83.95 97.05 C 83.94 93.44 83.95 89.83 83.94 86.22 Z" style="fill: rgb(208, 212, 213);"/>
    <path opacity="1.00" d=" M 83.96 106.95 C 127.98 106.94 172.01 106.94 216.04 106.95 C 216.06 110.54 216.06 114.13 216.03 117.72 C 172.01 117.73 127.99 117.73 83.97 117.72 C 83.94 114.13 83.94 110.54 83.96 106.95 Z" style="fill: rgb(208, 212, 213);"/>
    <path opacity="1.00" d=" M 83.98 127.40 C 128.00 127.41 172.01 127.40 216.03 127.40 C 216.06 130.95 216.06 134.50 216.04 138.05 C 172.02 138.06 127.99 138.06 83.96 138.05 C 83.93 134.49 83.93 130.94 83.98 127.40 Z" style="fill: rgb(208, 212, 213);"/>
  </g>
  <path stroke-width=".1" d="M 63.877 73.038 C 69.993 70.338 75.114 65.277 77.621 58.968 C 79.976 53.03 80.092 46.045 77.841 39.804 C 75.707 33.967 71.602 28.804 66.34 25.498 C 61.796 22.595 56.405 21.044 51.122 21.246 C 44.2 21.313 37.603 24.451 33.013 29.478 C 32.215 30.322 31.558 31.335 30.792 32.178 C 30.801 32.381 30.906 32.515 30.946 32.684 L 31.132 32.347 C 34.643 31.064 38.373 30.322 42.152 30.727 C 49.356 31.064 56.465 34.775 61.189 40.444 C 64.506 44.257 66.764 49.014 67.597 53.94 C 68.594 59.676 67.735 65.547 65.176 70.575 C 64.81 71.419 64.172 72.094 63.877 73.038 Z" style="paint-order: stroke; stroke: rgb(255, 255, 255); fill: rgb(240, 211, 64);" transform="matrix(-0.761239, -0.648472, 0.648472, -0.761239, 66.525944, 118.76071)"/>
  <path fill="#aca6a6" stroke="#aca6a6" stroke-width=".1" d="M 54.468 23.476 C 75.377 12.163 103.663 19.051 116.945 38.728 C 128.015 33.317 142.279 32.332 152.612 39.957 C 159.99 43.893 162.45 51.518 165.402 58.405 C 177.208 61.356 189.26 67.752 194.18 79.56 C 200.576 93.578 194.672 111.044 181.883 118.915 C 174.996 124.327 166.139 126.293 157.285 126.293 L 46.601 126.293 C 33.561 127.03 19.543 122.358 11.672 112.026 C 2.816 101.205 2.572 84.478 11.177 73.41 C 16.098 66.767 23.476 63.079 30.857 59.88 C 31.842 44.631 40.694 30.363 54.468 23.476 Z" style=""/>
  <path fill="#e4e3e3" stroke="#e4e3e3" stroke-width=".1" d="M 44.625 90.04 C 46.933 87.324 50.588 85.965 54.05 86.245 C 57.512 86.445 60.974 88.442 62.801 91.579 C 65.725 89.581 69.879 89.941 72.38 92.478 C 73.457 93.537 79.65 98.531 81.035 101.028 C 82.285 103.185 82.439 105.962 81.419 108.22 C 79.977 111.576 76.515 113.573 73.052 113.573 L 44.779 113.573 C 41.856 113.573 38.913 112.135 37.201 109.658 C 35.932 107.82 35.413 105.383 35.932 103.185 C 36.701 100.049 39.279 97.652 42.221 96.833 C 42.125 94.356 43.029 91.878 44.625 90.04" style=""/>
</svg>