<?xml version="1.0" encoding="utf-8"?>
<svg viewBox="0 0 200 200" width="200pt" height="200pt" xmlns="http://www.w3.org/2000/svg">
  <title>Flurries snow mostly cloudy night</title>
  <path stroke-width=".1" d="M 102.812 138.047 C 117.084 131.75 129.03 119.941 134.88 105.22 C 140.374 91.365 140.645 75.069 135.395 60.507 C 130.414 46.887 120.837 34.843 108.561 27.129 C 97.957 20.354 85.381 16.736 73.054 17.207 C 56.902 17.365 41.511 24.688 30.803 36.416 C 28.94 38.384 27.407 40.747 25.621 42.715 C 25.639 43.188 25.885 43.5 25.979 43.896 L 26.414 43.107 C 34.605 40.115 43.308 38.384 52.124 39.33 C 68.935 40.115 85.521 48.775 96.541 62.001 C 104.281 70.898 109.549 81.996 111.492 93.49 C 113.82 106.874 111.813 120.57 105.841 132.301 C 104.991 134.271 103.502 135.844 102.812 138.047 Z" style="paint-order: stroke; stroke: rgb(255, 255, 255); fill: rgb(240, 211, 64);" transform="matrix(-1, 0, 0, -1, 164.792889, 155.213127)"/>
  <path stroke-linecap="round" d="M 145.371 44.529 L 148.262 53.556 C 148.378 53.912 148.692 54.153 149.047 54.153 L 158.302 54.153 C 158.945 54.162 159.334 54.904 159.008 55.489 C 158.952 55.587 158.879 55.673 158.793 55.743 L 151.327 61.528 C 151.028 61.756 150.909 62.165 151.031 62.532 L 154.268 72.369 C 154.474 73.01 153.948 73.648 153.322 73.518 C 153.202 73.493 153.092 73.441 152.995 73.367 L 145.018 67.168 C 144.727 66.94 144.33 66.94 144.038 67.168 L 136.307 73.369 C 135.657 73.874 134.778 73.192 135.032 72.38 L 138.131 62.572 C 138.245 62.209 138.125 61.808 137.836 61.582 L 130.318 55.743 C 129.674 55.239 130.007 54.151 130.807 54.151 L 140.19 54.151 C 140.546 54.151 140.862 53.909 140.977 53.551 L 143.797 44.534 C 144.004 43.889 144.79 43.725 145.211 44.237 C 145.281 44.323 145.336 44.421 145.371 44.527" style="stroke: rgb(112, 110, 3); stroke-width: 0px; fill: rgb(240, 211, 64);"/>
  <path stroke-linecap="round" d="M 103.595 9.902 L 107.672 21.883 C 107.833 22.356 108.277 22.673 108.775 22.673 L 121.817 22.673 C 122.72 22.685 123.272 23.671 122.811 24.446 C 122.731 24.577 122.628 24.692 122.506 24.785 L 111.988 32.462 C 111.569 32.764 111.4 33.307 111.572 33.794 L 116.13 46.848 C 116.422 47.699 115.683 48.547 114.799 48.374 C 114.632 48.341 114.474 48.272 114.337 48.171 L 103.1 39.945 C 102.688 39.644 102.129 39.644 101.719 39.945 L 90.826 48.177 C 89.909 48.847 88.672 47.942 89.028 46.862 L 93.395 33.847 C 93.555 33.366 93.387 32.835 92.978 32.533 L 82.388 24.785 C 81.48 24.116 81.948 22.67 83.077 22.67 L 96.296 22.67 C 96.798 22.67 97.244 22.351 97.405 21.876 L 101.378 9.907 C 101.669 9.053 102.777 8.835 103.371 9.516 C 103.471 9.628 103.545 9.758 103.595 9.9" style="stroke: rgb(112, 110, 3); stroke-width: 0px; fill: rgb(240, 211, 64);"/>
  <path fill="#e4e3e3" stroke="#e4e3e3" stroke-width=".1" d="M 81.066 69.219 C 88.079 60.951 99.185 56.817 109.706 57.668 C 120.227 58.276 130.748 64.355 136.301 73.899 C 145.184 67.82 157.81 68.915 165.407 76.634 C 168.681 79.856 187.502 95.053 191.709 102.652 C 195.51 109.219 195.978 117.668 192.878 124.537 C 188.495 134.749 177.975 140.829 167.453 140.829 L 81.533 140.829 C 72.65 140.829 63.707 136.452 58.504 128.913 C 54.648 123.32 53.069 115.904 54.648 109.219 C 56.986 99.674 64.816 92.378 73.76 89.886 C 73.468 82.349 76.215 74.81 81.066 69.219" style=""/>
  <path fill="#aca6a6" stroke="#aca6a6" stroke-width=".1" d="M 33.384 78.479 C 44.575 71.572 59.717 75.777 66.827 87.789 C 72.752 84.486 80.388 83.885 85.918 88.54 C 89.868 90.943 91.185 95.597 92.765 99.802 C 99.085 101.604 105.537 105.508 108.17 112.715 C 111.593 121.275 108.433 131.936 101.587 136.741 C 97.9 140.044 93.16 141.246 88.42 141.246 L 29.171 141.246 C 22.192 141.696 14.687 138.843 10.474 132.536 C 5.734 125.929 5.603 115.719 10.211 108.962 C 12.844 104.907 16.794 102.655 20.744 100.703 C 21.271 91.393 26.011 82.684 33.384 78.479 Z" style=""/>
  <path d="M 35.056 140.264 L 35.056 154.23 M 42.035 147.24 L 28.073 147.247 M 90.923 147.247 L 76.957 147.247 M 83.947 154.23 L 83.94 140.264 M 66.451 175.182 L 52.482 175.182 M 59.472 182.154 L 59.465 168.196 M 111.837 168.199 L 111.837 182.162 M 118.82 175.179 L 112.71 175.18 L 104.854 175.182 M 132.818 140.264 L 132.818 154.23 M 139.797 147.236 L 125.835 147.247" stroke-linejoin="round" stroke-linecap="round" fill="none" data-name="stroke" style="stroke-width: 9px; stroke: rgb(32, 158, 216);"/>
</svg>