<?xml version="1.0" encoding="utf-8"?>
<svg viewBox="0 0 200 200" width="200pt" height="200pt" xmlns="http://www.w3.org/2000/svg">
  <title>Mostly cloudy night</title>
  <path stroke-linecap="round" d="M 85.589 24.403 L 88.618 33.31 C 88.739 33.662 89.068 33.898 89.44 33.898 L 99.137 33.898 C 99.809 33.907 100.219 34.639 99.876 35.216 C 99.817 35.314 99.74 35.399 99.649 35.468 L 91.828 41.176 C 91.517 41.401 91.391 41.804 91.519 42.166 L 94.909 51.872 C 95.126 52.505 94.576 53.136 93.919 53.007 C 93.795 52.982 93.678 52.931 93.575 52.857 L 85.22 46.741 C 84.915 46.516 84.499 46.516 84.193 46.741 L 76.094 52.86 C 75.413 53.358 74.493 52.685 74.758 51.883 L 78.004 42.206 C 78.124 41.847 77.999 41.453 77.694 41.229 L 69.82 35.468 C 69.145 34.97 69.494 33.895 70.332 33.895 L 80.162 33.895 C 80.535 33.895 80.866 33.658 80.986 33.305 L 83.94 24.406 C 84.157 23.771 84.98 23.609 85.422 24.114 C 85.495 24.198 85.552 24.296 85.589 24.4" style="stroke: rgb(112, 110, 3); stroke-width: 0px; fill: rgb(240, 211, 64);"/>
  <path fill="#e4e3e3" stroke="#e4e3e3" stroke-width=".1" d="M 62.77 87.135 C 71.05 76.366 84.157 70.98 96.576 72.09 C 108.994 72.881 121.412 80.8 127.965 93.233 C 138.452 85.313 153.354 86.74 162.323 96.796 C 166.187 100.995 188.401 120.791 193.369 130.69 C 197.853 139.242 198.404 150.25 194.748 159.198 C 189.575 172.502 177.155 180.42 164.737 180.42 L 63.322 180.42 C 52.836 180.42 42.28 174.72 36.14 164.9 C 31.587 157.614 29.725 147.954 31.587 139.242 C 34.346 126.81 43.592 117.305 54.147 114.06 C 53.803 104.241 57.044 94.42 62.77 87.135" style=""/>
  <path fill="#aca6a6" stroke="#aca6a6" stroke-width=".1" d="M 27.791 105.328 C 38.399 99.587 52.752 103.081 59.492 113.066 C 65.108 110.32 72.347 109.821 77.589 113.69 C 81.333 115.687 82.581 119.556 84.079 123.05 C 90.069 124.548 96.185 127.793 98.681 133.784 C 101.926 140.898 98.931 149.759 92.441 153.753 C 88.946 156.498 84.453 157.497 79.96 157.497 L 23.797 157.497 C 17.182 157.871 10.068 155.5 6.075 150.258 C 1.582 144.767 1.457 136.28 5.825 130.663 C 8.321 127.294 12.065 125.422 15.809 123.799 C 16.309 116.061 20.802 108.822 27.791 105.328 Z" style=""/>
  <path fill="#aca6a6" stroke="#aca6a6" stroke-width=".1" d="M 116.024 39.005 C 127.433 32.83 142.869 36.589 150.117 47.327 C 156.157 44.374 163.943 43.837 169.58 47.998 C 173.607 50.146 174.949 54.307 176.56 58.065 C 183.003 59.676 189.58 63.166 192.264 69.608 C 195.754 77.259 192.533 86.789 185.553 91.085 C 181.795 94.038 176.963 95.112 172.13 95.112 L 111.728 95.112 C 104.614 95.514 96.963 92.964 92.668 87.326 C 87.836 81.42 87.702 72.293 92.4 66.253 C 95.084 62.629 99.111 60.615 103.138 58.87 C 103.675 50.548 108.507 42.763 116.024 39.005 Z" style=""/>
  <path stroke-linecap="round" d="M 47.1 65.734 L 50.129 74.641 C 50.25 74.993 50.579 75.229 50.951 75.229 L 60.648 75.229 C 61.32 75.238 61.73 75.97 61.387 76.547 C 61.328 76.645 61.251 76.73 61.16 76.799 L 53.339 82.507 C 53.028 82.732 52.902 83.135 53.03 83.497 L 56.42 93.203 C 56.637 93.836 56.087 94.467 55.43 94.338 C 55.306 94.313 55.189 94.262 55.086 94.188 L 46.731 88.072 C 46.426 87.847 46.01 87.847 45.704 88.072 L 37.605 94.191 C 36.924 94.689 36.004 94.016 36.269 93.214 L 39.515 83.537 C 39.635 83.178 39.51 82.784 39.205 82.56 L 31.331 76.799 C 30.656 76.301 31.005 75.226 31.843 75.226 L 41.673 75.226 C 42.046 75.226 42.377 74.989 42.497 74.636 L 45.451 65.737 C 45.668 65.102 46.491 64.94 46.933 65.445 C 47.006 65.529 47.063 65.627 47.1 65.731" style="stroke: rgb(112, 110, 3); stroke-width: 0px; fill: rgb(240, 211, 64);"/>
</svg>