<?xml version="1.0" encoding="utf-8"?>
<svg viewBox="0 0 200 200" width="200pt" height="200pt" xmlns="http://www.w3.org/2000/svg">
  <title>Rain mostly cloudy day</title>
  <path fill="#00a4b4" fill-rule="nonzero" stroke="#00a4b4" stroke-width=".1" d="M 104.691 159.366 L 115.677 159.366 C 120.758 149.459 125.647 139.425 130.791 129.519 L 120.631 129.519 C 119.615 129.328 119.361 130.281 118.916 130.916 C 114.28 140.441 109.39 149.84 104.754 159.302 L 104.691 159.366 Z M 119.932 159.366 L 130.918 159.366 C 135.999 149.459 140.889 139.425 146.032 129.519 L 135.872 129.519 C 134.919 129.328 134.602 130.281 134.221 130.789 C 129.521 140.441 124.695 149.84 119.996 159.366 L 119.932 159.366 Z M 135.173 159.366 L 146.159 159.366 C 151.24 149.459 156.193 139.489 161.21 129.519 L 150.414 129.519 C 149.589 130.154 149.398 131.17 148.954 131.932 L 135.046 159.366 L 135.173 159.366 Z M 150.414 159.366 L 161.4 159.366 C 166.481 149.459 171.434 139.489 176.451 129.519 L 166.29 129.519 C 165.211 129.328 165.02 130.408 164.576 131.106 L 150.414 159.366 Z" style=""/>
  <path stroke="#ff8841" stroke-width=".1" d="M 100.41 15.918 C 114.026 8.08 132.23 8.886 145.081 17.823 C 153.188 23.463 159.077 31.961 161.143 41.263 C 163.667 52.399 160.914 64.558 153.647 73.495 C 146.915 81.993 136.437 87.633 125.347 88.659 C 111.195 90.124 96.433 83.972 88.096 72.836 C 81.211 64.045 78.687 52.106 81.211 41.337 C 83.507 30.716 90.773 21.339 100.334 15.991 Z" style="fill: rgb(240, 211, 64);"/>
  <path fill="#e4e3e3" stroke="#e4e3e3" stroke-width=".1" d="M 74.808 45.219 C 82.364 35.391 94.326 30.475 105.659 31.488 C 116.993 32.211 128.325 39.438 134.306 50.784 C 143.877 43.556 157.477 44.858 165.662 54.036 C 169.188 57.868 189.461 75.934 193.995 84.968 C 198.087 92.772 198.59 102.819 195.253 110.985 C 190.532 123.126 179.198 130.353 167.864 130.353 L 75.312 130.353 C 65.742 130.353 56.109 125.151 50.505 116.189 C 46.35 109.54 44.651 100.724 46.35 92.772 C 48.868 81.427 57.306 72.753 66.938 69.791 C 66.624 60.83 69.583 51.867 74.808 45.219" style=""/>
  <path fill="#00a4b4" fill-rule="nonzero" stroke="#00a4b4" stroke-width=".1" d="M 23.2 165.641 L 34.186 165.641 C 39.267 155.734 44.156 145.7 49.3 135.794 L 39.14 135.794 C 38.124 135.603 37.87 136.556 37.425 137.191 C 32.789 146.716 27.899 156.115 23.263 165.577 L 23.2 165.641 Z M 38.441 165.641 L 49.427 165.641 C 54.508 155.734 59.398 145.7 64.541 135.794 L 54.381 135.794 C 53.428 135.603 53.111 136.556 52.73 137.064 C 48.03 146.716 43.204 156.115 38.505 165.641 L 38.441 165.641 Z M 53.682 165.641 L 64.668 165.641 C 69.749 155.734 74.702 145.764 79.719 135.794 L 68.923 135.794 C 68.098 136.429 67.907 137.445 67.463 138.207 L 53.555 165.641 L 53.682 165.641 Z M 68.923 165.641 L 79.909 165.641 C 84.99 155.734 89.943 145.764 94.96 135.794 L 84.799 135.794 C 83.72 135.603 83.529 136.683 83.085 137.381 L 68.923 165.641 Z" style=""/>
  <path fill="#aca6a6" stroke="#aca6a6" stroke-width=".1" d="M 29.26 86.204 C 41.594 79.528 58.282 83.591 66.118 95.2 C 72.649 92.008 81.065 91.428 87.159 95.926 C 91.513 98.248 92.964 102.747 94.705 106.81 C 101.67 108.551 108.781 112.323 111.683 119.289 C 115.457 127.56 111.974 137.864 104.428 142.507 C 100.364 145.699 95.141 146.86 89.916 146.86 L 24.616 146.86 C 16.925 147.296 8.654 144.538 4.011 138.444 C -1.214 132.059 -1.358 122.191 3.721 115.661 C 6.623 111.743 10.976 109.567 15.329 107.68 C 15.909 98.683 21.133 90.267 29.26 86.204 Z" style=""/>
</svg>