<?xml version="1.0" encoding="utf-8"?>
<svg viewBox="0 0 200 200" width="200pt" height="200pt" xmlns="http://www.w3.org/2000/svg">
  <title>Rain mostly cloudy night dark</title>
  <path fill="#00a4b4" fill-rule="nonzero" stroke="#00a4b4" stroke-width=".1" d="M 53.376 148.267 L 64.362 148.267 C 69.443 138.36 74.332 128.326 79.476 118.42 L 69.316 118.42 C 68.3 118.229 68.046 119.182 67.601 119.817 C 62.965 129.342 58.075 138.741 53.439 148.203 L 53.376 148.267 Z M 68.617 148.267 L 79.603 148.267 C 84.684 138.36 89.574 128.326 94.717 118.42 L 84.557 118.42 C 83.604 118.229 83.287 119.182 82.906 119.69 C 78.206 129.342 73.38 138.741 68.681 148.267 L 68.617 148.267 Z M 83.858 148.267 L 94.844 148.267 C 99.925 138.36 104.878 128.39 109.895 118.42 L 99.099 118.42 C 98.274 119.055 98.083 120.071 97.639 120.833 L 83.731 148.267 L 83.858 148.267 Z M 99.099 148.267 L 110.085 148.267 C 115.166 138.36 120.119 128.39 125.136 118.42 L 114.975 118.42 C 113.896 118.229 113.705 119.309 113.261 120.007 L 99.099 148.267 Z" style=""/>
  <path fill="#aca6a6" stroke="#aca6a6" stroke-width=".1" d="M 53.674 15.207 C 74.939 3.697 103.714 10.703 117.225 30.718 C 128.483 25.214 142.996 24.214 153.504 31.971 C 161.01 35.972 163.513 43.73 166.513 50.735 C 178.525 53.737 190.783 60.242 195.788 72.252 C 202.293 86.514 196.289 104.279 183.279 112.285 C 176.272 117.789 167.264 119.79 158.258 119.79 L 45.668 119.79 C 32.406 120.542 18.145 115.788 10.139 105.279 C 1.132 94.268 0.88 77.255 9.637 65.998 C 14.642 59.241 22.147 55.489 29.654 52.235 C 30.654 36.724 39.662 22.213 53.674 15.207 Z" style=""/>
  <path fill="#e4e3e3" stroke="#e4e3e3" stroke-width=".1" d="M 29.384 113.186 C 32.17 109.562 36.581 107.749 40.76 108.123 C 44.94 108.389 49.118 111.054 51.324 115.238 C 54.853 112.573 59.868 113.053 62.886 116.437 C 64.187 117.85 71.662 124.512 73.334 127.844 C 74.843 130.721 75.029 134.426 73.798 137.437 C 72.057 141.914 67.878 144.579 63.699 144.579 L 29.57 144.579 C 26.041 144.579 22.488 142.661 20.422 139.356 C 18.89 136.904 18.263 133.653 18.89 130.721 C 19.818 126.538 22.93 123.339 26.482 122.247 C 26.366 118.943 27.457 115.637 29.384 113.186" style=""/>
  <path fill="#00a4b4" fill-rule="nonzero" stroke="#00a4b4" stroke-width=".1" d="M 79.903 155.846 L 90.889 155.846 C 95.97 145.939 100.859 135.905 106.003 125.999 L 95.843 125.999 C 94.827 125.808 94.573 126.761 94.128 127.396 C 89.492 136.921 84.602 146.32 79.966 155.782 L 79.903 155.846 Z M 95.144 155.846 L 106.13 155.846 C 111.211 145.939 116.101 135.905 121.244 125.999 L 111.084 125.999 C 110.131 125.808 109.814 126.761 109.433 127.269 C 104.733 136.921 99.907 146.32 95.208 155.846 L 95.144 155.846 Z M 110.385 155.846 L 121.371 155.846 C 126.452 145.939 131.405 135.969 136.422 125.999 L 125.626 125.999 C 124.801 126.634 124.61 127.65 124.166 128.412 L 110.258 155.846 L 110.385 155.846 Z M 125.626 155.846 L 136.612 155.846 C 141.693 145.939 146.646 135.969 151.663 125.999 L 141.502 125.999 C 140.423 125.808 140.232 126.888 139.788 127.586 L 125.626 155.846 Z" style=""/>
  <path fill="#00a4b4" fill-rule="nonzero" stroke="#00a4b4" stroke-width=".1" d="M 9.705 174.428 L 20.691 174.428 C 25.772 164.521 30.661 154.487 35.805 144.581 L 25.645 144.581 C 24.629 144.39 24.375 145.343 23.93 145.978 C 19.294 155.503 14.404 164.902 9.768 174.364 L 9.705 174.428 Z M 24.946 174.428 L 35.932 174.428 C 41.013 164.521 45.903 154.487 51.046 144.581 L 40.886 144.581 C 39.933 144.39 39.616 145.343 39.235 145.851 C 34.535 155.503 29.709 164.902 25.01 174.428 L 24.946 174.428 Z M 40.187 174.428 L 51.173 174.428 C 56.254 164.521 61.207 154.551 66.224 144.581 L 55.428 144.581 C 54.603 145.216 54.412 146.232 53.968 146.994 L 40.06 174.428 L 40.187 174.428 Z M 55.428 174.428 L 66.414 174.428 C 71.495 164.521 76.448 154.551 81.465 144.581 L 71.304 144.581 C 70.225 144.39 70.034 145.47 69.59 146.168 L 55.428 174.428 Z" style=""/>
</svg>