<?xml version="1.0" encoding="utf-8"?>
<svg viewBox="0 0 200 200" width="200pt" height="200pt" xmlns="http://www.w3.org/2000/svg">
  <title>Wind mostly cloudy day</title>
  <path fill="#e4e3e3" stroke="#e4e3e3" stroke-width=".1" d="M 38.944 34.42 C 48.147 22.526 62.717 16.576 76.523 17.802 C 90.328 18.677 104.132 27.423 111.417 41.155 C 123.076 32.408 139.642 33.983 149.612 45.091 C 153.907 49.728 178.602 71.594 184.124 82.529 C 189.11 91.974 189.721 104.133 185.657 114.016 C 179.906 128.711 166.1 137.457 152.295 137.457 L 39.557 137.457 C 27.9 137.457 16.165 131.161 9.339 120.314 C 4.279 112.267 2.208 101.597 4.279 91.974 C 7.345 78.243 17.624 67.744 29.356 64.16 C 28.975 53.315 32.578 42.466 38.944 34.42" style=""/>
  <g transform="matrix(1, 0, 0, 1, 4.341162, 20.436905)">
    <path data-name="stroke" d="M 160.535 152.396 C 166.042 152.396 170.507 148.274 170.507 143.189 C 170.507 138.102 166.042 133.98 160.535 133.98 L 130.618 133.98 M 20.924 133.98 L 100.703 133.98 C 108.964 133.98 115.661 140.166 115.661 147.793 C 115.661 155.422 108.964 161.605 100.703 161.605" fill="none" stroke="#2e4369" stroke-linecap="round" stroke-linejoin="round" style="stroke-width: 8px;"/>
    <path data-name="stroke" d="M 161.797 94.593 C 167.304 94.593 171.768 98.716 171.768 103.8 C 171.768 108.887 167.304 113.009 161.797 113.009 L 131.88 113.009 M 22.186 113.009 C 6.921 112.611 80.511 112.449 101.964 113.009 C 110.225 113.009 116.921 106.824 116.921 99.197 C 116.921 91.569 110.225 85.384 101.964 85.384" fill="none" stroke="#2e4369" stroke-linecap="round" stroke-linejoin="round" style="stroke-width: 8px;"/>
    <path data-name="stroke" d="M 77.103 74.036 C 82.609 74.036 87.075 78.158 87.075 83.245 C 87.075 88.33 82.609 92.452 77.103 92.452 L 47.185 92.452" fill="none" stroke="#2e4369" stroke-linecap="round" stroke-linejoin="round" style="stroke-width: 8px;"/>
  </g>
</svg>