<?xml version="1.0" encoding="utf-8"?>
<svg viewBox="0 0 200 200" width="200pt" height="200pt" xmlns="http://www.w3.org/2000/svg">
  <title>No sun grey</title>
  <g fill="none" fill-rule="evenodd" transform="matrix(5.652002, 0, 0, 5.647777, -45.308674, -49.156818)" style="">
    <path d="M25.666 18.334c3.86 0 7 3.14 7 7s-3.14 7-7 7-7-3.14-7-7 3.14-7 7-7" style="fill: rgb(189, 188, 187);"/>
    <path d="M25 15a.5.5 0 0 0 .5-.5v-4a.5.5 0 0 0-1 0v4a.5.5 0 0 0 .5.5m.5 25.5v-4a.5.5 0 0 0-1 0v4a.5.5 0 0 0 1 0M15 26a.5.5 0 0 0-.5-.5h-4a.5.5 0 0 0 0 1h4a.5.5 0 0 0 .5-.5m25.5-.5h-4a.5.5 0 0 0 0 1h4a.5.5 0 0 0 0-1M15.58 36.294l2.83-2.83a.5.5 0 0 0-.708-.706l-2.829 2.828a.5.5 0 0 0 .707.707m18.031-18.238a.502.502 0 0 0 .354-.146l2.828-2.829a.5.5 0 0 0-.707-.707l-2.829 2.828a.502.502 0 0 0 .354.854m.354 14.703a.5.5 0 0 0-.707.707l2.829 2.829a.498.498 0 0 0 .707 0 .5.5 0 0 0 0-.707l-2.83-2.83zM17.702 17.909a.498.498 0 0 0 .707 0 .5.5 0 0 0 0-.707l-2.83-2.83a.5.5 0 0 0-.706.708l2.829 2.829z" style="fill: rgb(189, 188, 187);"/>
  </g>
</svg>