<?xml version="1.0" encoding="utf-8"?>
<svg viewBox="0 0 200 200" width="200pt" height="200pt" xmlns="http://www.w3.org/2000/svg">
  <title>Offline Unknown</title>
  <path fill="#e4e3e3" stroke="#e4e3e3" stroke-width=".1" d="M 40.838 33.471 C 50.646 21.928 66.169 16.157 80.876 17.345 C 95.586 18.195 110.294 26.68 118.054 40.005 C 130.475 31.518 148.125 33.046 158.747 43.824 C 163.323 48.322 189.634 69.539 195.516 80.148 C 200.828 89.313 201.482 101.111 197.15 110.701 C 191.023 124.959 176.315 133.444 161.606 133.444 L 41.493 133.444 C 29.073 133.444 16.572 127.335 9.299 116.811 C 3.907 109.003 1.701 98.65 3.907 89.313 C 7.174 75.99 18.124 65.804 30.627 62.326 C 30.218 51.802 34.058 41.278 40.838 33.471" style=""/>
  <circle style="stroke: rgb(104, 199, 56); fill: rgb(79, 216, 75);" cx="29.876" cy="29.48" r="9.417" transform="matrix(0.113331, -0.993557, 0.993557, 0.113331, 69.684364, 198.677521)"/>
  <path data-name="stroke" d="M 64.294 117.833 C 105.982 117.833 88.4 134.768 120.029 132.19 C 128.755 131.479 135.879 125.092 135.879 116.34 C 135.879 107.586 128.784 100.49 120.029 100.49" fill="none" stroke-linecap="round" stroke-linejoin="round" style="stroke-width: 13px; stroke: rgb(79, 216, 75);" transform="matrix(0, -1, 1, 0, -16.387039, 216.560036)"/>
</svg>