<?xml version="1.0" encoding="utf-8"?>
<svg viewBox="0 0 200 200" width="200pt" height="200pt" xmlns="http://www.w3.org/2000/svg">
  <title>Overcast</title>
  <path fill="#aca6a6" stroke="#aca6a6" stroke-width=".1" d="M 81.968 19.668 C 98.291 10.835 120.375 16.212 130.745 31.575 C 139.387 27.35 150.525 26.582 158.591 32.535 C 164.352 35.608 166.273 41.561 168.577 46.938 C 177.795 49.242 187.205 54.235 191.046 63.453 C 196.039 74.399 191.43 88.034 181.444 94.18 C 176.067 98.404 169.153 99.941 162.24 99.941 L 75.822 99.941 C 65.644 100.517 54.698 96.868 48.553 88.802 C 41.639 80.353 41.447 67.294 48.169 58.652 C 52.009 53.467 57.771 50.587 63.532 48.09 C 64.3 36.184 71.213 25.045 81.968 19.668 Z" style=""/>
  <path fill="#e4e3e3" stroke="#e4e3e3" stroke-width=".1" d="M 37.833 81.396 C 45.433 72.782 57.467 68.475 68.867 69.362 C 80.267 69.995 91.668 76.329 97.685 86.272 C 107.311 79.939 120.992 81.079 129.225 89.122 C 132.772 92.479 153.166 108.313 157.726 116.23 C 161.843 123.07 162.35 131.874 158.993 139.03 C 154.243 149.671 142.842 156.004 131.442 156.004 L 38.34 156.004 C 28.713 156.004 19.023 151.444 13.386 143.59 C 9.206 137.764 7.496 130.037 9.206 123.07 C 11.739 113.126 20.226 105.526 29.916 102.929 C 29.6 95.076 32.576 87.222 37.833 81.396" style=""/>
  <path fill="#aca6a6" stroke="#aca6a6" stroke-width=".1" d="M 132.551 143.024 C 141.051 138.424 152.551 141.224 157.951 149.224 C 162.451 147.024 168.251 146.624 172.451 149.724 C 175.451 151.324 176.451 154.424 177.651 157.224 C 182.451 158.424 187.351 161.024 189.351 165.824 C 191.951 171.524 189.551 178.624 184.351 181.824 C 181.551 184.024 177.951 184.824 174.351 184.824 L 129.351 184.824 C 124.051 185.124 118.351 183.224 115.151 179.024 C 111.551 174.624 111.451 167.824 114.951 163.324 C 116.951 160.624 119.951 159.124 122.951 157.824 C 123.351 151.624 126.951 145.824 132.551 143.024 Z"/>
</svg>