<?xml version="1.0" encoding="utf-8"?>
<svg viewBox="0 0 200 200" width="200pt" height="200pt" xmlns="http://www.w3.org/2000/svg">
  <title>Overcast thunder dark</title>
  <path fill="#aca6a6" stroke="#aca6a6" stroke-width=".1" d="M 58.686 25.869 C 78.033 15.4 104.21 21.773 116.501 39.983 C 126.745 34.975 139.947 34.065 149.508 41.121 C 156.336 44.763 158.613 51.819 161.344 58.193 C 172.27 60.924 183.424 66.842 187.977 77.768 C 193.895 90.743 188.432 106.904 176.595 114.189 C 170.222 119.196 162.027 121.018 153.833 121.018 L 51.401 121.018 C 39.337 121.7 26.362 117.375 19.079 107.815 C 10.883 97.8 10.656 82.321 18.623 72.077 C 23.175 65.932 30.005 62.518 36.833 59.558 C 37.744 45.446 45.938 32.243 58.686 25.869 Z" style=""/>
  <path fill="#e4e3e3" stroke="#e4e3e3" stroke-width=".1" d="M 14.386 95.107 C 17.218 92.12 21.702 90.625 25.949 90.934 C 30.195 91.152 34.442 93.35 36.684 96.797 C 40.271 94.601 45.369 94.996 48.436 97.785 C 49.758 98.949 57.354 104.44 59.053 107.186 C 60.589 109.559 60.776 112.61 59.526 115.092 C 57.757 118.782 53.508 120.979 49.261 120.979 L 14.575 120.979 C 10.989 120.979 7.379 119.397 5.279 116.674 C 3.722 114.654 3.084 111.974 3.722 109.559 C 4.666 106.11 7.827 103.474 11.437 102.573 C 11.318 99.85 12.428 97.128 14.386 95.107" style=""/>
  <path fill="#F9D915" d="M 67.816 121.952 C 67.816 121.295 67.279 120.827 66.588 120.827 C 66.588 120.827 49.745 121.082 49.668 121.55 L 33.986 152.704 C 33.909 152.798 33.909 152.985 33.909 153.173 C 33.909 153.829 34.445 154.301 35.136 154.301 L 43.498 154.301 L 35.519 182.051 C 35.442 182.238 35.442 182.425 35.442 182.614 C 35.442 183.834 36.516 184.866 37.821 184.866 C 38.664 184.866 39.431 184.396 39.893 183.741 L 66.052 141.36 C 66.129 141.172 66.129 141.079 66.129 140.891 C 66.129 140.235 65.592 139.766 64.902 139.766 L 64.902 139.766 L 56.923 139.766 L 67.585 122.514 C 67.74 122.42 67.816 122.233 67.816 121.952 Z" style=""/>
  <path fill="#F9D915" d="M 158.518 121.757 C 158.518 121.1 157.98 120.632 157.29 120.632 C 157.29 120.632 140.447 120.887 140.37 121.355 L 124.687 152.51 C 124.611 152.603 124.611 152.79 124.611 152.978 C 124.611 153.635 125.147 154.106 125.838 154.106 L 134.199 154.106 L 126.221 181.856 C 126.144 182.043 126.144 182.231 126.144 182.419 C 126.144 183.64 127.218 184.671 128.523 184.671 C 129.365 184.671 130.133 184.201 130.595 183.546 L 156.753 141.165 C 156.83 140.978 156.83 140.884 156.83 140.697 C 156.83 140.04 156.294 139.572 155.603 139.572 L 155.603 139.572 L 147.624 139.572 L 158.287 122.319 C 158.441 122.225 158.518 122.038 158.518 121.757 Z" style=""/>
</svg>