<?xml version="1.0" encoding="utf-8"?>
<svg viewBox="0 0 200 200" width="200pt" height="200pt" xmlns="http://www.w3.org/2000/svg">
  <title>Overcast rain</title>
  <path fill="#aca6a6" stroke="#aca6a6" stroke-width=".1" d="M 44.698 9.885 C 61.021 1.052 83.105 6.429 93.475 21.792 C 102.117 17.567 113.255 16.799 121.321 22.752 C 127.082 25.825 129.003 31.778 131.307 37.155 C 140.525 39.459 149.935 44.452 153.776 53.67 C 158.769 64.616 154.16 78.251 144.174 84.397 C 138.797 88.621 131.883 90.158 124.97 90.158 L 38.552 90.158 C 28.374 90.734 17.428 87.085 11.283 79.019 C 4.369 70.57 4.177 57.511 10.899 48.869 C 14.739 43.684 20.501 40.804 26.262 38.307 C 27.03 26.401 33.943 15.262 44.698 9.885 Z" style=""/>
  <path fill="#e4e3e3" stroke="#e4e3e3" stroke-width=".1" d="M 76.631 67.76 C 84.231 59.146 96.265 54.839 107.665 55.726 C 119.065 56.359 130.466 62.693 136.483 72.636 C 146.109 66.303 159.79 67.443 168.023 75.486 C 171.57 78.843 191.964 94.677 196.524 102.594 C 200.641 109.434 201.148 118.238 197.791 125.394 C 193.041 136.035 181.64 142.368 170.24 142.368 L 77.138 142.368 C 67.511 142.368 57.821 137.808 52.184 129.954 C 48.004 124.128 46.294 116.401 48.004 109.434 C 50.537 99.49 59.024 91.89 68.714 89.293 C 68.398 81.44 71.374 73.586 76.631 67.76" style=""/>
  <path fill="#aca6a6" stroke="#aca6a6" stroke-width=".1" d="M 32.609 102.216 C 41.109 97.616 52.609 100.416 58.009 108.416 C 62.509 106.216 68.309 105.816 72.509 108.916 C 75.509 110.516 76.509 113.616 77.709 116.416 C 82.509 117.616 87.409 120.216 89.409 125.016 C 92.009 130.716 89.609 137.816 84.409 141.016 C 81.609 143.216 78.009 144.016 74.409 144.016 L 29.409 144.016 C 24.109 144.316 18.409 142.416 15.209 138.216 C 11.609 133.816 11.509 127.016 15.009 122.516 C 17.009 119.816 20.009 118.316 23.009 117.016 C 23.409 110.816 27.009 105.016 32.609 102.216 Z"/>
  <path fill-rule="nonzero" stroke-width=".1" d="M 24.098 189.801 L 41.398 189.801 C 49.398 174.201 57.098 158.401 65.198 142.801 L 49.198 142.801 C 47.598 142.501 47.198 144.001 46.498 145.001 C 39.198 160.001 31.498 174.801 24.198 189.701 L 24.098 189.801 Z M 48.098 189.801 L 65.398 189.801 C 73.398 174.201 81.098 158.401 89.198 142.801 L 73.198 142.801 C 71.698 142.501 71.198 144.001 70.598 144.801 C 63.198 160.001 55.598 174.801 48.198 189.801 L 48.098 189.801 Z M 72.098 189.801 L 89.398 189.801 C 97.398 174.201 105.198 158.501 113.098 142.801 L 96.098 142.801 C 94.798 143.801 94.498 145.401 93.798 146.601 L 71.898 189.801 L 72.098 189.801 Z M 96.098 189.801 L 113.398 189.801 C 121.398 174.201 129.198 158.501 137.098 142.801 L 121.098 142.801 C 119.398 142.501 119.098 144.201 118.398 145.301 L 96.098 189.801 Z M 120.098 189.801 L 137.498 189.801 L 155.798 153.501 C 157.398 150.001 159.798 146.801 160.098 142.901 C 154.598 143.101 148.898 142.301 143.498 143.301 C 135.498 158.801 127.798 174.301 120.098 189.901 L 120.098 189.801 Z M 144.098 189.801 L 161.498 189.801 L 183.098 147.001 C 183.698 145.701 183.898 144.201 184.098 143.001 C 178.698 142.801 173.398 142.701 168.098 143.001 C 167.098 143.601 166.598 145.001 166.098 146.001 C 158.798 160.601 151.298 175.001 144.098 189.801 Z" style="stroke: rgb(32, 158, 216); fill: rgb(32, 158, 216);"/>
</svg>