<?xml version="1.0" encoding="utf-8"?>
<svg viewBox="0 0 200 200" width="200pt" height="200pt" xmlns="http://www.w3.org/2000/svg">
  <title>Overcast flurries dark</title>
  <path stroke="#aca6a6" stroke-width=".1" d="M 81.968 19.668 C 98.291 10.835 120.375 16.212 130.745 31.575 C 139.387 27.35 150.525 26.582 158.591 32.535 C 164.352 35.608 166.273 41.561 168.577 46.938 C 177.795 49.242 187.205 54.235 191.046 63.453 C 196.039 74.399 191.43 88.034 181.444 94.18 C 176.067 98.404 169.153 99.941 162.24 99.941 L 75.822 99.941 C 65.644 100.517 54.698 96.868 48.553 88.802 C 41.639 80.353 41.447 67.294 48.169 58.652 C 52.009 53.467 57.771 50.587 63.532 48.09 C 64.3 36.184 71.213 25.045 81.968 19.668 Z" style="fill: rgba(104, 100, 100, 0.86);"/>
  <path fill="#e4e3e3" stroke="#e4e3e3" stroke-width=".1" d="M 75.422 65.392 C 81.096 58.895 90.08 55.646 98.591 56.315 C 107.102 56.792 115.614 61.57 120.106 69.07 C 127.292 64.293 137.506 65.153 143.652 71.22 C 146.3 73.752 161.526 85.696 164.93 91.667 C 168.004 96.827 168.382 103.468 165.876 108.866 C 162.33 116.892 153.818 121.669 145.307 121.669 L 75.801 121.669 C 68.614 121.669 61.38 118.229 57.171 112.305 C 54.051 107.911 52.774 102.082 54.051 96.827 C 55.942 89.326 62.278 83.593 69.512 81.635 C 69.276 75.711 71.498 69.787 75.422 65.392" style=""/>
  <path stroke="#aca6a6" stroke-width=".1" d="M 23.924 87.589 C 32.424 82.989 43.924 85.789 49.324 93.789 C 53.824 91.589 59.624 91.189 63.824 94.289 C 66.824 95.889 67.824 98.989 69.024 101.789 C 73.824 102.989 78.724 105.589 80.724 110.389 C 83.324 116.089 80.924 123.189 75.724 126.389 C 72.924 128.589 69.324 129.389 65.724 129.389 L 20.724 129.389 C 15.424 129.689 9.724 127.789 6.524 123.589 C 2.924 119.189 2.824 112.389 6.324 107.889 C 8.324 105.189 11.324 103.689 14.324 102.389 C 14.724 96.189 18.324 90.389 23.924 87.589 Z" style="fill: rgba(104, 100, 100, 0.86);"/>
  <path d="M 51.532 133.534 L 51.532 147.221 M 58.372 140.371 L 44.688 140.378 M 106.284 140.378 L 92.596 140.378 M 99.447 147.221 L 99.44 133.534 M 82.3 167.755 L 68.61 167.755 M 75.46 174.588 L 75.454 160.908 M 126.78 160.911 L 126.78 174.596 M 133.623 167.752 L 127.635 167.754 L 119.936 167.755 M 147.342 133.534 L 147.342 147.221 M 154.182 140.367 L 140.498 140.378" stroke-linejoin="round" stroke-linecap="round" fill="none" data-name="stroke" style="stroke: rgb(175, 222, 243); stroke-width: 12px;"/>
</svg>