<?xml version="1.0" encoding="utf-8"?>
<svg viewBox="0 0 200 200" width="200pt" height="200pt" xmlns="http://www.w3.org/2000/svg">
  <title>Overcast dark</title>
  <path stroke="#aca6a6" stroke-width=".1" d="M 71.87 25.662 C 89.281 16.24 112.838 21.975 123.9 38.363 C 133.119 33.856 145 33.037 153.604 39.387 C 159.749 42.665 161.798 49.015 164.256 54.751 C 174.089 57.209 184.126 62.535 188.224 72.368 C 193.55 84.044 188.633 98.588 177.981 105.144 C 172.245 109.65 164.87 111.289 157.496 111.289 L 65.314 111.289 C 54.457 111.904 42.78 108.011 36.226 99.407 C 28.85 90.395 28.646 76.465 35.816 67.246 C 39.912 61.715 46.058 58.643 52.204 55.98 C 53.023 43.28 60.397 31.397 71.87 25.662 Z" style="fill: rgba(104, 100, 100, 0.86);"/>
  <path fill="#e4e3e3" stroke="#e4e3e3" stroke-width=".1" d="M 23.32 84.531 C 29.373 77.601 38.956 74.135 48.035 74.849 C 57.113 75.358 66.193 80.454 70.985 88.455 C 78.65 83.359 89.545 84.276 96.101 90.748 C 98.926 93.449 115.168 106.19 118.799 112.559 C 122.078 118.063 122.481 125.147 119.808 130.905 C 116.025 139.467 106.946 144.562 97.867 144.562 L 23.724 144.562 C 16.058 144.562 8.341 140.893 3.852 134.574 C 0.523 129.887 -0.839 123.669 0.523 118.063 C 2.541 110.062 9.299 103.946 17.016 101.858 C 16.764 95.539 19.134 89.219 23.32 84.531" style=""/>
  <path stroke="#aca6a6" stroke-width=".1" d="M 121.509 120.927 C 130.576 116.02 142.843 119.007 148.603 127.54 C 153.404 125.193 159.591 124.767 164.071 128.074 C 167.271 129.78 168.338 133.087 169.618 136.074 C 174.738 137.354 179.965 140.127 182.098 145.248 C 184.871 151.328 182.311 158.901 176.765 162.315 C 173.778 164.662 169.938 165.515 166.097 165.515 L 118.096 165.515 C 112.442 165.835 106.362 163.808 102.948 159.328 C 99.108 154.635 99.002 147.381 102.735 142.581 C 104.869 139.701 108.069 138.101 111.269 136.714 C 111.695 130.1 115.536 123.913 121.509 120.927 Z" style="fill: rgba(104, 100, 100, 0.86);"/>
</svg>