<?xml version="1.0" encoding="utf-8"?>
<svg viewBox="0 0 200 200" width="200pt" height="200pt" xmlns="http://www.w3.org/2000/svg">
  <title>Overcast flurries</title>
  <path fill="#aca6a6" stroke="#aca6a6" stroke-width=".1" d="M 96.41 14.707 C 110.985 6.798 130.703 11.611 139.962 25.366 C 147.679 21.583 157.624 20.896 164.826 26.225 C 169.97 28.977 171.685 34.307 173.742 39.121 C 181.973 41.183 190.375 45.653 193.804 53.906 C 198.263 63.705 194.147 75.913 185.231 81.416 C 180.43 85.197 174.256 86.573 168.084 86.573 L 90.923 86.573 C 81.835 87.089 72.061 83.822 66.574 76.601 C 60.401 69.036 60.23 57.345 66.232 49.608 C 69.66 44.965 74.805 42.388 79.949 40.152 C 80.635 29.492 86.807 19.52 96.41 14.707 Z" style=""/>
  <path fill="#e4e3e3" stroke="#e4e3e3" stroke-width=".1" d="M 33.454 52.595 C 41.054 43.981 53.088 39.674 64.488 40.561 C 75.888 41.194 87.289 47.528 93.306 57.471 C 102.932 51.138 116.613 52.278 124.846 60.321 C 128.393 63.678 148.787 79.512 153.347 87.429 C 157.464 94.269 157.971 103.073 154.614 110.229 C 149.864 120.87 138.463 127.203 127.063 127.203 L 33.961 127.203 C 24.334 127.203 14.644 122.643 9.007 114.789 C 4.827 108.963 3.117 101.236 4.827 94.269 C 7.36 84.325 15.847 76.725 25.537 74.128 C 25.221 66.275 28.197 58.421 33.454 52.595" style=""/>
  <path d="M 57.695 136.049 L 57.695 149.736 M 64.535 142.886 L 50.851 142.893 M 112.447 142.893 L 98.759 142.893 M 105.61 149.736 L 105.603 136.049 M 88.463 170.27 L 74.773 170.27 M 81.623 177.103 L 81.617 163.423 M 132.943 163.426 L 132.943 177.111 M 139.786 170.267 L 133.798 170.269 L 126.099 170.27 M 153.505 136.049 L 153.505 149.736 M 160.345 142.882 L 146.661 142.893" stroke-linejoin="round" stroke-linecap="round" fill="none" data-name="stroke" style="stroke: rgb(175, 222, 243); stroke-width: 12px;"/>
</svg>