<?xml version="1.0" encoding="utf-8"?>
<svg viewBox="0 0 200 200" width="200pt" height="200pt" xmlns="http://www.w3.org/2000/svg">
  <title>Overcast windy dark</title>
  <path stroke="#aca6a6" stroke-width=".1" d="M 67.68 11.741 C 84.003 2.908 106.087 8.285 116.457 23.648 C 125.099 19.423 136.237 18.655 144.303 24.608 C 150.064 27.681 151.985 33.634 154.289 39.011 C 163.507 41.315 172.917 46.308 176.758 55.526 C 181.751 66.472 177.142 80.107 167.156 86.253 C 161.779 90.477 154.865 92.014 147.952 92.014 L 61.534 92.014 C 51.356 92.59 40.41 88.941 34.265 80.875 C 27.351 72.426 27.159 59.367 33.881 50.725 C 37.721 45.54 43.483 42.66 49.244 40.163 C 50.012 28.257 56.925 17.118 67.68 11.741 Z" style="fill: rgba(104, 100, 100, 0.86);"/>
  <path fill="#e4e3e3" stroke="#e4e3e3" stroke-width=".1" d="M 96.641 87.788 C 102.315 81.291 111.299 78.042 119.81 78.711 C 128.321 79.188 136.833 83.966 141.325 91.466 C 148.511 86.689 158.725 87.549 164.871 93.616 C 167.519 96.148 182.745 108.092 186.149 114.063 C 189.223 119.223 189.601 125.864 187.095 131.262 C 183.549 139.288 175.037 144.065 166.526 144.065 L 97.02 144.065 C 89.833 144.065 82.599 140.625 78.39 134.701 C 75.27 130.307 73.993 124.478 75.27 119.223 C 77.161 111.722 83.497 105.989 90.731 104.031 C 90.495 98.107 92.717 92.183 96.641 87.788" style=""/>
  <path stroke="#aca6a6" stroke-width=".1" d="M 27.077 102.216 C 35.577 97.616 47.077 100.416 52.477 108.416 C 56.977 106.216 62.777 105.816 66.977 108.916 C 69.977 110.516 70.977 113.616 72.177 116.416 C 76.977 117.616 81.877 120.216 83.877 125.016 C 86.477 130.716 84.077 137.816 78.877 141.016 C 76.077 143.216 72.477 144.016 68.877 144.016 L 23.877 144.016 C 18.577 144.316 12.877 142.416 9.677 138.216 C 6.077 133.816 5.977 127.016 9.477 122.516 C 11.477 119.816 14.477 118.316 17.477 117.016 C 17.877 110.816 21.477 105.016 27.077 102.216 Z" style="fill: rgba(104, 100, 100, 0.86);"/>
  <path data-name="stroke" d="M 151.28 165.391 C 155.911 165.391 159.665 161.636 159.665 157.006 C 159.665 152.374 155.911 148.62 151.28 148.62 L 126.124 148.62 M 33.884 148.62 L 100.968 148.62 C 107.915 148.62 113.545 154.253 113.545 161.198 C 113.545 168.145 107.915 173.777 100.968 173.777" fill="none" stroke="#2e4369" stroke-linecap="round" stroke-linejoin="round" style="stroke-width: 4px;"/>
  <path data-name="stroke" d="M 152.34 112.752 C 156.972 112.752 160.726 116.506 160.726 121.137 C 160.726 125.768 156.972 129.522 152.34 129.522 L 127.185 129.522 M 34.945 129.522 C 22.109 129.16 83.989 129.013 102.028 129.522 C 108.976 129.522 114.606 123.89 114.606 116.944 C 114.606 109.997 108.976 104.366 102.028 104.366" fill="none" stroke="#2e4369" stroke-linecap="round" stroke-linejoin="round" style="stroke-width: 4px;"/>
  <path data-name="stroke" d="M 81.124 94.031 C 85.754 94.031 89.509 97.785 89.509 102.417 C 89.509 107.047 85.754 110.802 81.124 110.802 L 55.967 110.802" fill="none" stroke="#2e4369" stroke-linecap="round" stroke-linejoin="round" style="stroke-width: 4px;"/>
</svg>