<?xml version="1.0" encoding="utf-8"?>
<svg viewBox="0 0 200 200" width="200pt" height="200pt" xmlns="http://www.w3.org/2000/svg">
  <title>Overcast sleet</title>
  <path fill="#00a4b4" stroke="#00a4b4" stroke-width=".1" d="M 60.641 144.815 C 58.641 138.015 64.341 130.515 71.441 131.015 C 78.441 131.015 83.441 138.215 81.641 144.815 C 79.941 149.315 75.341 152.615 70.441 152.215 C 66.041 152.015 62.141 148.915 60.641 144.815 Z M 125.641 144.815 C 123.441 138.015 129.341 130.415 136.441 131.015 C 143.441 131.015 148.441 138.315 146.441 144.815 C 144.841 149.315 140.241 152.615 135.441 152.215 C 131.041 152.015 127.141 148.915 125.641 144.815 Z M 32.241 144.815 C 36.241 140.815 40.241 136.815 44.541 133.015 C 45.741 134.015 47.741 135.015 47.541 136.715 C 45.541 139.715 42.541 142.015 40.041 144.715 C 38.041 146.515 36.441 148.415 34.341 149.915 C 30.941 151.315 29.341 146.215 32.341 144.715 Z M 95.741 144.815 C 99.941 140.815 103.941 136.515 108.541 132.815 L 111.541 136.815 L 103.541 144.815 C 101.541 146.615 99.941 148.815 97.541 150.215 C 94.341 150.915 93.041 146.415 95.841 144.815 Z M 159.441 144.815 C 163.441 140.815 167.441 136.815 171.641 133.015 C 172.841 134.015 174.641 135.015 174.641 136.715 C 172.641 139.715 169.641 142.115 167.141 144.715 C 165.141 146.515 163.541 148.515 161.341 150.015 C 157.841 151.015 156.341 146.215 159.341 144.715 Z M 28.841 158.415 C 36.141 154.715 45.641 161.715 43.841 169.815 C 42.841 177.615 32.841 181.415 26.841 176.515 C 20.241 172.215 21.541 161.215 28.841 158.515 Z M 93.841 158.415 C 99.841 155.615 107.441 159.415 108.841 165.815 C 110.441 172.115 104.841 178.815 98.441 178.815 C 92.841 179.015 87.741 174.415 87.441 168.815 C 87.041 164.515 89.741 160.115 93.841 158.415 Z M 163.941 158.515 C 170.141 155.315 178.641 159.815 179.241 166.815 C 180.241 173.415 173.841 179.615 167.241 178.615 C 160.941 178.215 156.041 171.315 158.041 165.115 C 159.041 162.115 161.041 159.715 164.041 158.515 Z M 74.941 160.115 C 77.141 157.815 80.941 161.815 78.541 163.915 C 74.841 167.915 70.941 171.615 67.041 175.315 C 65.241 177.815 60.841 174.615 62.841 172.315 C 66.641 168.015 70.841 164.115 75.041 160.315 Z M 138.641 160.015 C 140.641 158.015 144.341 161.515 142.341 163.615 C 138.341 167.615 134.341 171.615 130.041 175.615 C 128.041 177.615 124.341 174.015 126.341 172.015 C 130.341 168.015 134.341 163.815 138.541 160.015 Z"/>
  <path fill="#e4e3e3" stroke="#e4e3e3" stroke-width=".1" d="M 40.457 36.763 C 50.11 26.053 65.394 20.698 79.875 21.801 C 94.354 22.588 108.835 30.463 116.477 42.825 C 128.704 34.951 146.081 36.369 156.538 46.368 C 161.043 50.542 186.947 70.227 192.739 80.07 C 197.967 88.575 198.61 99.519 194.347 108.417 C 188.313 121.646 173.834 129.519 159.354 129.519 L 41.1 129.519 C 28.873 129.519 16.563 123.85 9.405 114.086 C 4.096 106.842 1.924 97.235 4.096 88.575 C 7.313 76.213 18.093 66.763 30.401 63.534 C 29.999 53.771 33.779 44.006 40.457 36.763" style=""/>
  <path fill="#aca6a6" stroke="#aca6a6" stroke-width=".1" d="M 138.809 87.522 C 147.309 82.922 158.809 85.722 164.209 93.722 C 168.709 91.522 174.509 91.122 178.709 94.222 C 181.709 95.822 182.709 98.922 183.909 101.722 C 188.709 102.922 193.609 105.522 195.609 110.322 C 198.209 116.022 195.809 123.122 190.609 126.322 C 187.809 128.522 184.209 129.322 180.609 129.322 L 135.609 129.322 C 130.309 129.622 124.609 127.722 121.409 123.522 C 117.809 119.122 117.709 112.322 121.209 107.822 C 123.209 105.122 126.209 103.622 129.209 102.322 C 129.609 96.122 133.209 90.322 138.809 87.522 Z"/>
</svg>