<?xml version="1.0" encoding="utf-8"?>
<svg viewBox="0 0 200 200" width="200pt" height="200pt" xmlns="http://www.w3.org/2000/svg">
  <title>Overcast sleet dark</title>
  <path fill="#00a4b4" stroke="#00a4b4" stroke-width=".1" d="M 58.45 143.561 C 56.45 136.761 62.15 129.261 69.25 129.761 C 76.25 129.761 81.25 136.961 79.45 143.561 C 77.75 148.061 73.15 151.361 68.25 150.961 C 63.85 150.761 59.95 147.661 58.45 143.561 Z M 123.45 143.561 C 121.25 136.761 127.15 129.161 134.25 129.761 C 141.25 129.761 146.25 137.061 144.25 143.561 C 142.65 148.061 138.05 151.361 133.25 150.961 C 128.85 150.761 124.95 147.661 123.45 143.561 Z M 30.05 143.561 C 34.05 139.561 38.05 135.561 42.35 131.761 C 43.55 132.761 45.55 133.761 45.35 135.461 C 43.35 138.461 40.35 140.761 37.85 143.461 C 35.85 145.261 34.25 147.161 32.15 148.661 C 28.75 150.061 27.15 144.961 30.15 143.461 Z M 93.55 143.561 C 97.75 139.561 101.75 135.261 106.35 131.561 L 109.35 135.561 L 101.35 143.561 C 99.35 145.361 97.75 147.561 95.35 148.961 C 92.15 149.661 90.85 145.161 93.65 143.561 Z M 157.25 143.561 C 161.25 139.561 165.25 135.561 169.45 131.761 C 170.65 132.761 172.45 133.761 172.45 135.461 C 170.45 138.461 167.45 140.861 164.95 143.461 C 162.95 145.261 161.35 147.261 159.15 148.761 C 155.65 149.761 154.15 144.961 157.15 143.461 Z M 26.65 157.161 C 33.95 153.461 43.45 160.461 41.65 168.561 C 40.65 176.361 30.65 180.161 24.65 175.261 C 18.05 170.961 19.35 159.961 26.65 157.261 Z M 91.65 157.161 C 97.65 154.361 105.25 158.161 106.65 164.561 C 108.25 170.861 102.65 177.561 96.25 177.561 C 90.65 177.761 85.55 173.161 85.25 167.561 C 84.85 163.261 87.55 158.861 91.65 157.161 Z M 161.75 157.261 C 167.95 154.061 176.45 158.561 177.05 165.561 C 178.05 172.161 171.65 178.361 165.05 177.361 C 158.75 176.961 153.85 170.061 155.85 163.861 C 156.85 160.861 158.85 158.461 161.85 157.261 Z M 72.75 158.861 C 74.95 156.561 78.75 160.561 76.35 162.661 C 72.65 166.661 68.75 170.361 64.85 174.061 C 63.05 176.561 58.65 173.361 60.65 171.061 C 64.45 166.761 68.65 162.861 72.85 159.061 Z M 136.45 158.761 C 138.45 156.761 142.15 160.261 140.15 162.361 C 136.15 166.361 132.15 170.361 127.85 174.361 C 125.85 176.361 122.15 172.761 124.15 170.761 C 128.15 166.761 132.15 162.561 136.35 158.761 Z"/>
  <path fill="#aca6a6" stroke="#aca6a6" stroke-width=".1" d="M 47.441 9.6 C 64.57 0.331 87.745 5.973 98.626 22.094 C 107.695 17.661 119.383 16.855 127.846 23.102 C 133.892 26.326 135.907 32.573 138.325 38.215 C 147.998 40.634 157.872 45.873 161.902 55.546 C 167.142 67.032 162.305 81.34 151.827 87.788 C 146.184 92.222 138.93 93.834 131.675 93.834 L 40.993 93.834 C 30.312 94.438 18.826 90.61 12.378 82.146 C 5.123 73.279 4.921 59.576 11.975 50.508 C 16.005 45.067 22.05 42.044 28.096 39.425 C 28.902 26.931 36.156 15.243 47.441 9.6 Z" style=""/>
  <path fill="#e4e3e3" stroke="#e4e3e3" stroke-width=".1" d="M 53.708 48.56 C 62.217 38.917 75.688 34.097 88.45 35.089 C 101.211 35.798 113.976 42.888 120.712 54.019 C 131.488 46.928 146.802 48.207 156.02 57.21 C 159.99 60.969 182.82 78.693 187.927 87.557 C 192.535 95.216 193.102 105.069 189.344 113.081 C 184.026 124.995 171.265 132.083 158.503 132.083 L 54.275 132.083 C 43.497 132.083 32.648 126.977 26.338 118.188 C 21.659 111.664 19.744 103.013 21.659 95.216 C 24.495 84.083 33.996 75.574 44.843 72.665 C 44.49 63.876 47.822 55.083 53.708 48.56" style=""/>
</svg>