<?xml version="1.0" encoding="utf-8"?>
<svg viewBox="0 0 200 200" width="200pt" height="200pt" xmlns="http://www.w3.org/2000/svg">
  <title>Overcast rain dark</title>
  <path stroke="#aca6a6" stroke-width=".1" d="M 51.228 17.726 C 69.053 8.08 93.169 13.952 104.494 30.729 C 113.931 26.115 126.094 25.276 134.902 31.777 C 141.194 35.133 143.291 41.634 145.807 47.506 C 155.874 50.022 166.15 55.474 170.344 65.541 C 175.797 77.494 170.764 92.384 159.859 99.095 C 153.987 103.708 146.436 105.387 138.887 105.387 L 44.516 105.387 C 33.401 106.016 21.448 102.031 14.737 93.222 C 7.187 83.996 6.977 69.735 14.318 60.298 C 18.511 54.635 24.804 51.49 31.095 48.764 C 31.934 35.762 39.483 23.598 51.228 17.726 Z" style="fill: rgba(104, 100, 100, 0.86);"/>
  <path fill="#e4e3e3" stroke="#e4e3e3" stroke-width=".1" d="M 45.797 70.039 C 52.798 62.022 63.883 58.013 74.385 58.839 C 84.887 59.427 95.39 65.323 100.933 74.577 C 109.8 68.683 122.403 69.744 129.987 77.23 C 133.254 80.354 152.042 95.092 156.242 102.46 C 160.035 108.827 160.502 117.022 157.409 123.682 C 153.034 133.586 142.531 139.48 132.029 139.48 L 46.264 139.48 C 37.396 139.48 28.47 135.235 23.277 127.926 C 19.427 122.504 17.851 115.311 19.427 108.827 C 21.76 99.571 29.578 92.497 38.504 90.081 C 38.213 82.772 40.955 75.462 45.797 70.039" style=""/>
  <path stroke="#aca6a6" stroke-width=".1" d="M 120.164 97.905 C 128.664 93.305 140.164 96.105 145.564 104.105 C 150.064 101.905 155.864 101.505 160.064 104.605 C 163.064 106.205 164.064 109.305 165.264 112.105 C 170.064 113.305 174.964 115.905 176.964 120.705 C 179.564 126.405 177.164 133.505 171.964 136.705 C 169.164 138.905 165.564 139.705 161.964 139.705 L 116.964 139.705 C 111.664 140.005 105.964 138.105 102.764 133.905 C 99.164 129.505 99.064 122.705 102.564 118.205 C 104.564 115.505 107.564 114.005 110.564 112.705 C 110.964 106.505 114.564 100.705 120.164 97.905 Z" style="fill: rgba(104, 100, 100, 0.86);"/>
  <path fill-rule="nonzero" stroke-width=".1" d="M 11.422 186.717 L 28.722 186.717 C 36.722 171.117 44.422 155.317 52.522 139.717 L 36.522 139.717 C 34.922 139.417 34.522 140.917 33.822 141.917 C 26.522 156.917 18.822 171.717 11.522 186.617 L 11.422 186.717 Z M 35.422 186.717 L 52.722 186.717 C 60.722 171.117 68.422 155.317 76.522 139.717 L 60.522 139.717 C 59.022 139.417 58.522 140.917 57.922 141.717 C 50.522 156.917 42.922 171.717 35.522 186.717 L 35.422 186.717 Z M 59.422 186.717 L 76.722 186.717 C 84.722 171.117 92.522 155.417 100.422 139.717 L 83.422 139.717 C 82.122 140.717 81.822 142.317 81.122 143.517 L 59.222 186.717 L 59.422 186.717 Z M 83.422 186.717 L 100.722 186.717 C 108.722 171.117 116.522 155.417 124.422 139.717 L 108.422 139.717 C 106.722 139.417 106.422 141.117 105.722 142.217 L 83.422 186.717 Z M 107.422 186.717 L 124.822 186.717 L 143.122 150.417 C 144.722 146.917 147.122 143.717 147.422 139.817 C 141.922 140.017 136.222 139.217 130.822 140.217 C 122.822 155.717 115.122 171.217 107.422 186.817 L 107.422 186.717 Z M 131.422 186.717 L 148.822 186.717 L 170.422 143.917 C 171.022 142.617 171.222 141.117 171.422 139.917 C 166.022 139.717 160.722 139.617 155.422 139.917 C 154.422 140.517 153.922 141.917 153.422 142.917 C 146.122 157.517 138.622 171.917 131.422 186.717 Z" style="stroke: rgb(32, 158, 216); fill: rgb(32, 158, 216);"/>
</svg>