<?xml version="1.0" encoding="utf-8"?>
<svg viewBox="0 0 200 200" width="200pt" height="200pt" xmlns="http://www.w3.org/2000/svg">
  <title>Overcast fog</title>
  <path fill="#aca6a6" stroke="#aca6a6" stroke-width=".1" d="M 83.081 8.666 C 99.404 -0.167 121.488 5.21 131.858 20.573 C 140.5 16.348 151.638 15.58 159.704 21.533 C 165.465 24.606 167.386 30.559 169.69 35.936 C 178.908 38.24 188.318 43.233 192.159 52.451 C 197.152 63.397 192.543 77.032 182.557 83.178 C 177.18 87.402 170.266 88.939 163.353 88.939 L 76.935 88.939 C 66.757 89.515 55.811 85.866 49.666 77.8 C 42.752 69.351 42.56 56.292 49.282 47.65 C 53.122 42.465 58.884 39.585 64.645 37.088 C 65.413 25.182 72.326 14.043 83.081 8.666 Z" style=""/>
  <path fill="#e4e3e3" stroke="#e4e3e3" stroke-width=".1" d="M 36.278 39.037 C 43.878 30.423 55.912 26.116 67.312 27.003 C 78.712 27.636 90.113 33.97 96.13 43.913 C 105.756 37.58 119.437 38.72 127.67 46.763 C 131.217 50.12 151.611 65.954 156.171 73.871 C 160.288 80.711 160.795 89.515 157.438 96.671 C 152.688 107.312 141.287 113.645 129.887 113.645 L 36.785 113.645 C 27.158 113.645 17.468 109.085 11.831 101.231 C 7.651 95.405 5.941 87.678 7.651 80.711 C 10.184 70.767 18.671 63.167 28.361 60.57 C 28.045 52.717 31.021 44.863 36.278 39.037" style=""/>
  <g transform="matrix(1, 0, 0, 1, -66.194984, 53.605099)">
    <path opacity="1.00" d=" M 83.96 65.95 C 127.98 65.94 172.01 65.94 216.04 65.95 C 216.06 69.50 216.06 73.05 216.03 76.60 C 172.01 76.60 127.99 76.60 83.97 76.60 C 83.94 73.05 83.94 69.50 83.96 65.95 Z" style="fill: rgb(208, 212, 213);"/>
    <path opacity="1.00" d=" M 83.94 86.22 C 127.97 86.22 172.00 86.21 216.03 86.22 C 216.06 89.83 216.06 93.44 216.04 97.05 C 172.01 97.06 127.98 97.05 83.95 97.05 C 83.94 93.44 83.95 89.83 83.94 86.22 Z" style="fill: rgb(208, 212, 213);"/>
    <path opacity="1.00" d=" M 83.96 106.95 C 127.98 106.94 172.01 106.94 216.04 106.95 C 216.06 110.54 216.06 114.13 216.03 117.72 C 172.01 117.73 127.99 117.73 83.97 117.72 C 83.94 114.13 83.94 110.54 83.96 106.95 Z" style="fill: rgb(208, 212, 213);"/>
    <path opacity="1.00" d=" M 83.98 127.40 C 128.00 127.41 172.01 127.40 216.03 127.40 C 216.06 130.95 216.06 134.50 216.04 138.05 C 172.02 138.06 127.99 138.06 83.96 138.05 C 83.93 134.49 83.93 130.94 83.98 127.40 Z" style="fill: rgb(208, 212, 213);"/>
  </g>
</svg>