<?xml version="1.0" encoding="utf-8"?>
<svg viewBox="0 0 200 200" width="200pt" height="200pt" xmlns="http://www.w3.org/2000/svg">
  <title>Overcast windy</title>
  <path fill="#aca6a6" stroke="#aca6a6" stroke-width=".1" d="M 82.335 23.328 C 98.658 14.495 120.742 19.872 131.112 35.235 C 139.754 31.01 150.892 30.242 158.958 36.195 C 164.719 39.268 166.64 45.221 168.944 50.598 C 178.162 52.902 187.572 57.895 191.413 67.113 C 196.406 78.059 191.797 91.694 181.811 97.84 C 176.434 102.064 169.52 103.601 162.607 103.601 L 76.189 103.601 C 66.011 104.177 55.065 100.528 48.92 92.462 C 42.006 84.013 41.814 70.954 48.536 62.312 C 52.376 57.127 58.138 54.247 63.899 51.75 C 64.667 39.844 71.58 28.705 82.335 23.328 Z" style=""/>
  <path fill="#e4e3e3" stroke="#e4e3e3" stroke-width=".1" d="M 32.284 88.209 C 39.884 79.595 51.918 75.288 63.318 76.175 C 74.718 76.808 86.119 83.142 92.136 93.085 C 101.762 86.752 115.443 87.892 123.676 95.935 C 127.223 99.292 147.617 115.126 152.177 123.043 C 156.294 129.883 156.801 138.687 153.444 145.843 C 148.694 156.484 137.293 162.817 125.893 162.817 L 32.791 162.817 C 23.164 162.817 13.474 158.257 7.837 150.403 C 3.657 144.577 1.947 136.85 3.657 129.883 C 6.19 119.939 14.677 112.339 24.367 109.742 C 24.051 101.889 27.027 94.035 32.284 88.209" style=""/>
  <g transform="matrix(1, 0, 0, 1, 0.598129, 51.280792)">
    <path data-name="stroke" d="M 148.758 126.438 C 153.217 126.438 156.833 122.823 156.833 118.364 C 156.833 113.904 153.217 110.289 148.758 110.289 L 124.533 110.289 M 35.709 110.289 L 100.309 110.289 C 106.999 110.289 112.421 115.713 112.421 122.401 C 112.421 129.091 106.999 134.514 100.309 134.514" fill="none" stroke="#2e4369" stroke-linecap="round" stroke-linejoin="round" style="stroke-width: 5px;"/>
    <path data-name="stroke" d="M 149.779 75.748 C 154.239 75.748 157.854 79.364 157.854 83.823 C 157.854 88.283 154.239 91.898 149.779 91.898 L 125.555 91.898 M 36.731 91.898 C 24.37 91.549 83.959 91.408 101.33 91.898 C 108.02 91.898 113.442 86.474 113.442 79.786 C 113.442 73.096 108.02 67.673 101.33 67.673" fill="none" stroke="#2e4369" stroke-linecap="round" stroke-linejoin="round" style="stroke-width: 5px;"/>
    <path data-name="stroke" d="M 81.199 57.721 C 85.658 57.721 89.274 61.336 89.274 65.796 C 89.274 70.255 85.658 73.871 81.199 73.871 L 56.974 73.871" fill="none" stroke="#2e4369" stroke-linecap="round" stroke-linejoin="round" style="stroke-width: 5px;"/>
  </g>
</svg>