<?xml version="1.0" encoding="utf-8"?>
<svg viewBox="0 0 200 200" width="200pt" height="200pt" xmlns="http://www.w3.org/2000/svg">
  <title>Overcast thunder rain dark</title>
  <path fill="#aca6a6" stroke="#aca6a6" stroke-width=".1" d="M 59.308 18.362 C 79.977 5.764 107.942 13.433 121.073 35.345 C 132.016 29.319 146.12 28.224 156.334 36.715 C 163.629 41.098 166.061 49.588 168.979 57.258 C 180.651 60.544 192.567 67.665 197.431 80.813 C 203.753 96.425 197.917 115.873 185.272 124.639 C 178.463 130.664 169.708 132.856 160.954 132.856 L 51.525 132.856 C 38.637 133.677 24.776 128.473 16.995 116.968 C 8.24 104.917 7.997 86.291 16.509 73.965 C 21.371 66.57 28.668 62.462 35.963 58.901 C 36.935 41.919 45.689 26.032 59.308 18.362 Z" style=""/>
  <path fill="#e4e3e3" stroke="#e4e3e3" stroke-width=".1" d="M 15.881 107.389 C 18.713 104.402 23.197 102.907 27.444 103.216 C 31.69 103.434 35.937 105.632 38.179 109.079 C 41.766 106.883 46.864 107.278 49.931 110.067 C 51.253 111.231 58.849 116.722 60.548 119.468 C 62.084 121.841 62.271 124.892 61.021 127.374 C 59.252 131.064 55.003 133.261 50.756 133.261 L 16.07 133.261 C 12.484 133.261 8.874 131.679 6.774 128.956 C 5.217 126.936 4.579 124.256 5.217 121.841 C 6.161 118.392 9.322 115.756 12.932 114.855 C 12.813 112.132 13.923 109.41 15.881 107.389" style=""/>
  <path fill="#F9D915" d="M 52.009 132.612 C 52.009 132.052 51.45 131.654 50.731 131.654 C 50.731 131.654 33.199 131.871 33.119 132.27 L 16.795 158.802 C 16.715 158.882 16.715 159.042 16.715 159.201 C 16.715 159.761 17.273 160.162 17.992 160.162 L 26.696 160.162 L 18.391 183.796 C 18.311 183.955 18.311 184.115 18.311 184.275 C 18.311 185.315 19.429 186.193 20.787 186.193 C 21.664 186.193 22.463 185.793 22.944 185.235 L 50.173 149.141 C 50.252 148.981 50.252 148.901 50.252 148.742 C 50.252 148.182 49.694 147.784 48.975 147.784 L 48.975 147.784 L 40.67 147.784 L 51.769 133.09 C 51.93 133.01 52.009 132.851 52.009 132.612 Z" style=""/>
  <path fill="#F9D915" d="M 178.945 133.94 C 178.945 133.381 178.385 132.982 177.666 132.982 C 177.666 132.982 160.134 133.2 160.054 133.598 L 143.73 160.131 C 143.65 160.211 143.65 160.37 143.65 160.53 C 143.65 161.089 144.209 161.491 144.928 161.491 L 153.631 161.491 L 145.326 185.124 C 145.247 185.284 145.247 185.443 145.247 185.604 C 145.247 186.643 146.364 187.522 147.722 187.522 C 148.6 187.522 149.398 187.122 149.879 186.564 L 177.108 150.469 C 177.188 150.31 177.188 150.23 177.188 150.07 C 177.188 149.511 176.63 149.112 175.911 149.112 L 175.911 149.112 L 167.606 149.112 L 178.704 134.419 C 178.865 134.339 178.945 134.18 178.945 133.94 Z" style=""/>
  <path fill="#00a4b4" fill-rule="nonzero" stroke="#00a4b4" stroke-width=".1" d="M 54.775 188.925 L 72.179 188.925 C 80.228 170.334 87.975 151.506 96.123 132.917 L 80.028 132.917 C 78.518 132.559 78.015 134.347 77.412 135.3 C 69.966 153.412 62.321 171.05 54.876 188.925 L 54.775 188.925 Z M 78.92 188.925 L 96.324 188.925 C 104.374 170.334 112.22 151.625 120.168 132.917 L 103.065 132.917 C 101.758 134.109 101.456 136.015 100.752 137.445 L 78.718 188.925 L 78.92 188.925 Z" style=""/>
</svg>