<?xml version="1.0" encoding="utf-8"?>
<svg viewBox="0 0 200 200" width="200pt" height="200pt" xmlns="http://www.w3.org/2000/svg" >
  <title>Clear partly cloudy night</title>
  <path stroke-width=".1" d="M 105.939 174.917 C 123.561 167.141 138.311 152.561 145.534 134.385 C 152.318 117.278 152.652 97.157 146.169 79.177 C 140.02 62.361 128.195 47.489 113.038 37.965 C 99.945 29.601 84.417 25.133 69.197 25.715 C 49.255 25.909 30.251 34.951 17.029 49.432 C 14.729 51.862 12.836 54.78 10.631 57.21 C 10.654 57.794 10.957 58.179 11.073 58.667 L 11.61 57.694 C 21.723 53.999 32.469 51.862 43.355 53.03 C 64.111 53.999 84.589 64.692 98.197 81.023 C 107.753 92.007 114.258 105.71 116.656 119.901 C 119.53 136.427 117.054 153.338 109.68 167.822 C 108.63 170.254 106.792 172.197 105.939 174.917 Z" style="paint-order: stroke; stroke: rgb(255, 255, 255); fill: rgb(240, 211, 64);" transform="matrix(-1, 0, 0, -1, 161.464254, 200.581478)"/>
  <path stroke-linecap="round" d="M 106.845 16.696 L 111.877 31.488 C 112.077 32.072 112.625 32.464 113.24 32.464 L 129.343 32.464 C 130.458 32.479 131.139 33.696 130.57 34.653 C 130.472 34.815 130.345 34.957 130.194 35.072 L 117.207 44.55 C 116.69 44.923 116.48 45.593 116.693 46.195 L 122.321 62.312 C 122.682 63.364 121.769 64.41 120.678 64.196 C 120.471 64.156 120.277 64.07 120.108 63.947 L 106.233 53.79 C 105.725 53.418 105.034 53.418 104.527 53.79 L 91.078 63.953 C 89.946 64.78 88.418 63.663 88.858 62.33 L 94.25 46.26 C 94.448 45.666 94.24 45.01 93.736 44.638 L 80.659 35.072 C 79.538 34.245 80.117 32.459 81.51 32.459 L 97.832 32.459 C 98.452 32.459 99.003 32.065 99.201 31.479 L 104.107 16.701 C 104.467 15.647 105.834 15.378 106.568 16.218 C 106.69 16.357 106.783 16.518 106.845 16.692" style="stroke: rgb(112, 110, 3); stroke-width: 0px; fill: rgb(240, 211, 64);"/>
  <path fill="#aca6a6" stroke="#aca6a6" stroke-width=".1" d="M 32.06 102.311 C 44.623 95.601 61.62 99.685 69.602 111.355 C 76.253 108.147 84.826 107.563 91.033 112.085 C 95.467 114.419 96.945 118.941 98.719 123.027 C 105.814 124.776 113.056 128.57 116.012 135.572 C 119.854 143.888 116.307 154.245 108.622 158.912 C 104.482 162.123 99.162 163.289 93.841 163.289 L 27.33 163.289 C 19.497 163.726 11.072 160.955 6.342 154.828 C 1.021 148.408 0.874 138.489 6.046 131.925 C 9.002 127.987 13.437 125.798 17.871 123.901 C 18.462 114.857 23.783 106.395 32.06 102.311 Z" style=""/>
  <path stroke-linecap="round" d="M 160.101 51.163 L 163.671 62.31 C 163.814 62.749 164.202 63.046 164.64 63.046 L 176.068 63.046 C 176.861 63.057 177.342 63.973 176.939 64.695 C 176.87 64.817 176.78 64.923 176.673 65.009 L 167.455 72.152 C 167.087 72.434 166.939 72.938 167.09 73.392 L 171.086 85.537 C 171.341 86.329 170.691 87.117 169.918 86.956 C 169.771 86.925 169.635 86.861 169.514 86.769 L 159.666 79.115 C 159.306 78.834 158.816 78.834 158.456 79.115 L 148.91 86.772 C 148.107 87.395 147.022 86.554 147.335 85.551 L 151.162 73.441 C 151.303 72.993 151.155 72.498 150.797 72.219 L 141.515 65.009 C 140.72 64.387 141.131 63.043 142.119 63.043 L 153.704 63.043 C 154.144 63.043 154.534 62.745 154.676 62.303 L 158.158 51.169 C 158.413 50.373 159.384 50.171 159.904 50.803 C 159.99 50.909 160.058 51.03 160.101 51.161" style="stroke: rgb(112, 110, 3); stroke-width: 0px; fill: rgb(240, 211, 64);"/>
  <path fill="#e4e3e3" stroke="#e4e3e3" stroke-width=".1" d="M 102.667 80.76 C 108.54 74.15 117.839 70.845 126.648 71.526 C 135.458 72.012 144.268 76.872 148.917 84.502 C 156.357 79.642 166.928 80.517 173.291 86.689 C 176.032 89.266 191.792 101.416 195.315 107.491 C 198.496 112.74 198.888 119.496 196.293 124.988 C 192.623 133.153 183.813 138.013 175.003 138.013 L 103.059 138.013 C 95.619 138.013 88.131 134.514 83.774 128.488 C 80.544 124.016 79.223 118.087 80.544 112.74 C 82.502 105.11 89.06 99.277 96.549 97.285 C 96.304 91.258 98.604 85.232 102.667 80.76" style="" />
</svg>