<?xml version="1.0" encoding="utf-8"?>
<svg viewBox="0 0 200 200" width="200pt" height="200pt" xmlns="http://www.w3.org/2000/svg">
  <title>Offline Unknown</title>
  <path fill="#e4e3e3" stroke="#e4e3e3" stroke-width=".1" d="M 51.097 60.127 C 59.23 50.555 72.105 45.768 84.303 46.754 C 96.502 47.458 108.7 54.496 115.137 65.547 C 125.438 58.508 140.076 59.775 148.886 68.714 C 152.681 72.445 174.502 90.041 179.381 98.84 C 183.786 106.441 184.328 116.225 180.736 124.179 C 175.654 136.004 163.456 143.042 151.257 143.042 L 51.64 143.042 C 41.339 143.042 30.971 137.975 24.939 129.247 C 20.467 122.771 18.637 114.184 20.467 106.441 C 23.177 95.391 32.258 86.944 42.627 84.059 C 42.288 75.331 45.473 66.603 51.097 60.127" style=""/>
  <circle style="stroke: rgb(104, 199, 56); fill: rgb(79, 216, 75);" cx="29.876" cy="29.48" r="9.417" transform="matrix(0.113331, -0.993557, 0.993557, 0.113331, 72.481934, 166.772675)"/>
  <path data-name="stroke" d="M 66.216 82.321 C 107.904 82.321 90.322 99.256 121.951 96.678 C 130.677 95.967 137.801 89.58 137.801 80.828 C 137.801 72.074 130.706 64.978 121.951 64.978" fill="none" stroke-linecap="round" stroke-linejoin="round" style="stroke-width: 13px; stroke: rgb(79, 216, 75);" transform="matrix(0, -1, 1, 0, 21.046967, 182.970032)"/>
</svg>