<?xml version="1.0" encoding="utf-8"?>
<svg viewBox="0 0 200 200" width="200pt" height="200pt" xmlns="http://www.w3.org/2000/svg">
  <title>Overcast</title>
  <path d="M 172.582 123.893 C 171.635 121.723 143.204 59.416 142.074 57.448 L 129.705 31.569 C 127.647 27.264 122.468 25.005 117.912 26.428 L 107.102 29.804 C 105.379 30.343 102.503 29.685 101.184 28.453 L 86.885 15.092 C 84.989 13.319 82.6 12.585 80.329 13.077 C 78.059 13.57 76.19 15.23 75.2 17.631 L 19.428 152.803 C 18.43 155.224 18.596 157.717 19.885 159.643 C 21.174 161.569 23.415 162.674 26.034 162.674 L 179.688 162.674 C 182.338 162.674 184.57 161.557 185.812 159.609 C 187.055 157.66 187.127 155.164 186.009 152.762 L 172.582 123.893 Z M 81.578 20.263 C 81.66 20.063 81.743 19.936 81.802 19.863 C 81.886 19.905 82.015 19.987 82.173 20.133 L 96.471 33.495 C 99.607 36.424 105.063 37.67 109.159 36.391 L 119.969 33.016 C 121.232 32.619 122.905 33.349 123.477 34.545 L 136.201 61.165 C 137.509 63.153 143.076 78.359 142.678 78.714 C 136.22 84.479 119.484 79.029 112.608 79.029 C 105.842 79.029 79.19 63.596 71.068 63.596 C 69.33 63.596 67.714 63.792 66.218 64.133 C 65.104 64.387 63.546 64.016 64.491 61.678 L 81.578 20.263 Z M 175.986 155.773 L 29.076 155.773 C 25.472 155.773 26.663 153.365 26.663 153.365 L 57.401 78.863 C 57.879 77.993 62.262 70.498 71.069 70.498 C 74.403 70.498 105.093 82.669 111.149 84.464 C 115.066 85.625 145.415 85.979 146.38 87.717 L 178.627 153.254 C 178.626 153.254 180.049 155.773 175.986 155.773 Z" style="fill: rgb(119, 6, 6);"/>
  <path d="M 105.432 126.661 C 107.337 126.661 108.882 125.116 108.882 123.21 L 108.882 105.318 C 108.882 103.412 107.337 101.867 105.432 101.867 C 103.525 101.867 101.981 103.412 101.981 105.318 L 101.981 123.21 C 101.981 125.116 103.525 126.661 105.432 126.661 Z" style="fill: rgb(119, 6, 6);"/>
  <path d="M 104.768 140.716 C 106.674 140.716 108.219 139.171 108.219 137.265 L 108.219 136.23 C 108.219 134.323 106.674 132.779 104.768 132.779 C 102.861 132.779 101.317 134.323 101.317 136.23 L 101.317 137.265 C 101.317 139.171 102.861 140.716 104.768 140.716 Z" style="fill: rgb(119, 6, 6);"/>
  <g transform="matrix(0.460111, 0, 0, 0.460111, 19.542463, 0)" style=""/>
  <g transform="matrix(0.460111, 0, 0, 0.460111, 19.542463, 0)" style=""/>
  <g transform="matrix(0.460111, 0, 0, 0.460111, 19.542463, 0)" style=""/>
  <g transform="matrix(0.460111, 0, 0, 0.460111, 19.542463, 0)" style=""/>
  <g transform="matrix(0.460111, 0, 0, 0.460111, 19.542463, 0)" style=""/>
  <g transform="matrix(0.460111, 0, 0, 0.460111, 19.542463, 0)" style=""/>
  <g transform="matrix(0.460111, 0, 0, 0.460111, 19.542463, 0)" style=""/>
  <g transform="matrix(0.460111, 0, 0, 0.460111, 19.542463, 0)" style=""/>
  <g transform="matrix(0.460111, 0, 0, 0.460111, 19.542463, 0)" style=""/>
  <g transform="matrix(0.460111, 0, 0, 0.460111, 19.542463, 0)" style=""/>
  <g transform="matrix(0.460111, 0, 0, 0.460111, 19.542463, 0)" style=""/>
  <g transform="matrix(0.460111, 0, 0, 0.460111, 19.542463, 0)" style=""/>
  <g transform="matrix(0.460111, 0, 0, 0.460111, 19.542463, 0)" style=""/>
  <g transform="matrix(0.460111, 0, 0, 0.460111, 19.542463, 0)" style=""/>
  <g transform="matrix(0.460111, 0, 0, 0.460111, 19.542463, 0)" style=""/>
</svg>