<?xml version="1.0" encoding="utf-8"?>
<svg version="1.1" id="Layer_1" x="0px" y="0px" viewBox="0 0 512 335" style="" xmlns="http://www.w3.org/2000/svg">
  <path style="fill: rgb(65, 71, 155);" d="M 476.394 0.279 L 38.728 0.279 C 17.435 0.279 0.158 17.424 0.135 38.575 L -0.134 297.002 C -0.156 318.151 17.088 335.297 38.38 335.297 L 476.045 335.297 C 497.338 335.297 514.617 318.152 514.638 297.002 L 514.907 38.575 C 514.928 17.424 497.686 0.279 476.394 0.279 Z" transform="matrix(0.999996, 0.002757, -0.002757, 0.999996, 0.46357, -0.708977)"/>
  <path style="fill: rgb(245, 245, 245);" d="M 9.003 167.733 L 24.337 167.733 L 106.162 114.159 L 106.107 167.733 L 150.245 167.733 L 150.3 114.159 L 232.014 167.733 L 247.348 167.733 C 252.223 167.733 256.18 163.78 256.185 158.905 L 256.192 151.903 L 186.085 105.94 L 256.239 105.94 L 256.284 61.802 L 186.129 61.802 L 256.332 15.839 L 256.339 8.837 C 256.344 3.961 252.395 0.009 247.52 0.009 L 232.186 0.009 L 150.361 53.583 L 150.416 0.009 L 106.278 0.009 L 106.223 53.583 L 27.19 1.767 C 17.953 4.667 10.227 10.97 5.461 19.201 L 70.44 61.802 L 0.284 61.802 L 0.239 105.94 L 70.394 105.94 L 0.191 151.903 L 0.184 158.905 C 0.179 163.78 4.126 167.733 9.003 167.733 Z" transform="matrix(0.999998, 0.002084, -0.002084, 0.999998, 0.175066, -0.267115)"/>
  <g transform="matrix(0.999998, 0.002084, -0.003116, 0.999995, 0.797993, -88.532066)" style="">
    <polygon style="fill:#FF4B55;" points="256,158.896 141.241,158.896 141.241,88.275 114.759,88.275 114.759,158.896 0,158.896 &#10;&#9;&#9;0,185.378 114.759,185.378 114.759,255.999 141.241,255.999 141.241,185.378 256,185.378 &#9;"/>
    <path style="fill:#FF4B55;" d="M8.227,102.901l72.662,47.167h16.214l-82.496-53.55C12.238,98.388,10.097,100.531,8.227,102.901z"/>
    <path style="fill:#FF4B55;" d="M166.283,150.068l88.374-57.366c-1.536-2.599-4.246-4.427-7.485-4.427h-1.91l-95.193,61.793H166.283 z"/>
    <path style="fill:#FF4B55;" d="M89.474,194.206L1.269,251.462c1.521,2.662,4.273,4.537,7.559,4.537h1.665l95.196-61.793H89.474z"/>
    <path style="fill:#FF4B55;" d="M255.86,247.865l-82.666-53.658H156.98l93.874,60.935 C253.666,253.837,255.595,251.102,255.86,247.865z"/>
  </g>
  <g transform="matrix(0.999998, 0.002084, -0.003116, 0.999995, 0.797993, -88.532066)" style="">
    <path style="fill:#F5F5F5;" d="M130.671,304.13l6.663,21.997l21.353-8.505c1.822-0.726,3.478,1.352,2.366,2.966l-13.044,18.924 l19.962,11.391c1.703,0.972,1.112,3.562-0.844,3.699l-22.929,1.601l3.541,22.709c0.302,1.938-2.092,3.091-3.418,1.646 l-15.548-16.928l-15.548,16.928c-1.326,1.444-3.72,0.291-3.418-1.646l3.541-22.709l-22.929-1.601 c-1.956-0.137-2.548-2.727-0.844-3.699l19.962-11.391l-13.044-18.924c-1.112-1.614,0.544-3.692,2.366-2.966l21.353,8.505 l6.663-21.997C127.446,302.253,130.103,302.253,130.671,304.13z"/>
    <path style="fill:#F5F5F5;" d="M393.279,147.729l3.255,10.745l10.43-4.154c0.889-0.354,1.699,0.66,1.155,1.449l-6.371,9.245 l9.751,5.565c0.832,0.474,0.543,1.74-0.413,1.806l-11.2,0.782l1.729,11.093c0.148,0.947-1.022,1.51-1.67,0.804l-7.595-8.269 l-7.595,8.269c-0.648,0.705-1.817,0.142-1.67-0.804l1.729-11.093l-11.2-0.782c-0.956-0.067-1.245-1.332-0.413-1.806l9.751-5.565 l-6.371-9.245c-0.544-0.789,0.266-1.803,1.155-1.449l10.431,4.154l3.255-10.745C391.703,146.811,393.002,146.811,393.279,147.729z"/>
    <path style="fill:#F5F5F5;" d="M320.702,230.204l3.255,10.745l10.431-4.154c0.889-0.354,1.699,0.66,1.155,1.449l-6.371,9.245 l9.751,5.565c0.832,0.474,0.543,1.74-0.413,1.806l-11.2,0.782l1.73,11.093c0.148,0.947-1.022,1.51-1.67,0.804l-7.595-8.269 l-7.595,8.269c-0.648,0.705-1.817,0.142-1.67-0.804l1.73-11.093l-11.2-0.782c-0.956-0.067-1.245-1.332-0.413-1.806l9.751-5.565 l-6.371-9.245c-0.544-0.789,0.266-1.803,1.155-1.449l10.431,4.154l3.255-10.745C319.126,229.287,320.424,229.287,320.702,230.204z"/>
    <path style="fill:#F5F5F5;" d="M461.943,194.893l3.255,10.745l10.431-4.154c0.889-0.354,1.699,0.66,1.155,1.449l-6.371,9.245 l9.751,5.565c0.832,0.474,0.543,1.74-0.413,1.806l-11.2,0.782l1.73,11.093c0.148,0.947-1.022,1.51-1.67,0.804l-7.595-8.269 l-7.595,8.269c-0.648,0.705-1.817,0.142-1.669-0.804l1.73-11.093l-11.2-0.782c-0.956-0.067-1.245-1.332-0.413-1.806l9.751-5.565 l-6.371-9.245c-0.544-0.789,0.266-1.803,1.155-1.449l10.431,4.154l3.255-10.745C460.367,193.977,461.665,193.977,461.943,194.893z"/>
    <path style="fill:#F5F5F5;" d="M393.279,336.135l3.255,10.745l10.43-4.155c0.889-0.354,1.699,0.66,1.155,1.449l-6.371,9.245 l9.751,5.565c0.832,0.474,0.543,1.74-0.413,1.806l-11.2,0.782l1.729,11.093c0.148,0.947-1.022,1.51-1.67,0.804l-7.595-8.269 l-7.595,8.269c-0.648,0.705-1.817,0.142-1.67-0.804l1.729-11.093l-11.2-0.782c-0.956-0.066-1.245-1.332-0.413-1.806l9.751-5.565 l-6.371-9.245c-0.544-0.789,0.266-1.803,1.155-1.449l10.431,4.155l3.255-10.745C391.703,335.219,393.002,335.219,393.279,336.135z"/>
    <path style="fill:#F5F5F5;" d="M418.461,249.512l-2.613,7.836l-8.259,0.064c-1.069,0.009-1.513,1.373-0.652,2.008l6.644,4.907 l-2.492,7.875c-0.322,1.02,0.839,1.863,1.708,1.241l6.72-4.803l6.72,4.803c0.87,0.621,2.03-0.222,1.708-1.241l-2.492-7.875 l6.645-4.907c0.861-0.636,0.417-1.999-0.652-2.008l-8.259-0.064l-2.613-7.836C420.234,248.498,418.799,248.498,418.461,249.512z"/>
  </g>
  <g/>
  <g/>
  <g/>
  <g/>
  <g/>
  <g/>
  <g/>
  <g/>
  <g/>
  <g/>
  <g/>
  <g/>
  <g/>
  <g/>
  <g/>
</svg>