<?xml version="1.0" encoding="UTF-8" ?>
<!DOCTYPE svg PUBLIC "-//W3C//DTD SVG 1.1//EN" "http://www.w3.org/Graphics/SVG/1.1/DTD/svg11.dtd">
<svg width="512pt" height="512pt" viewBox="0 0 512 512" version="1.1" xmlns="http://www.w3.org/2000/svg">
<path fill="#141414" stroke="#141414" stroke-width="0.09375" opacity="1.00" d=" M 25.12 92.14 C 35.43 82.19 49.72 76.71 64.02 76.88 C 100.45 76.96 136.88 76.65 173.30 77.03 C 173.39 196.35 173.39 315.66 173.30 434.97 C 137.20 435.35 101.08 435.03 64.98 435.13 C 52.28 435.37 39.46 431.43 29.43 423.55 C 16.06 413.37 7.92 396.79 8.02 379.99 C 7.97 297.64 8.01 215.30 8.01 132.95 C 7.75 117.75 14.02 102.56 25.12 92.14 Z" />
<path fill="#fee833" stroke="#fee833" stroke-width="0.09375" opacity="1.00" d=" M 173.30 77.03 C 206.85 76.70 240.42 76.99 273.98 76.89 C 295.51 77.04 317.05 76.58 338.56 77.12 C 338.16 104.39 338.50 131.68 338.39 158.96 C 338.39 238.30 338.39 317.63 338.39 396.97 C 338.50 409.60 338.16 422.25 338.56 434.88 C 324.71 435.41 310.84 434.96 296.98 435.11 C 255.75 435.02 214.52 435.30 173.30 434.97 C 173.39 315.66 173.39 196.35 173.30 77.03 Z" />
<path fill="#ee232c" stroke="#ee232c" stroke-width="0.09375" opacity="1.00" d=" M 338.56 77.12 C 340.66 76.64 342.84 76.90 344.99 76.86 C 376.34 76.88 407.70 76.86 439.05 76.87 C 448.43 76.77 458.07 76.65 466.99 79.96 C 488.35 87.09 503.84 108.44 503.94 130.97 C 504.08 212.98 503.95 294.99 504.01 377.00 C 504.14 384.65 503.16 392.38 500.38 399.54 C 492.83 420.14 472.00 434.92 450.02 435.06 C 422.34 435.23 394.65 435.08 366.97 435.13 C 357.50 434.95 347.98 435.50 338.56 434.88 C 338.16 422.25 338.50 409.60 338.39 396.97 C 338.39 317.63 338.39 238.30 338.39 158.96 C 338.50 131.68 338.16 104.39 338.56 77.12 Z" />
</svg>
