<?xml version="1.0" encoding="utf-8"?>
<svg id="emoji" viewBox="0 0 72 72" xmlns="http://www.w3.org/2000/svg">
  <g id="line" >
      <circle cx="36" cy="36" r="23" fill="none" stroke="#000000" stroke-linecap="round" stroke-linejoin="round" stroke-width="2"/>
      <path fill="none" stroke="#000000" stroke-linecap="round" stroke-linejoin="round" stroke-width="2" d="M 45.815 44.929 C 42.915 46.566 39.567 47.499 36 47.499 C 32.433 47.499 29.085 46.566 26.185 44.929"/>
      <path d="M 30 31 C 30 32.657 28.655 34 27 34 C 25.345 34 24 32.657 24 31 C 24 29.345 25.345 28 27 28 C 28.655 28 30 29.345 30 31"/>
      <path d="M 48 31 C 48 32.657 46.655 34 45 34 C 43.345 34 42 32.657 42 31 C 42 29.345 43.345 28 45 28 C 46.655 28 48 29.345 48 31"/>
  </g>
</svg>