<?xml version="1.0" encoding="utf-8"?>
<svg width="402pt" height="102pt" viewBox="0 0 402 102" version="1.1" xmlns="http://www.w3.org/2000/svg">
  <path opacity="1.00" d="M 24.719 20.699 C 29.348 14.161 34.423 7.752 36.893 0.01 C 40.317 4.775 43.582 9.654 46.681 14.638 C 39.075 15.343 31.628 17.426 24.719 20.699 Z" style="fill: rgb(236, 234, 233);"/>
  <path opacity="1.00" d="M 47.969 16.691 C 53.332 24.532 58.9 32.236 63.961 40.274 C 69.029 47.812 72.718 56.743 72.15 65.971 C 71.673 77.038 65.779 87.788 56.461 93.849 C 51.825 97.114 46.325 98.864 40.779 99.795 C 37.211 86.826 37.878 73.069 40.575 60.001 C 38.848 60.751 37.128 61.493 35.401 62.236 C 35.355 52.607 38.575 43.35 42.832 34.835 C 40.37 35.502 37.908 36.176 35.454 36.85 C 38.204 29.358 42.658 22.616 47.969 16.691 Z" style="fill: rgb(236, 234, 233);"/>
  <path opacity="1.00" d="M 5.25 48.88 C 9.106 39.501 15.644 31.585 22.09 23.873 C 19.34 32.502 17.863 41.562 18.265 50.63 C 19.954 49.956 21.636 49.297 23.318 48.622 C 22.886 57.228 23.674 65.902 26.022 74.205 C 27.34 73.576 28.651 72.948 29.961 72.326 C 30.863 77.22 31.522 82.213 33.393 86.856 C 35.219 91.409 37.598 95.712 39.969 100 L 36.151 100 C 26.802 99.508 17.583 95.47 11.348 88.409 C 5.507 82.266 2.409 73.879 2 65.478 L 2 64.713 C 1.992 59.281 3.159 53.887 5.25 48.88 Z" style="fill: rgb(236, 234, 233);"/>
  <path opacity="1.00" d="M 213.784 25.873 C 216.575 25.884 219.366 25.884 222.167 25.884 C 222.262 37.531 222.356 49.178 222.451 60.836 C 226.826 55.957 231.223 51.098 235.567 46.188 C 239.334 46.135 243.09 46.135 246.857 46.146 C 241.936 51.487 236.973 56.807 232.041 62.158 C 237.225 68.527 242.45 74.875 247.623 81.255 C 243.846 81.287 240.068 81.297 236.291 81.329 C 231.653 75.369 227.047 69.377 222.409 63.417 C 222.314 69.377 222.262 75.348 222.178 81.318 C 219.376 81.329 216.575 81.329 213.773 81.318 C 213.773 62.84 213.763 44.362 213.784 25.873 Z" style="fill: rgb(236, 234, 233);"/>
  <path opacity="1.00" d="M 312.953 25.884 C 315.754 25.884 318.545 25.884 321.347 25.884 C 321.315 37.531 321.378 49.168 321.641 60.815 C 326.069 55.936 330.444 51.004 334.862 46.125 C 338.587 46.135 342.312 46.125 346.037 46.135 C 341.105 51.476 336.163 56.807 331.231 62.148 C 336.404 68.538 341.63 74.886 346.813 81.266 C 343.015 81.287 339.227 81.297 335.45 81.308 C 330.801 75.348 326.226 69.346 321.578 63.396 C 321.494 69.367 321.441 75.348 321.357 81.318 C 318.556 81.329 315.754 81.329 312.953 81.318 C 312.953 62.84 312.953 44.362 312.953 25.884 Z" style="fill: rgb(236, 234, 233);"/>
  <path opacity="1.00" d="M 275.335 32.264 C 283.667 26.335 295.681 27.321 303.54 33.628 C 301.599 35.8 299.648 37.972 297.696 40.133 C 293.803 36.817 288.2 34.719 283.278 37.006 C 279.123 38.423 277.654 44.687 281.348 47.394 C 287.727 51.686 296.573 52.064 301.473 58.569 C 306.552 66.334 302.418 77.897 293.729 81.024 C 284.926 83.941 274.223 82.21 267.529 75.526 C 269.627 73.459 271.736 71.413 273.866 69.377 C 277.067 72.221 280.981 74.655 285.409 74.613 C 289.28 74.928 293.635 72.441 294.244 68.37 C 294.737 65.82 293.499 63.165 291.306 61.822 C 285.755 58.234 278.609 57.698 273.635 53.103 C 267.822 47.562 268.819 36.87 275.335 32.264 Z" style="fill: rgb(236, 234, 233);"/>
  <path opacity="1.00" d="M 89.121 24.633 C 99.196 24.85 109.474 23.903 119.378 26.197 C 128.881 28.604 137.552 36.441 138.806 46.48 C 140.244 54.467 139.08 63.377 133.775 69.79 C 128.551 76.498 120.176 80.319 111.757 80.684 C 104.215 81.015 96.663 80.947 89.121 81.129 C 89.11 62.305 89.11 43.469 89.121 24.633 M 98.899 33.235 C 98.887 46.196 98.887 59.156 98.899 72.117 C 106.36 71.934 114.574 72.824 121.157 68.568 C 130.101 62.761 130.695 49.345 125.413 40.891 C 119.423 32.471 108.003 33.509 98.899 33.235 Z" style="fill: rgb(236, 234, 233);"/>
  <path opacity="1.00" d="M 146.859 50.616 C 152.389 46.219 159.776 44.351 166.712 45.841 C 171.864 46.733 176.051 51.266 176.586 56.46 C 177.352 64.718 177.132 73.029 176.911 81.308 C 174.319 81.318 171.738 81.329 169.146 81.339 C 169.104 79.944 169.073 78.548 169.052 77.152 C 164.173 82.493 155.443 83.889 149.43 79.671 C 144.331 76.565 143.67 68.454 147.846 64.362 C 153.869 59.65 161.864 59.892 169.083 59.23 C 168.391 56.995 167.992 54.11 165.463 53.197 C 160.679 50.836 155.348 53.029 151.298 55.831 C 149.808 54.099 148.328 52.358 146.859 50.616 M 154.016 69.608 C 152.347 75.169 159.787 76.386 163.554 74.802 C 167.656 73.543 168.685 68.978 169.042 65.243 C 163.994 65.663 157.258 64.813 154.016 69.608 Z" style="fill: rgb(236, 234, 233);"/>
  <path opacity="1.00" d="M 195.463 51.749 C 198.107 47.552 202.787 44.698 207.876 45.296 C 207.845 47.909 207.803 50.532 207.771 53.155 C 205.379 53.312 202.913 53.291 200.625 54.099 C 197.803 55.757 195.862 58.958 195.935 62.273 C 195.767 68.622 195.862 74.98 195.757 81.329 C 192.861 81.329 189.975 81.329 187.089 81.318 C 187.089 69.587 187.089 57.866 187.11 46.135 C 189.902 46.135 192.703 46.135 195.494 46.146 C 195.494 48.013 195.484 49.881 195.463 51.749 Z" style="fill: rgb(236, 234, 233);"/>
  <path opacity="1.00" d="M 343.728 42.641 C 347.208 42.63 350.699 42.641 354.19 42.641 C 357.739 51.813 361.218 60.997 364.777 70.159 C 367.903 60.986 371.007 51.801 374.168 42.63 C 377.43 42.63 380.705 42.618 383.99 42.606 C 378.024 58.02 372.011 73.421 366.044 88.835 C 364.401 92.543 362.416 96.627 358.549 98.442 C 354.955 99.947 350.973 99.719 347.173 99.514 C 347.344 96.798 347.527 94.083 347.71 91.379 C 350.128 91.254 352.958 91.927 355.035 90.306 C 357.396 87.637 358.457 84.146 359.792 80.906 C 354.396 68.162 349.067 55.407 343.728 42.641 Z" style="fill: rgb(236, 234, 233);"/>
</svg>