<?xml version="1.0" encoding="utf-8"?>
<svg x="0" y="0" viewBox="0 0 32 16" xmlns="http://www.w3.org/2000/svg" xmlns:xlink="http://www.w3.org/1999/xlink">
  <symbol id="sun">
    <path class="sun-glow" fill="url(#sun-glow-grad)" d="M66.64,47.86,82,41,66.64,34.12l9.84-13.66L59.76,22.22,61.46,5.47l-13.6,9.89L41,0,34.12,15.36,20.46,5.52l1.76,16.72L5.47,20.54l9.89,13.6L0,41l15.36,6.83L5.52,61.54l16.72-1.76L20.54,76.53l13.6-9.89L41,82l6.83-15.36,13.66,9.84L59.78,59.76l16.75,1.69Z"/>
    <path class="sun-outer" fill="#ffd348" d="M19.28,53.5a25,25,0,1,0,9.15-34.16A25,25,0,0,0,19.28,53.5Z"/>
    <path class="sun-inner" fill="url(#sun-inner-grad)" d="M22.74,51.5a21,21,0,1,0,7.69-28.69A21,21,0,0,0,22.74,51.5Z"/>
  </symbol>
  <symbol id="sunWinter">
    <g mask="url(#sunWinterMask)">
      <use class="sun-primitive" width="100" height="100" transform="matrix(1, 0, 0, 1, 4, -40)" xlink:href="#sun"/>
    </g>
    <path fill="#333333" d="M88.29,2.7H1.71A1.56,1.56,0,0,1,0,1.35,1.56,1.56,0,0,1,1.71,0H88.29A1.56,1.56,0,0,1,90,1.35,1.56,1.56,0,0,1,88.29,2.7Z"/>
  </symbol>
  <defs>
    <mask id="sunWinterMask">
      <rect x="0" y="0" width="100" height="100" fill="white"/>
    </mask>
    <radialGradient id="sun-glow-grad" cx="41" cy="41" r="41" gradientUnits="userSpaceOnUse">
      <stop offset="0.54" stop-color="#d6b849"/>
      <stop offset="0.67" stop-color="#ffce47"/>
      <stop offset="1" stop-color="#ffdb73"/>
    </radialGradient>
    <linearGradient id="sun-inner-grad" x1="0%" y1="0%" x2="100%" y2="100%">
      <stop offset="0" stop-color="#ffaf22"/>
      <stop offset="1" stop-color="#f09900"/>
    </linearGradient>
  </defs>
  <symbol id="s01m">
    <use width="100" height="50" transform="matrix(1, 0, 0, 1, 5.426379203796387, 0)" xlink:href="#sunWinter"/>
  </symbol>
  <use width="100" height="50" style="" transform="matrix(0.325471, 0, 0, 0.325471, -0.436243, 1.332191)" xlink:href="#s01m"/>
</svg>