<?xml version="1.0" encoding="utf-8"?>
<svg version="1.1" id="Layer_1" x="0px" y="0px" viewBox="0 0 180 50" style="enable-background:new 0 0 180 50;" xmlns="http://www.w3.org/2000/svg">
  <style type="text/css">
	.st0{display:none;}
	.st1{display:inline;fill:#0055B8;}
	.st2{display:inline;}
	.st3{fill:#0055B8;}
</style>
  <g transform="matrix(1, 0, 0, 1, 4.616636, -7.44001)">
    <g transform="matrix(1, 0, 0, 1, -3.61886, -18.43615)">
      <path d="M1.5906084,52.8582687c0.0706967-0.4445496,0.4086032-0.8303871,1.0173142-1.1599045 c0.6063144-0.3283195,1.2090342-0.4924812,1.8057628-0.4924812c0.7405186,0,1.1383371,0.2755966,1.1946549,0.8267937 l2.1496606,17.2164536l4.3724141-11.0550537c0.3067522-0.762085,1.0245037-1.1431313,2.155652-1.1431313 c1.1107769,0,1.6991177,0.3810463,1.7638235,1.1431313l0.8711281,11.0550537l7.6028957-17.2164536 c0.2300644-0.5511971,0.7165527-0.8267937,1.4570713-0.8267937c0.5967293,0,1.1455269,0.1641617,1.6499901,0.4924812 c0.5020676,0.3295174,0.7189503,0.7153549,0.6482544,1.1599045c-0.0191727,0.1270142-0.0599136,0.2540283-0.1210232,0.3810463 l-9.274456,19.9808159c-0.4553337,0.9322357-1.4043484,1.3983612-2.8434467,1.3983612 c-0.6170988,0-1.1539145-0.1222229-1.6080513-0.3666687c-0.4553347-0.2420425-0.6997776-0.5859451-0.732131-1.0316925 l-0.6170979-8.5770721l-3.3622894,8.5770721c-0.1737471,0.4457474-0.5272303,0.78965-1.0592537,1.0316925 c-0.5320225,0.2444458-1.1071825,0.3666687-1.7242813,0.3666687c-0.6374688,0-1.1838708-0.1222229-1.6380076-0.3666687 c-0.4553351-0.2420425-0.7093639-0.5859451-0.7620869-1.0316925L1.5918065,53.239315 C1.5714363,53.1122971,1.5702381,52.9852829,1.5906084,52.8582687z" style="fill: rgb(87, 124, 224);"/>
      <path d="M25.8192215,68.2006607l0.4277763-2.6996536c0.2755966-1.7350693,1.1694908-3.2292862,2.6840668-4.4790611 c1.5134029-1.2497749,3.2077293-1.8740616,5.0793953-1.8740616c1.7482452,0,3.1549911,0.5703659,4.2190361,1.7075043 c1.0640488,1.13834,1.4606667,2.5690498,1.1874657,4.2921333c-0.099453,0.6290817-0.2600174,1.1479263-0.4792976,1.5565262 c-0.2180824,0.4097977-0.5008698,0.6985779-0.8459663,0.8651352c-0.3450966,0.1677551-0.6554413,0.273201-0.9298401,0.3151398 c-0.273201,0.0419388-0.6266861,0.0623093-1.0580559,0.0623093h-6.2632523l-0.075491,0.4769058 c-0.1437893,0.9118652,0.0671024,1.6475906,0.6374702,2.2071762c0.5691681,0.5619812,1.3983574,0.8423691,2.4887638,0.8423691 c0.7824593,0,1.5840874-0.2013092,2.410881-0.6027222c0.8243942-0.4026108,1.3492279-0.60392,1.5756989-0.60392 c0.4313698,0,0.7584915,0.2061005,0.982563,0.6183014c0.2216759,0.4133987,0.30196,0.8112183,0.2420464,1.1922607 c-0.0934639,0.593132-0.7057686,1.180275-1.8369179,1.7626266c-1.1311455,0.5835419-2.4671936,0.8747177-4.01054,0.8747177 c-2.2023849,0-3.9003048-0.5991211-5.0997524-1.7961731C25.955822,71.7223206,25.5112724,70.1502151,25.8192215,68.2006607z M30.2227917,65.5333557h4.504221c0.3295174,0,0.5691681-0.0539169,0.7201462-0.1629562 c0.1509819-0.1090469,0.2516327-0.3223267,0.30196-0.6386719c0.1090431-0.691391-0.0635071-1.2545662-0.5200386-1.690731 c-0.4541359-0.4349632-1.0628471-0.6530457-1.8237381-0.6530457c-0.7201462,0-1.3827782,0.2132874-1.9843006,0.6374702 c-0.6015224,0.4265747-0.9574032,0.9849625-1.0664425,1.6763535L30.2227917,65.5333557z" style="fill: rgb(87, 124, 224);"/>
      <path d="M42.1381874,70.3575134c0.2636147-1.6667633,1.0676422-2.8410492,2.4084816-3.5192642 c1.342041-0.6794052,3.1753654-1.0197067,5.4999695-1.0197067h1.2653503l0.0671043-0.4241791 c0.128212-0.8064117,0.017971-1.5085983-0.3295212-2.1077232c-0.3474922-0.5979271-0.9837608-0.8986893-1.9088097-0.8986893 c-0.9262466,0-1.7470512,0.1797371-2.4624062,0.5404129c-0.7141571,0.3594742-1.1239586,0.5404091-1.227005,0.5404091 c-0.4110031,0-0.7069702-0.2120895-0.8867073-0.6362686c-0.1797371-0.4229851-0.2288666-0.8903008-0.1485825-1.3971596 c0.0970573-0.6147041,0.7105637-1.1479263,1.8441086-1.6044579c1.1311455-0.4553337,2.2826653-0.6830025,3.4545517-0.6830025 c2.2419281,0,3.8152275,0.5871429,4.7199059,1.7626266c0.9046822,1.1754799,1.2150269,2.6529236,0.9334373,4.4311256 L54.135067,73.125473c-0.0563164,0.3594742-0.2911758,0.6662216-0.7009773,0.9214478 c-0.4109993,0.2540283-0.8938942,0.3810501-1.4498825,0.3810501c-0.5140495,0-0.9190559-0.1354065-1.215023-0.4074097 c-0.2959709-0.2720032-0.4133987-0.6003189-0.3534851-0.9849625l0.1557732-0.9849625 c-1.7003174,1.7758102-3.4030304,2.6637115-5.1117363,2.6637115c-1.1718864,0-2.0741692-0.3726578-2.7080421-1.1143723 C42.1190147,72.8582611,41.9141159,71.7774353,42.1381874,70.3575134z M46.2002563,69.8458557 c-0.0862732,0.5428085-0.0011978,0.9490204,0.2552261,1.2210236c0.2540283,0.2707977,0.6290817,0.4062042,1.1227608,0.4062042 c0.6578407,0,1.3432388-0.3019562,2.0550003-0.9034729c0.7129555-0.6027298,1.127552-1.265358,1.2413864-1.990303 l0.1006508-0.6326752h-0.4625244c-1.255764,0-2.2575035,0.1270142-3.0064087,0.377449 C46.7562447,68.5745163,46.3212776,69.0825729,46.2002563,69.8458557z" style="fill: rgb(87, 124, 224);"/>
      <path d="M57.9742584,69.3413925l2.410881-15.227356c0.0563164-0.3546829,0.3091469-0.6530457,0.7596893-0.895092 c0.4481468-0.2396507,0.9202576-0.3606758,1.4139366-0.3606758c0.53442,0,0.9849586,0.1174278,1.3480301,0.3510895 c0.3642693,0.2348557,0.5188408,0.5248337,0.463726,0.8711281l-0.8327866,5.2591171h3.6414795 c0.3079529,0,0.5284271,0.1605644,0.6638336,0.4828949c0.134201,0.319931,0.1665573,0.6997795,0.0982513,1.1359406 c-0.0694962,0.4361649-0.2228699,0.8160095-0.4589233,1.1383362c-0.2360611,0.3211327-0.5092621,0.4816971-0.8160095,0.4816971 h-3.6426811l-1.0484695,6.6239281c-0.0922661,0.5859451-0.0299568,0.9993362,0.1893234,1.2413864 c0.2192802,0.2420425,0.6470566,0.3618698,1.284523,0.3618698h1.2042427c0.5344162,0,0.9226532,0.1773453,1.1658936,0.5320206 c0.2408524,0.3546829,0.3235321,0.7752686,0.2468414,1.2629623c-0.0802841,0.5092545-0.2983627,0.9406204-0.6518478,1.2953033 c-0.3558807,0.3534851-0.8004303,0.5320282-1.3348465,0.5320282H62.875103 C59.0694618,74.4279709,57.436245,72.7324448,57.9742584,69.3413925z" style="fill: rgb(87, 124, 224);"/>
      <path d="M68.2648315,73.1266708l3.3718719-21.285717c0.0599136-0.3810425,0.2887802-0.6877937,0.6854019-0.9214516 c0.3966217-0.2312622,0.8938904-0.34869,1.4906235-0.34869c0.5559845,0,1.0089264,0.1174278,1.3636093,0.3498878 s0.5008698,0.5404091,0.4409561,0.9202538l-1.5433502,9.7417755c0.4157944-0.6830025,1.0017395-1.2593613,1.7554398-1.7302742 c0.7525024-0.4697151,1.5924759-0.7045708,2.5175247-0.7045708c1.4199219,0,2.5582581,0.6350708,3.4162064,1.906414 c0.8579483,1.2701454,1.1479263,2.7847328,0.8699341,4.5413666l-1.1934586,7.529808 c-0.0635071,0.4026108-0.313942,0.7201462-0.7513046,0.9526062c-0.4385605,0.2336578-0.9250488,0.3498917-1.459465,0.3498917 c-0.5152512,0-0.9526138-0.1162338-1.3180771-0.3486938c-0.3642654-0.23246-0.5140533-0.5487976-0.4505463-0.9514084 l1.1886673-7.5082397c0.1138306-0.7165527-0.0503235-1.371994-0.4912796-1.9627304 c-0.4409561-0.5919342-1.02211-0.8879051-1.7422562-0.8879051c-0.678215,0-1.3108902,0.2636185-1.8980331,0.7932434 c-0.5883408,0.5272331-0.9490128,1.2138252-1.0832138,2.0573921l-1.1886673,7.5082397 c-0.0503235,0.3175354-0.2971649,0.6135025-0.7417145,0.8879013s-0.9358368,0.4122009-1.470253,0.4122009 c-0.5547867,0-1.0017395-0.1330109-1.3396454-0.3966217C68.3546982,73.7665329,68.2121048,73.4657745,68.2648315,73.1266708z" style="fill: rgb(87, 124, 224);"/>
      <path d="M84.7491531,68.2006607l0.4277802-2.6996536c0.2755966-1.7350693,1.169487-3.2292862,2.6840744-4.4790611 c1.5133896-1.2497749,3.2077179-1.8740616,5.0793839-1.8740616c1.7482452,0,3.1549911,0.5703659,4.2190399,1.7075043 c1.0640411,1.13834,1.4606628,2.5690498,1.1874619,4.2921333c-0.0994492,0.6290817-0.2600174,1.1479263-0.4793015,1.5565262 c-0.2180786,0.4097977-0.5008621,0.6985779-0.8459625,0.8651352c-0.3450928,0.1677551-0.6554413,0.273201-0.9298401,0.3151398 c-0.273201,0.0419388-0.6266861,0.0623093-1.0580521,0.0623093h-6.2632523l-0.0754929,0.4769058 c-0.1437912,0.9118652,0.0671005,1.6475906,0.6374664,2.2071762c0.5691681,0.5619812,1.3983612,0.8423691,2.4887695,0.8423691 c0.7824554,0,1.5840836-0.2013092,2.4108734-0.6027222c0.8244019-0.4026108,1.3492355-0.60392,1.5756989-0.60392 c0.4313736,0,0.7584991,0.2061005,0.9825668,0.6183014c0.2216797,0.4133987,0.3019638,0.8112183,0.2420502,1.1922607 c-0.0934677,0.593132-0.7057724,1.180275-1.8369217,1.7626266c-1.1311493,0.5835419-2.4671936,0.8747177-4.0105438,0.8747177 c-2.2023773,0-3.9002991-0.5991211-5.0997467-1.7961731C84.8857574,71.7223206,84.4412079,70.1502151,84.7491531,68.2006607z M89.1527252,65.5333557h4.5042191c0.3295212,0,0.5691681-0.0539169,0.7201462-0.1629562 c0.1509857-0.1090469,0.2516327-0.3223267,0.3019638-0.6386719c0.1090393-0.691391-0.0635071-1.2545662-0.5200424-1.690731 c-0.4541397-0.4349632-1.062851-0.6530457-1.8237381-0.6530457c-0.7201462,0-1.382782,0.2132874-1.9842987,0.6374702 c-0.6015244,0.4265747-0.9574051,0.9849625-1.0664444,1.6763535L89.1527252,65.5333557z" style="fill: rgb(87, 124, 224);"/>
      <path d="M100.7230225,73.125473l1.9831085-12.516922c0.0599136-0.3810425,0.289978-0.6877975,0.6865921-0.9202576 c0.3954239-0.2336578,0.88311-0.34869,1.4594574-0.34869c0.514061,0,0.9214706,0.11623,1.2234268,0.3522873 c0.303154,0.2336578,0.4229813,0.5440025,0.3618698,0.9286423l-0.2072983,1.3156776 c0.4469528-0.7477074,1.0640488-1.3995552,1.8525009-1.9543457c0.7860489-0.5559883,1.5816879-0.8339806,2.383316-0.8339806 h0.9574051c0.3702545,0,0.674614,0.1821327,0.9166565,0.5452042c0.2396545,0.3630676,0.3235321,0.7800598,0.2492371,1.2497749 c-0.0778885,0.4912796-0.2959671,0.9178581-0.65065,1.2821274c-0.3570786,0.3630676-0.7189484,0.5440025-1.0892105,0.5440025 h-0.9573975c-0.9454193,0-1.841713,0.4325714-2.6876755,1.2989082c-0.8483658,0.866333-1.3815842,1.9962845-1.6020584,3.3898468 l-0.8986893,5.6701202c-0.0503311,0.3175354-0.3031616,0.6135025-0.7572937,0.8879013 c-0.4553375,0.2743988-0.9502106,0.4122009-1.4846344,0.4122009c-0.5559845,0-0.9969406-0.1330109-1.325264-0.3978195 C100.8080978,73.7653351,100.6703033,73.4645767,100.7230225,73.125473z" style="fill: rgb(87, 124, 224);"/>
      <path d="M113.2207718,73.125473l3.2652283-20.6158943c0.0647049-0.4026108,0.2887802-0.7201462,0.6770172-0.9538078 c0.3846359-0.23246,0.8160019-0.3498878,1.2893143-0.3498878h10.7674713c0.4122009,0,0.6925964,0.1749458,0.8423767,0.5248337 c0.1497803,0.34869,0.1869202,0.7680779,0.1090393,1.2545662c-0.0802917,0.5080605-0.256424,0.9430237-0.5296326,1.3024979 c-0.2720032,0.359478-0.6051178,0.5392151-0.9957428,0.5392151h-8.5159607l-1.0065308,6.3531189h4.7211075 c0.390625,0,0.6698151,0.1593666,0.8351746,0.4769058c0.1653595,0.3175354,0.2108917,0.7105598,0.1378021,1.1754837 c-0.0671005,0.4241791-0.2336578,0.7944374-0.4996719,1.1119728c-0.2660141,0.3175392-0.5955276,0.476902-0.9861603,0.476902 h-4.7211075l-1.3791809,8.7040939c-0.0635071,0.4026108-0.313942,0.7201462-0.7513046,0.9526062 c-0.4373627,0.2336578-0.9250488,0.3498917-1.459465,0.3498917c-0.5559921,0-1.0101242-0.1162338-1.3636093-0.3498917 C113.3022537,73.8456192,113.1572647,73.5280838,113.2207718,73.125473z" style="fill: rgb(87, 124, 224);"/>
      <path d="M129.171875,73.125473l3.3766632-21.3156738c0.0599213-0.3810425,0.2887878-0.6877937,0.6865997-0.9214516 c0.3954315-0.23246,0.8927002-0.34869,1.4894257-0.34869c0.5559845,0,1.0089264,0.11623,1.3648071,0.34869 c0.3534851,0.2336578,0.4996643,0.5404091,0.4397583,0.9214516l-3.3766632,21.3156738 c-0.0503235,0.3175354-0.2971649,0.6147003-0.7417145,0.8890991c-0.4445496,0.2755966-0.9358368,0.4133987-1.4702606,0.4133987 c-0.5547943,0-1.0017395-0.1330109-1.3396454-0.3978195C129.2617493,73.7653351,129.1191559,73.4645767,129.171875,73.125473z" style="fill: rgb(87, 124, 224);"/>
      <path d="M137.7896881,68.2006607l0.4133911-2.6049957c0.2743988-1.7350655,1.1707001-3.2448578,2.6912689-4.5257874 c1.5181885-1.2809296,3.1945343-1.9219933,5.0254669-1.9219933c1.7889862,0,3.2520447,0.6350708,4.3879852,1.906414 c1.1347504,1.2701454,1.5637207,2.7847328,1.2857208,4.5413666l-0.4133911,2.6049957 c-0.2720032,1.7170944-1.1802673,3.230484-2.7236176,4.5425644c-1.5457458,1.3132858-3.2137146,1.9711227-5.0014954,1.9711227 c-1.7901917,0-3.2508545-0.6578369-4.3784027-1.9711227C137.9466553,71.4311447,137.5188904,69.9177551,137.7896881,68.2006607z M141.7726746,68.1910782c-0.1198273,0.7572937,0.040741,1.4307098,0.4816895,2.0178528 c0.4409637,0.5883408,1.0328979,0.88311,1.773407,0.88311c0.7189636,0,1.3983612-0.2947693,2.0370331-0.88311 c0.6386719-0.5871429,1.0185089-1.2605591,1.1383362-2.0178528l0.4085999-2.5846252 c0.1138306-0.7141571-0.0563202-1.3648071-0.5080566-1.9543457c-0.4529419-0.5883408-1.0388794-0.8831139-1.7578278-0.8831139 c-0.7405243,0-1.4247284,0.289978-2.0502014,0.8675346c-0.6266937,0.5775528-0.9981537,1.2341995-1.1143799,1.9699249 L141.7726746,68.1910782z" style="fill: rgb(87, 124, 224);"/>
      <path d="M153.7923126,60.8637772c0.074295-0.4661179,0.4241791-0.8627396,1.0532684-1.1922569 c0.6278839-0.3271217,1.2294006-0.4924812,1.8057556-0.4924812c0.5967407,0,0.9406281,0.2228737,1.0364838,0.6674232 l1.6559906,9.0216255l3.5563965-7.8461418c0.2516327-0.5499954,0.7477112-0.825592,1.4882355-0.825592 c0.7404938,0,1.1503143,0.2755966,1.227005,0.825592l1.0364838,7.8784904l4.5497589-9.0539742 c0.2348633-0.4445496,0.65065-0.6674232,1.2473755-0.6674232c0.5559845,0,1.092804,0.1701508,1.6164398,0.5092545 c0.5224457,0.3379059,0.7465057,0.7405205,0.672226,1.2066383c-0.0371552,0.2336578-0.1078491,0.4241791-0.2144928,0.5715675 l-6.7425537,12.5804214c-0.2636108,0.486496-0.825592,0.7297363-1.6895294,0.7297363 c-0.9058838,0-1.412735-0.2432404-1.5193787-0.7297363l-1.2797394-6.9246826l-3.4365692,6.892334 c-0.2648163,0.5092545-0.8723297,0.762085-1.817749,0.762085c-0.8435669,0-1.3168793-0.2528305-1.4223328-0.762085 l-2.7643585-12.5480728C153.7815399,61.2556038,153.7623596,61.0542984,153.7923126,60.8637772z" style="fill: rgb(87, 124, 224);"/>
    </g>
    <g transform="matrix(1, 0, 0, 1, -9.827664, -9.270469)">
      <path d="M99.939537,25.6252918c-2.1055984-0.0737305-3.3332443,1.0508442-3.6160126,2.1417999 c-0.2830429,1.0910835,0.5858841,0.6865902,0.5858841,0.6865902c3.0097809-1.2120361,3.3535309,1.6365414,3.3535309,1.6365414 c0.7271957,6.3636189-14.6058731,13.3938732-14.6058731,13.3938732v0.0805931 c4.4444885-0.3231277,12.1411591-3.1511421,15.7975006-6.1210861c3.3609543-2.7302399,4.3231354-5.6762295,3.4546356-8.3833485 C104.1808395,26.790596,102.2427826,25.7070923,99.939537,25.6252918" style="fill: rgb(33, 71, 176);"/>
      <path d="M102.6235962,21.6295376c-0.7000351-2.1817303-2.5641479-3.2242336-4.7783585-3.302269 c-2.0249939-0.0714855-3.2049637,1.0099564-3.4772263,2.0588894c-0.2719955,1.0490284,0.5635605,0.6610355,0.5635605,0.6610355 c2.8942413-1.1660728,3.224144,1.5731583,3.224144,1.5731583c0.6994476,6.1186543-14.0438232,12.8782673-14.0438232,12.8782673 v0.0773354c4.2733154-0.3106956,11.6742935-3.0298805,15.1902542-5.8856354 C102.5336456,27.0659142,103.458786,24.2326946,102.6235962,21.6295376" style="fill: rgb(33, 71, 176);"/>
    </g>
    <g>
      <g class="st0">
        <polygon class="st1" points="-95.7227402,-12.956316 -93.7139969,-13.0119972 -93.4182129,-15.0101805 -95.4254456,-14.9552689 &#10;&#9;&#9;&#9;&#9;&#9;&#9;&#9;"/>
        <polygon class="st1" points="-98.035553,-13.0910311 -96.4286804,-13.1354218 -96.1916199,-14.7347383 -97.7977219,-14.6910801 &#10;&#9;&#9;&#9;&#9;&#9;&#9;&#9;"/>
        <polygon class="st1" points="-99.8824463,-13.1993885 -98.5969925,-13.2347631 -98.4080963,-14.5149794 -99.6927872,-14.4796047 &#10;&#9;&#9;&#9;&#9;&#9;&#9;&#9;"/>
        <polygon class="st1" points="-101.7677689,-13.2754164 -100.738945,-13.3040085 -100.5869293,-14.3268175 &#10;&#9;&#9;&#9;&#9;-101.614975,-14.2982254 &#9;&#9;&#9;"/>
        <polygon class="st1" points="-103.6809387,-13.3235836 -102.8583145,-13.3461647 -102.7378998,-14.1650133 &#10;&#9;&#9;&#9;&#9;-103.559021,-14.1424322 &#9;&#9;&#9;"/>
        <polygon class="st1" points="-105.6181641,-13.3506737 -104.9603882,-13.3687458 -104.8632813,-14.0250187 &#10;&#9;&#9;&#9;&#9;-105.5203247,-14.0069466 &#9;&#9;&#9;"/>
        <polygon class="st1" points="-107.5749588,-13.3627348 -107.0481262,-13.3770304 -106.9713669,-13.9008236 &#10;&#9;&#9;&#9;&#9;-107.4966965,-13.886528 &#9;&#9;&#9;"/>
        <polygon class="st1" points="-109.5460892,-13.3596897 -109.1253815,-13.3709803 -109.0636444,-13.7909632 &#10;&#9;&#9;&#9;&#9;-109.4843597,-13.7789021 &#9;&#9;&#9;"/>
        <polygon class="st1" points="-45.6826668,-12.9894171 -43.6731949,-13.0450983 -43.3781776,-15.0433197 -45.3854141,-14.9883699 &#10;&#9;&#9;&#9;&#9;&#9;&#9;&#9;"/>
        <polygon class="st1" points="-47.9939766,-13.1241312 -46.3878784,-13.168561 -46.1508179,-14.7678394 -47.7576485,-14.7242193 &#10;&#9;&#9;&#9;&#9;&#9;&#9;&#9;"/>
        <polygon class="st1" points="-49.8431473,-13.2325277 -48.5569229,-13.2679024 -48.3672562,-14.5480795 -49.6519814,-14.5127058 &#10;&#9;&#9;&#9;&#9;&#9;&#9;&#9;"/>
        <polygon class="st1" points="-51.7276955,-13.3085165 -50.6988754,-13.3371477 -50.5468559,-14.3599186 -51.5749474,-14.3313255 &#10;&#9;&#9;&#9;&#9;&#9;&#9;&#9;"/>
        <polygon class="st1" points="-53.6408691,-13.3566847 -52.8175125,-13.3792658 -52.697094,-14.1981134 -53.5189476,-14.1755333 &#10;&#9;&#9;&#9;&#9;&#9;&#9;&#9;"/>
        <polygon class="st1" points="-55.5780945,-13.3837738 -54.9195442,-13.4018469 -54.8224792,-14.0581198 -55.4795227,-14.0400858 &#10;&#9;&#9;&#9;&#9;&#9;&#9;&#9;"/>
        <polygon class="st1" points="-57.5333862,-13.3958349 -57.008091,-13.4101315 -56.9320641,-13.9339628 -57.4566269,-13.9196672 &#10;&#9;&#9;&#9;&#9;&#9;&#9;&#9;"/>
        <polygon class="st1" points="-59.506752,-13.3928299 -59.0853081,-13.4041195 -59.0228424,-13.8240643 -59.4435577,-13.8120413 &#10;&#9;&#9;&#9;&#9;&#9;&#9;&#9;"/>
        <path class="st1" d="M-85.6241226-4.487112c0-0.9843907-0.4094238-1.4502673-1.3945847-1.4502673 c-1.1763687,0-1.8875885,0.8210835-2.1878891,2.435467l-1.1492386,7.5939026h-3.7194214l2.6251373-16.0187149 c0.0278168-0.109129,0.0278168-0.2190275,0.0278168-0.3281565c0-0.5200548-0.300293-0.8203506-0.8752594-0.8203506 c-0.136261,0-0.2732086,0.0270891-0.4380569,0.0549488l0.3289261-1.9966793 c0.7390442-0.1911678,1.3953171-0.3010664,1.9688187-0.3010664c1.8047791,0,2.789978,0.9023905,2.789978,2.5980415 c0,0.3288879-0.0549469,0.6562738-0.1098938,1.012289l-0.7375793,4.1589408h0.0542145 c0.7932587-0.9317145,1.9425049-1.4510379,3.1737823-1.4510379c2.1600266,0,3.4447479,1.3125849,3.4447479,3.6645103 c0,0.4380164-0.0271301,0.9573007-0.1362534,1.5315738l-1.148468,7.8957014h-3.7472839l1.148468-7.6767125 C-85.6512146-3.9399288-85.6241226-4.2402248-85.6241226-4.487112z"/>
        <path class="st1" d="M-44.0382271,4.0588899l2.5988121-16.0187149c0.0278206-0.109129,0.0278206-0.218257,0.0278206-0.3281555 c0-0.5200558-0.3010254-0.819581-0.9023895-0.819581c-0.1362152,0-0.2731667,0.0263186-0.438015,0.0541792l0.3552437-1.9967184 c0.7383118-0.1911678,1.3953552-0.3010283,1.9703636-0.3010283c1.8047791,0,2.7613487,0.9023905,2.7613487,2.5716848 c0,0.3273849-0.0541801,0.6555414-0.1091309,1.0386076l-2.5430908,15.7997265H-44.0382271z"/>
        <path class="st1" d="M-147.3459473-12.2661715h3.6118317c0.7819824,8.8726168,0.8203583,10.0015488,0.8444366,11.8522615 h0.045166c0.5403595-1.6934168,1.0288239-3.3409011,3.986618-11.8522615h3.5892181 c0.5986938,8.8944654,0.6318359,9.7524261,0.6860199,11.8522615h0.0458984 c0.4952393-1.5353503,0.9701233-2.9344828,4.3704529-11.8522615h3.4311829l-6.9248352,16.2083797h-3.2509308 c-0.5110321-7.946104-0.574234-9.5258846-0.6615448-12.6417084h-0.045166 c-0.9512939,3.1158237-1.3930817,4.2899175-4.3501434,12.6417084h-3.1602173L-147.3459473-12.2661715z"/>
        <path class="st1" d="M-124.733902-3.2106721c0.4124298-1.5797417,1.3404083-2.5280259,2.8305969-2.5280259 c1.0152588,0,2.1712799,0.5862956,2.0689316,2.5280259H-124.733902z M-120.5064468,0.4689046 c-0.3748169,0.8579603-1.3426743,1.3103114-2.223259,1.3103114c-2.5513382,0-2.4346924-2.0335953-2.3933105-2.9359856h8.2404251 l0.0805359-0.5637145c0.8015137-5.4858212-2.3068008-6.6154852-4.678299-6.6154852 c-5.2592773,0-6.4310989,4.628593-6.6425705,6.0728488c-0.7210083,4.944726,1.6384277,6.5703616,5.0244522,6.5703616 c2.0546341,0,4.585701-0.9482839,5.843338-3.8383369H-120.5064468z"/>
        <path class="st1" d="M-107.5170059-0.3213515c-0.2137451,1.4683394-1.7671738,2.3707297-3.1677704,2.3707297 c-0.6088715,0-1.4171982-0.3386756-1.2561264-1.4457586c0.1911621-1.3095793,1.2049179-1.6015902,2.408371-1.8047802 c1.3389053-0.2032285,1.8883286-0.4056478,2.2405243-0.6547704L-107.5170059-0.3213515z M-103.7614365-4.8581181 c0.4312286-2.9570637-2.5852509-3.4778509-4.2786713-3.4778509c-2.4610519,0-5.0884171,0.5207872-5.9862976,4.198823h3.0480804 c0.1919403-0.6991615,0.6051407-1.6700268,2.1848755-1.6700268c0.8128052,0,2.0674286,0.0684748,1.8724899,1.3998647 c-0.0978394,0.6765804-0.7375412,0.8805411-1.2433014,0.947552l-2.9073563,0.4297316 c-2.0523987,0.2927816-3.717186,1.4901882-4.059639,3.8376048c-0.3612518,2.4828637,1.3411789,3.4996612,3.1466904,3.4996612 c2.1449585,0,3.3062592-0.9949486,4.1371307-1.7393107c-0.031601,0.6773899-0.0127945,0.8579988,0.0858154,1.4217134h3.4086075 l0.0692444-0.4733906c-0.363533-0.1354856-0.6336899-0.4515805-0.4267273-1.8732938L-103.7614365-4.8581181z"/>
        <path class="st1" d="M-96.9344406-8.0191422h1.9643097l-0.3296585,2.2578635h-1.9643097l-0.9520645,6.5236969 c-0.1016083,0.7007029-0.1189117,0.9708651,1.168045,0.9708651c0.2032318,0,0.4327774-0.022581,0.6615524-0.045894 l-0.348465,2.3933105c-0.5012054,0.0225811-1.0009537,0.0444298-1.4976959,0.0444298h-0.4056473 c-2.7320251,0-3.077446-1.0378757-2.850174-2.5950363l1.0641937-7.2913723h-1.6264038l0.3311615-2.2578635h1.6241302 l0.4749298-3.2513094h3.1609879L-96.9344406-8.0191422z"/>
        <path class="st1" d="M-76.8154755-3.243773c0.4116974-1.5797415,1.3404083-2.5280256,2.8290939-2.5280256 c1.0175323,0,2.172821,0.586257,2.0712051,2.5280256H-76.8154755z M-72.5880203,0.4357653 c-0.3740463,0.8579989-1.3434143,1.3103116-2.2239914,1.3103116c-2.5491028,0-2.43396-2.0335569-2.3925781-2.9359469h8.2396545 l0.0813065-0.5637145c0.8015518-5.4858217-2.3075333-6.6155233-4.6775284-6.6155233 c-5.2607803,0-6.4326401,4.628593-6.6433487,6.0728874c-0.7210083,4.9446878,1.6377029,6.5703621,5.0244598,6.5703621 c2.0554047,0,4.5864716-0.9483225,5.8425674-3.8383756H-72.5880203z"/>
        <path class="st1" d="M-65.384697-8.0515108h3.0247688l-0.3040733,2.0764837h0.0458946 c0.8316422-1.2199874,1.7265167-2.3940811,3.6449356-2.3940811c0.2024574,0,0.4026413,0.0240841,0.6028633,0.0459328 l-0.4673805,3.2053766c-0.2649193-0.0451617-0.6020927-0.0451617-0.89711-0.0451617 c-2.4603195,0-3.1361694,1.5346179-3.3296089,2.8667395l-0.9129105,6.2527647h-3.1609879L-65.384697-8.0515108z"/>
        <path class="st1" d="M-54.4476585,3.9565434h-3.3860245l2.4143906-15.4557724h11.5361252l-0.4192123,2.8667011h-8.1493301 l-0.5336189,3.6577282h7.1340752l-0.4177094,2.86674h-7.1340752L-54.4476585,3.9565434z"/>
        <path class="st1" d="M-28.0548477-2.0139976c-0.2228031,1.5353501-0.9859314,3.6569571-3.4229393,3.6569571 c-2.4377022,0-2.5807037-2.1216071-2.3571663-3.6569571c0.2249985-1.5353503,0.9858932-3.6577282,3.4244041-3.6577282 C-27.9720764-5.6717257-27.8313503-3.5493479-28.0548477-2.0139976z M-24.8050785-2.0139976 c0.6337299-4.3350792-1.9883957-6.3219714-5.2178955-6.3219714c-3.2272243,0-6.4295979,1.9868922-7.0632877,6.3219714 c-0.6314583,4.3328443,1.9913979,6.321239,5.2193966,6.321239C-28.6374054,4.3072414-25.4372692,2.3188467-24.8050785-2.0139976z "/>
        <path class="st1" d="M-11.4077072,3.9896441h-3.2505503l-0.5953131-8.7589798h-0.0444298l-3.151968,8.7589798h-3.2513103 l-1.6346912-12.0087862h3.3649864l0.6156197,8.6227617h0.0436592l2.9532871-8.6227617h3.1820555l0.5479078,8.6227617h0.0451584 l3.1323929-8.6227617h3.2505584L-11.4077072,3.9896441z"/>
        <g class="st2">
          <path class="st3" d="M-146.4922943,7.2057719h1.7483673c1.2696533,0,1.5750427,0.6175079,1.4709625,1.4224458 c-0.0487213,0.4440279-0.3330231,0.846323-0.7494202,1.0337143c0.4856415,0.1456194,0.7076416,0.6242895,0.638443,1.2211437 c-0.1110229,0.8602333-0.6105804,1.5262947-1.9566498,1.5262947h-1.7901001L-146.4922943,7.2057719z M-146.2702637,11.6947565 h1.0406952c0.7285156,0,0.9575195-0.402257,1.0130157-0.8327589c0.0624695-0.5340052-0.145813-0.8256311-0.8049316-0.8256311 h-1.0476379L-146.2702637,11.6947565z M-144.8133698,7.9203858h-0.9921417l-0.1804504,1.4570489h1.0200043 c0.6244812,0,0.8186493-0.3815641,0.8604126-0.7146139C-144.0639648,8.3158607-144.1333923,7.9203858-144.8133698,7.9203858z"/>
          <path class="st3" d="M-142.0949097,10.9594498c-0.0485535,0.5200558,0.0972595,0.8602343,0.8049011,0.8602343 c0.437088,0,0.8047485-0.076375,1.1308136-0.2080841l-0.0831451,0.6660604 c-0.416214,0.1663132-0.8741913,0.2148657-1.2489777,0.2148657c-1.1586761,0-1.491684-0.6935349-1.3528442-1.8175735 c0.1386871-1.1172552,0.6314545-1.8179588,1.7761841-1.8179588c1.0198059,0,1.3528137,0.4786701,1.2766266,1.0755243 c-0.0694275,0.5964298-0.5134583,1.0269318-1.5332642,1.0269318H-142.0949097z M-141.2693176,10.4179306 c0.4094238,0,0.6800079-0.1317091,0.7217865-0.4440269c0.0345917-0.3119717-0.2082825-0.444067-0.6175079-0.444067 c-0.5690002,0-0.77034,0.3680391-0.8604736,0.8880939H-141.2693176z"/>
          <path class="st3" d="M-135.1439514,12.4439735c-0.1249237,0.0278606-0.3190918,0.0485525-0.4370422,0.0485525 c-0.7701416,0-1.1795654-0.3330107-1.089447-1.0822668l0.2220459-1.810791h-1.5123901l-0.2082825,1.7204676 c-0.0416107,0.3469601,0.1109772,0.5136585,0.5065002,0.5136585c0.1179962,0,0.2220306-0.0139103,0.3053741-0.0278215 l-0.0764008,0.6382008c-0.124939,0.0278606-0.3191071,0.0485525-0.4370575,0.0485525 c-0.7701416,0-1.1795654-0.3330107-1.0892487-1.0822668l0.2220306-1.810791h-0.6314545l0.0624695-0.4786701l0.6521454-0.1806087 l0.1040497-0.8256302l0.7979584-0.2220335l-0.1249237,1.0476637h1.5125732l0.1040344-0.8256302l0.7979736-0.2220335 l-0.1249237,1.0476637h0.9782257l-0.0832062,0.6592789h-0.9783783l-0.2081146,1.7204676 c-0.0415802,0.3469601,0.1110077,0.5136585,0.5065308,0.5136585c0.117981,0,0.2220306-0.0139103,0.305191-0.0278215 L-135.1439514,12.4439735z"/>
          <path class="st3" d="M-133.6330719,10.9594498c-0.0485077,0.5200558,0.0973053,0.8602343,0.8049469,0.8602343 c0.437088,0,0.8047485-0.076375,1.131012-0.2080841l-0.0833435,0.6660604 c-0.4164124,0.1663132-0.8741913,0.2148657-1.2488251,0.2148657c-1.1588287,0-1.4918365-0.6935349-1.3529968-1.8175735 c0.1386871-1.1172552,0.6312561-1.8179588,1.7761841-1.8179588c1.0199585,0,1.3530121,0.4786701,1.2766266,1.0755243 c-0.0694275,0.5964298-0.513504,1.0269318-1.5334625,1.0269318H-133.6330719z M-132.8072357,10.4179306 c0.4092255,0,0.6798096-0.1317091,0.7213898-0.4440269c0.03479-0.3119717-0.2081299-0.444067-0.6173553-0.444067 c-0.5689545,0-0.7700958,0.3680391-0.8604279,0.8880939H-132.8072357z"/>
          <path class="st3" d="M-128.5622864,9.5648642c-0.0833588-0.0278597-0.2150726-0.0417709-0.3746338-0.0417709 c-0.4094238,0-0.7285309,0.0970678-0.9159241,0.2080841l-0.3260651,2.6781931h-0.7770844l0.4231415-3.4691811h0.4579773 l0.0901337,0.2777147c0.2845001-0.2081223,0.6869507-0.3609104,1.1379547-0.3609104 c0.1456604,0,0.2705841,0.0207319,0.3676453,0.0417709L-128.5622864,9.5648642z"/>
          <path class="st3" d="M-126.9885635,12.4093704l0.6383896-5.2035985h1.547226 c1.7276306,0,2.0676193,1.1240382,1.8871613,2.6017795c-0.1873932,1.4777803-0.7979584,2.601819-2.5255966,2.601819 H-126.9885635z M-126.1281357,11.6947565h0.7908325c1.0408401,0,1.4709625-0.7563848,1.609642-1.8872051 c0.1388779-1.1307812-0.1040421-1.8871655-1.1447296-1.8871655h-0.7909851L-126.1281357,11.6947565z"/>
          <path class="st3" d="M-119.5244827,12.4093704h-0.4579773l-0.0970688-0.2777147 c-0.333046,0.2220325-0.7008896,0.3608704-1.1656113,0.3608704c-1.0130234,0-1.3044968-0.6799707-1.1656189-1.8175735 c0.138649-1.137948,0.5966263-1.8179588,1.609642-1.8179588c0.4647598,0,0.8047485,0.1388769,1.0822678,0.3609104 l0.1595688-0.2777147h0.4579773L-119.5244827,12.4093704z M-119.9754868,9.7172661 c-0.131897-0.0764122-0.3538971-0.2009544-0.72155-0.2009544c-0.6800079,0-0.8465118,0.5132732-0.9296722,1.1586409 c-0.0764084,0.6449833-0.0348358,1.1586418,0.6451797,1.1586418c0.3678436,0,0.6244812-0.1249275,0.7701035-0.2013016 L-119.9754868,9.7172661z"/>
          <path class="st3" d="M-116.7781601,12.4439735c-0.1249313,0.0278606-0.3191376,0.0485525-0.4370956,0.0485525 c-0.7700958,0-1.1795273-0.3330107-1.089241-1.0822668l0.2220383-1.810791h-0.6314621l0.0624695-0.4786701l0.6521454-0.1806087 l0.1040421-0.8256302l0.797966-0.2220335l-0.1249313,1.0476637h0.9782257l-0.0831528,0.6592789h-0.9782257l-0.2082748,1.7204676 c-0.0415802,0.3469601,0.1110153,0.5136585,0.506485,0.5136585c0.1179962,0,0.2220383-0.0139103,0.3053818-0.0278215 L-116.7781601,12.4439735z"/>
          <path class="st3" d="M-113.1294861,12.4093704h-0.4579773l-0.0970688-0.2777147 c-0.3330536,0.2220325-0.7008972,0.3608704-1.1656189,0.3608704c-1.0130157,0-1.3044891-0.6799707-1.1656113-1.8175735 c0.1386795-1.137948,0.5966187-1.8179588,1.609642-1.8179588c0.4647598,0,0.8047409,0.1388769,1.0822678,0.3609104 l0.1595688-0.2777147h0.4579773L-113.1294861,12.4093704z M-113.5804901,9.7172661 c-0.1319046-0.0764122-0.3538971-0.2009544-0.72155-0.2009544c-0.6800079,0-0.8465195,0.5132732-0.9296722,1.1586409 c-0.076416,0.6449833-0.0348358,1.1586418,0.6451721,1.1586418c0.3678513,0,0.6244888-0.1249275,0.7701035-0.2013016 L-113.5804901,9.7172661z"/>
          <path class="st3" d="M-111.9373245,11.4795055c0.2775269,0,0.5064926,0.2291613,0.5064926,0.5065298 c0,0.2777147-0.2289658,0.5064907-0.5064926,0.5064907c-0.2775192,0-0.5065308-0.228776-0.5065308-0.5064907 C-112.4438553,11.7086668-112.2148438,11.4795055-111.9373245,11.4795055z"/>
          <path class="st3" d="M-108.7742538,7.2057719h1.7483292c1.2696533,0,1.5750351,0.6175079,1.470993,1.4224458 c-0.0485535,0.4440279-0.333046,0.846323-0.7494431,1.0337143c0.4856415,0.1456194,0.7076721,0.6242895,0.6384277,1.2211437 c-0.1110153,0.8602333-0.6105728,1.5262947-1.9566422,1.5262947h-1.7901001L-108.7742538,7.2057719z M-108.5522614,11.6947565 h1.0406876c0.7285233,0,0.9575348-0.402257,1.0130234-0.8327589c0.0623093-0.5340052-0.145813-0.8256311-0.8049011-0.8256311 h-1.0476608L-108.5522614,11.6947565z M-107.0953674,7.9203858h-0.9921341l-0.1802597,1.4570489h1.0197983 c0.6244812,0,0.8186569-0.3815641,0.8604279-0.7146139C-106.3459549,8.3158607-106.4153595,7.9203858-107.0953674,7.9203858z"/>
          <path class="st3" d="M-104.3769073,10.9594498c-0.0485535,0.5200558,0.0972595,0.8602343,0.8049393,0.8602343 c0.4370499,0,0.8047028-0.076375,1.1309738-0.2080841l-0.0833511,0.6660604 c-0.4163971,0.1663132-0.8741455,0.2148657-1.2487717,0.2148657c-1.1588364,0-1.4918823-0.6935349-1.3530045-1.8175735 c0.1386414-1.1172552,0.6312256-1.8179588,1.7761459-1.8179588c1.0199966,0,1.3530502,0.4786701,1.2766342,1.0755243 c-0.0694351,0.5964298-0.5134659,1.0269318-1.5334625,1.0269318H-104.3769073z M-103.5510788,10.4179306 c0.4092255,0,0.6797791-0.1317091,0.7213516-0.4440269c0.0348358-0.3119717-0.2080841-0.444067-0.6173172-0.444067 c-0.5689926,0-0.770134,0.3680391-0.8604202,0.8880939H-103.5510788z"/>
          <path class="st3" d="M-97.4259033,12.4439735c-0.1249695,0.0278606-0.3191376,0.0485525-0.4370956,0.0485525 c-0.7701035,0-1.1795273-0.3330107-1.0894318-1.0822668l0.2220306-1.810791h-1.5123825l-0.2082748,1.7204676 c-0.0415802,0.3469601,0.1110153,0.5136585,0.5064926,0.5136585c0.1179886,0,0.2220306-0.0139103,0.3053818-0.0278215 l-0.0763779,0.6382008c-0.1249237,0.0278606-0.3191376,0.0485525-0.437088,0.0485525 c-0.7701035,0-1.1795273-0.3330107-1.089241-1.0822668l0.2220306-1.810791h-0.6314545l0.0624619-0.4786701l0.652153-0.1806087 l0.1040421-0.8256302l0.7979584-0.2220335l-0.1249237,1.0476637h1.5125732l0.1040421-0.8256302l0.797966-0.2220335 l-0.1249313,1.0476637h0.9782257l-0.0831528,0.6592789h-0.9784241l-0.2080765,1.7204676 c-0.0415802,0.3469601,0.1110153,0.5136585,0.506485,0.5136585c0.1179962,0,0.2220383-0.0139103,0.3053818-0.0278215 L-97.4259033,12.4439735z"/>
          <path class="st3" d="M-95.9150238,10.9594498c-0.0485535,0.5200558,0.0972595,0.8602343,0.8049011,0.8602343 c0.437088,0,0.8047409-0.076375,1.1308212-0.2080841l-0.0831604,0.6660604 c-0.4162064,0.1663132-0.8741837,0.2148657-1.2489624,0.2148657c-1.1586838,0-1.4916916-0.6935349-1.3528519-1.8175735 c0.1386795-1.1172552,0.6314545-1.8179588,1.7761841-1.8179588c1.0198059,0,1.3528137,0.4786701,1.2766342,1.0755243 c-0.0694427,0.5964298-0.5134659,1.0269318-1.5332718,1.0269318H-95.9150238z M-95.0894318,10.4179306 c0.4094238,0,0.6800079-0.1317091,0.7217789-0.4440269c0.0346069-0.3119717-0.2082748-0.444067-0.6175461-0.444067 c-0.5689545,0-0.7702942,0.3680391-0.8604279,0.8880939H-95.0894318z"/>
          <path class="st3" d="M-90.8442917,9.5648642c-0.0831528-0.0278597-0.2152481-0.0417709-0.3747787-0.0417709 c-0.4094238,0-0.7285233,0.0970678-0.9155731,0.2080841l-0.3262634,2.6781931h-0.7770767l0.4231796-3.4691811h0.4581299 l0.0899353,0.2777147c0.2845001-0.2081223,0.6867981-0.3609104,1.1379929-0.3609104 c0.1456146,0,0.270546,0.0207319,0.3676529,0.0417709L-90.8442917,9.5648642z"/>
          <path class="st3" d="M-89.2705612,12.4093704l0.638237-5.2035985h1.5469894c1.7276382,0,2.0678177,1.1240382,1.887207,2.6017795 c-0.1870422,1.4777803-0.7977753,2.601819-2.5254059,2.601819H-89.2705612z M-88.4103241,11.6947565h0.7910233 c1.0404968,0,1.4706116-0.7563848,1.6094513-1.8872051c0.1388779-1.1307812-0.1038513-1.8871655-1.1447296-1.8871655h-0.7909851 L-88.4103241,11.6947565z"/>
          <path class="st3" d="M-83.9435349,10.9594498c-0.0485153,0.5200558,0.0970993,0.8602343,0.8049316,0.8602343 c0.4372864,0,0.8049393-0.076375,1.1308212-0.2080841l-0.0831528,0.6660604 c-0.4162064,0.1663132-0.8741837,0.2148657-1.24897,0.2148657c-1.1586761,0-1.4916916-0.6935349-1.3528519-1.8175735 c0.1388779-1.1172552,0.6314621-1.8179588,1.7761917-1.8179588c1.0197983,0,1.3528137,0.4786701,1.2764359,1.0755243 c-0.0692444,0.5964298-0.5132751,1.0269318-1.5330734,1.0269318H-83.9435349z M-83.1179047,10.4179306 c0.4094238,0,0.6800079-0.1317091,0.7217789-0.4440269c0.0345993-0.3119717-0.2081223-0.444067-0.6175461-0.444067 c-0.5689545,0-0.7702942,0.3680391-0.8602371,0.8880939H-83.1179047z"/>
          <path class="st3" d="M-79.6430588,11.8057728c0.4026413,0,0.6660538-0.0624638,0.929863-0.1595697l-0.0831604,0.672843 c-0.2844925,0.1181841-0.6175461,0.17348-0.9784164,0.17348c-1.2278824,0-1.5123825-0.7353058-1.3806763-1.8175735 c0.1317139-1.0826521,0.596817-1.8179588,1.824707-1.8179588c0.3609085,0,0.6800079,0.0557203,0.9366455,0.173481 l-0.0831604,0.672843c-0.235939-0.0970678-0.4858322-0.1595316-0.888092-0.1595316 c-0.6732254,0-0.922699,0.4579391-1.0062408,1.1311665C-80.4547424,11.3477955-80.3159027,11.8057728-79.6430588,11.8057728z"/>
          <path class="st3" d="M-77.9718781,11.5558796l0.3190994-2.6156902h0.7770767l-0.3190994,2.6089468 c-0.0278244,0.1941729,0.0346451,0.2634192,0.2566376,0.2634192l-0.0763779,0.6314182 c0,0-0.0692444,0.0139494-0.1523972,0.0139494C-77.7984009,12.4579229-78.0482559,12.1527338-77.9718781,11.5558796z M-77.1394653,7.407074c0.27771,0,0.5064926,0.2288151,0.5064926,0.5061445 c0,0.2777147-0.2287827,0.5065298-0.5064926,0.5065298c-0.2773666,0-0.5065308-0.2288151-0.5065308-0.5065298 C-77.6459961,7.6358891-77.416832,7.407074-77.1394653,7.407074z"/>
          <path class="st3" d="M-74.8710861,10.3279924c1.0337143,0.0899382,1.2628784,0.4022951,1.1865005,1.0476637 c-0.0764084,0.5964298-0.5065231,1.1168699-1.6166153,1.1168699c-0.4786682,0-0.8952637-0.0899382-1.1240387-0.1873903 l0.0831604-0.6660614c0.2220306,0.0835419,0.5761185,0.19452,1.0130157,0.19452 c0.5550461,0,0.8395462-0.1249275,0.8741837-0.4301167c0.0346069-0.2570219-0.0624619-0.388732-0.5204391-0.4304638 c-1.0337143-0.0899382-1.2557449-0.4162064-1.1793747-1.0126743c0.0692444-0.5968151,0.5204468-1.1033459,1.5402451-1.1033459 c0.4718857,0,0.7977753,0.0557203,1.0547943,0.173481l-0.0835419,0.672843 c-0.284111-0.1110172-0.5964279-0.1941738-1.0337143-0.1941738c-0.4094238,0-0.6800079,0.1181841-0.7213974,0.4301176 C-75.4261246,10.1823721-75.3151474,10.2862215-74.8710861,10.3279924z"/>
          <path class="st3" d="M-72.9639587,11.5558796l0.3190994-2.6156902h0.7770767l-0.3190994,2.6089468 c-0.0278549,0.1941729,0.0346451,0.2634192,0.2566376,0.2634192l-0.0763702,0.6314182 c0,0-0.069252,0.0139494-0.1524048,0.0139494C-72.7904739,12.4579229-73.040329,12.1527338-72.9639587,11.5558796z M-72.131546,7.407074c0.2777176,0,0.5064926,0.2288151,0.5064926,0.5061445 c0,0.2777147-0.228775,0.5065298-0.5064926,0.5065298c-0.2773666,0-0.5065308-0.2288151-0.5065308-0.5065298 C-72.6380768,7.6358891-72.4089127,7.407074-72.131546,7.407074z"/>
          <path class="st3" d="M-71.2438354,10.6749525c0.1317062-1.0687027,0.5271835-1.8179588,1.7622375-1.8179588 s1.4503021,0.7492561,1.3182144,1.8179588c-0.1317139,1.0683565-0.5271912,1.8175735-1.7622452,1.8175735 S-71.3755493,11.743309-71.2438354,10.6749525z M-68.9472427,10.6749525 c0.0899353-0.7424345,0.0485458-1.1658087-0.610733-1.1658087c-0.6589279,0-0.8117142,0.4233742-0.9020004,1.1658087 c-0.0899429,0.7420893-0.0414276,1.1654243,0.6175079,1.1654243 C-69.1831894,11.8403769-69.037529,11.4170418-68.9472427,10.6749525z"/>
          <path class="st3" d="M-65.5834198,12.4093704l0.2912827-2.3797855c0.0417709-0.3537426-0.1177979-0.5132732-0.4854507-0.5132732 c-0.3608704,0-0.6246796,0.0970669-0.8259811,0.2009544l-0.325882,2.6921043h-0.7770767l0.4233322-3.4691811h0.4575958 l0.0903244,0.2777147c0.3815613-0.2431116,0.7909851-0.3609104,1.1658096-0.3609104 c0.880928,0,1.1447296,0.4372845,1.0615311,1.1033459l-0.2984085,2.4490309H-65.5834198z"/>
          <path class="st3" d="M-62.5804596,10.3279924c1.0337143,0.0899382,1.2628746,0.4022951,1.1865005,1.0476637 c-0.0763741,0.5964298-0.5065308,1.1168699-1.6166191,1.1168699c-0.4786682,0-0.8952599-0.0899382-1.1240349-0.1873903 l0.0831528-0.6660614c0.2220345,0.0835419,0.5761261,0.19452,1.0130234,0.19452 c0.5550842,0,0.8395424-0.1249275,0.8741837-0.4301167c0.0346031-0.2570219-0.0624657-0.388732-0.5204391-0.4304638 c-1.0337143-0.0899382-1.2557487-0.4162064-1.1793747-1.0126743c0.0692444-0.5968151,0.5204391-1.1033459,1.5402451-1.1033459 c0.4718857,0,0.7981529,0.0557203,1.0547905,0.173481l-0.0835419,0.672843 c-0.2844963-0.1110172-0.5964279-0.1941738-1.0337143-0.1941738c-0.4094238,0-0.6799698,0.1181841-0.7213936,0.4301176 C-63.1355057,10.1823721-63.0244865,10.2862215-62.5804596,10.3279924z"/>
          <path class="st3" d="M-60.4166946,11.4795055c0.2777138,0,0.5065269,0.2291613,0.5065269,0.5065298 c0,0.2777147-0.2288132,0.5064907-0.5065269,0.5064907c-0.2773323,0-0.5064926-0.228776-0.5064926-0.5064907 C-60.9231873,11.7086668-60.6940269,11.4795055-60.4166946,11.4795055z"/>
        </g>
      </g>
      <text transform="matrix(1.07513 0 0 1 195.2490234 150.4111328)" style="display: none; fill: rgb(0, 85, 184); stroke: rgb(138, 145, 151); stroke-width: 0.21834; font-family: MicrosoftSansSerif; font-size: 9.07615px; white-space: pre;">Better Data.  Better Decisions.</text>
    </g>
  </g>
</svg>